<svg xmlns="http://www.w3.org/2000/svg" width="39.001" height="28" viewBox="0 0 39.001 28">
  <g id="Icon_feather-youtube" data-name="Icon feather-youtube" transform="translate(-0.499 -5)">
    <path id="Path_30" data-name="Path 30" d="M37.725,10.07a4.675,4.675,0,0,0-3.263-3.364C31.57,6,20,6,20,6S8.429,6,5.536,6.774a4.675,4.675,0,0,0-3.263,3.364,48.771,48.771,0,0,0-.774,8.9A48.771,48.771,0,0,0,2.274,28a4.675,4.675,0,0,0,3.263,3.229C8.429,32,20,32,20,32s11.571,0,14.463-.774a4.675,4.675,0,0,0,3.263-3.364,48.771,48.771,0,0,0,.774-8.829,48.77,48.77,0,0,0-.774-8.964Z" transform="translate(0)" fill="none" stroke="#fff" stroke-linecap="round" stroke-linejoin="round" stroke-width="2"/>
    <path id="Path_31" data-name="Path 31" d="M14.625,22.53l8.625-4.905-8.625-4.9Z" transform="translate(2.153 1.411)" fill="none" stroke="#fff" stroke-linecap="round" stroke-linejoin="round" stroke-width="2"/>
  </g>
</svg>
