<?xml version="1.0" encoding="utf-8"?>
<!-- Generator: Adobe Illustrator 26.0.3, SVG Export Plug-In . SVG Version: 6.00 Build 0)  -->
<svg version="1.1" id="Warstwa_1" xmlns="http://www.w3.org/2000/svg" xmlns:xlink="http://www.w3.org/1999/xlink" x="0px" y="0px"
	 viewBox="0 0 453.5 283.5" style="enable-background:new 0 0 453.5 283.5;" xml:space="preserve">
<style type="text/css">
	.st0{fill:#FFFFFF;}
</style>
<g>
	<path class="st0" d="M416.4,193.2C416.3,193.2,416.3,193.2,416.4,193.2c-2.7-2.1-4.7-4.8-5.9-7.8l0,0c0-0.1-0.1-0.2-0.1-0.3v0
		c-0.3-0.6-0.7-1-1.3-1.3c0,0,0,0,0,0l0,0c-0.2-0.1-0.4-0.1-0.6-0.2c0,0,0,0,0,0c-8.1-2.6-16.1-5.8-24-9.5c-1.1-0.5-2.2-1-3.2-1.5
		c-1-4.8-1.9-9.6-2.6-14.5c-0.6-3.9-1-7.7-1.4-11.6c1.5,1.1,3.2,2.1,4.9,2.9c0.9,0.5,1.9,0.9,2.9,1.2c1.5-5.9,1.3-12.2-0.9-18.3
		c-3.3-9-10.2-15.5-18.5-18.6c-1.4-0.5-2.9-0.9-4.4-1.2c0.2,0,0.4,0.1,0.6,0.1c-0.6-1.2-1.2-2.5-1.8-3.8c-0.4-0.8-0.7-1.7-1-2.6
		c-0.5-1.5-1-2.9-1.4-4.4c0.2,0.2,0.4,0.3,0.5,0.4c0.2,0.2,0.5,0.4,0.7,0.5c0.3,0.2,0.6,0.5,1,0.7c0.2,0.2,0.5,0.3,0.7,0.5
		c0.3,0.2,0.7,0.5,1,0.7c0.2,0.2,0.5,0.3,0.7,0.5c0.3,0.2,0.7,0.4,1,0.7c0.1,0.1,0.3,0.2,0.4,0.2c0.1,0.1,0.2,0.1,0.2,0.1
		c0.7,0.4,1.4,0.8,2.1,1.2c0,0,0,0,0,0c0.7,0.4,1.5,0.8,2.2,1.1c0.2,0.1,0.4,0.2,0.6,0.3c0.2,0.1,0.5,0.2,0.7,0.3c0,0,0,0,0.1,0
		c11.5,5.1,24.9,5.9,37.6,1.3c2.2-0.8,4.2-1.7,6.2-2.8c-7-9.7-17.1-16.4-28.4-19.3c13.4-7,22.6-19.6,25.7-33.7
		c0.6-2.9,1-5.9,1.1-8.9c0.2-4-0.2-8.1-1-12.2c-1.4,4.1-3.6,7.9-6.5,11.2c-3.3,3.6-7.5,6.5-12.4,8.3c-0.9,0.3-1.8,0.6-2.7,0.8
		c0,0,0,0,0,0c-0.1,0-0.2,0-0.3,0.1c0.1,0,0.2-0.1,0.3-0.1c-0.4-2.5-1-5-1.7-7.4c-2.1-6.6-5.6-12.9-10.4-18.3
		c1.8,8.5-0.1,17.7-5.7,25.1c-0.3,0.4-0.6,0.8-1,1.2c-0.7,0.8-1.4,1.6-2.1,2.3c0,0,0,0,0,0c0,0,0,0,0,0l0,0c-0.5,0.5-1.1,1-1.7,1.5
		l0,0c-1.4,1.3-2.7,2.7-4,4.2c-5.1,6.1-8.5,12.9-10.3,20.1c-1-1.7-2.1-3.3-3.4-4.8c0,0,0,0,0,0c-0.5-0.5-0.9-1-1.4-1.5l0,0
		c-0.7-0.9-1.4-1.8-1.9-2.8c-0.5-0.9-1-1.9-1.4-2.9c-0.4-1.2-0.8-2.4-0.9-3.6c-0.1-0.1-0.3-0.2-0.4-0.2c0.9,0.6,1.9,1.1,3,1.5
		c5.3-5.1,7.5-13.1,4.8-20.5c-1.4-3.9-4-7.1-7.2-9.3c0,0,0.1,0,0.1,0.1c0.5-0.7,1.2-1.3,2.1-1.6c2.4-0.9,5,0.4,5.8,2.7
		c0.4,1.2,1,2.3,1.8,3.2c1.3,1.7,3,3,4.9,3.7c0.7,0.3,1.5,0.5,2.3,0.7h0c0.4,0.1,0.8,0.1,1.2,0.2l0,0c1,0,1.9-0.1,2.9-0.4
		c3.8-1.4,5.8-5.6,4.4-9.4c-0.1-0.2-0.1-0.3-0.2-0.5c0.6,2.3-0.6,4.7-2.8,5.5c-2.4,0.9-5-0.4-5.8-2.7c-0.2-0.5-0.3-1.1-0.3-1.6
		c0-0.1,0-0.2,0-0.4c0,0,0,0,0,0c0.1-1.6,0-3.2-0.1-4.7c-0.1-1-0.3-2-0.5-3l0,0c-0.1-0.6-0.3-1.2-0.5-1.8c-0.4-1.2-1-2.3-1.8-3.2
		c-3.1-4-8.5-5.7-13.5-3.9c-5.9,2.1-9,8.4-7.4,14.3c0.1,0,0.1,0,0.2,0c-3.3-0.7-6.9-0.5-10.3,0.8c-2.6,0.9-4.8,2.3-6.7,4.1
		c-0.8,0.8-1.6,1.6-2.2,2.5c0,0,0,0,0,0c-2,3-2.6,6.9-1.2,10.6c1.1,3,3.3,5.3,6,6.6c-0.2-0.1-0.3-0.2-0.5-0.2
		c0.7,2.4,0.9,4.9,0.6,7.3c0,0.2,0,0.3-0.1,0.5c2.3,3.1,5.5,5.4,9,6.6v0c1,0.3,2,0.4,3.1,0c0.9-0.3,1.6-0.9,2.1-1.5
		c0-0.1,0.1-0.1,0.1-0.2c0.2-0.2,0.5-0.4,0.8-0.5c0.5-0.2,1-0.1,1.4,0.1c0.4,0.2,0.7,0.5,0.9,0.9l0,0c0,0.1,0,0.1,0,0.2l0,0
		c0.2,0.7,0.4,1.3,0.5,2c0.5,2.4,0.5,4.8,0.1,7.2c-0.1,0.4-0.2,0.9-0.3,1.3c-2.1,2.7-5,4.9-8.5,6.2c-0.9,0.3-1.9,0.6-2.8,0.8v0
		c-2.8,0.6-5.5,0.9-8.3,1c-6.3-1.4-12.3-4.1-17.6-7.8c-1.2-0.9-2.5-1.8-3.6-2.8c-0.2-0.2-0.4-0.3-0.5-0.4l0,0
		c-0.3-0.2-0.6-0.5-0.9-0.8l0,0c-0.8-0.5-1.7-0.8-2.6-0.8c-0.5,0-1,0.1-1.5,0.3c-0.7,0.3-1.3,0.7-1.8,1.2c1.6,1.1,3.6,1.5,5.5,1.1
		c0.8,0.8,1.5,1.6,2.3,2.4l0,0c1.4,1.3,2.9,2.6,4.5,3.8c1.4,1,2.8,2,4.3,2.9c3.4,2,6.9,3.6,10.7,4.8c3.9,0.5,7.9,0.6,11.9,0.1
		c2.2-0.2,4.4-0.6,6.6-1.2l0-0.1c-0.2-0.6-0.3-1.2-0.4-1.8c-0.1-1.4,0.1-2.8,0.7-4c0.1-0.2,0.2-0.4,0.3-0.6c0,0,0,0,0,0c0,0,0,0,0,0
		c-1.1,1.8-1.4,4.2-0.6,6.3c0.4,1.2,1.1,2.2,2,3l0,0c3.4,2.9,6.5,6.4,9,10.2c0.9,1.3,1.7,2.7,2.5,4.2c0.6,1.2,1.2,2.4,1.8,3.6
		c0-0.1,0.1-0.1,0.1-0.2c-0.9,1.2-1.8,2.4-2.5,3.7c-4.5,7.7-5.6,17.2-2.3,26.3c2.2,6.1,6.2,11.2,11.2,14.7c0.5-0.9,1-1.9,1.5-2.8
		c0.8-1.7,1.4-3.4,1.8-5.2c2,3.3,3.9,6.7,5.7,10.1c0.8,1.5,1.6,3,2.3,4.5l0,0c1.1,2.2,2.1,4.4,3.1,6.6c2.2,4.9,4.3,10,6.2,15.1
		c1.6,4.3,3,8.6,4.2,12.9c0.3,0.9,0.5,1.9,0.8,2.8c0.8,3,1.6,6,2.3,9l0,0c0,0,0,0,0,0c0.1,0.2,0.3,0.3,0.5,0.2
		c0.2-0.1,0.3-0.2,0.3-0.4c0,0,0-0.1,0-0.1c-0.4-3.3,0.1-6.6,1.3-9.6c0-0.1,0.1-0.2,0.1-0.3l0,0c0.2-0.6,0.2-1.3,0-1.9l0,0
		c-0.1-0.2-0.2-0.4-0.3-0.6c-3.8-7.6-7.3-15.5-10.2-23.7c-0.2-0.6-0.5-1.3-0.7-1.9c1.4,0.5,2.8,1.1,4.2,1.6
		c3.7,1.5,7.5,3.1,11.1,4.8c4.1,1.9,8.2,4,12.1,6.1c0.9,0.5,1.7,0.9,2.6,1.4l0,0c2.7,1.5,5.4,3.1,8,4.7l0,0c0,0,0,0,0,0
		c0.2,0.1,0.5,0,0.5-0.2C416.5,193.5,416.5,193.3,416.4,193.2z"/>
	<path class="st0" d="M293.3,81.4c0-0.1-0.1-0.2-0.2-0.2l-35.3-13.6c0.2-0.8,0.5-1.6,0.8-2.3c0.1-0.2,0.2-0.3,0.2-0.5l0,0
		c0.2-0.5,0.4-1.1,0.4-1.8c0-2-1.4-3.8-3.2-4.3c-0.4-0.1-0.9-0.2-1.3-0.2c-1.1,0-2,0.4-2.8,1c-0.8-0.6-1.7-1-2.8-1
		c-0.5,0-0.9,0.1-1.3,0.2c-1.9,0.6-3.2,2.3-3.2,4.3c0,0.7,0.1,1.3,0.4,1.9c0.1,0.1,0.1,0.2,0.1,0.3v0c0.4,0.8,0.6,1.6,0.9,2.4
		c0.2,0.9,0.3,1.8,0.3,2.7c0,1.7,0.3,3.2,1,4.7c0,0.1,0.1,0.2,0.1,0.3c0.2,0.3,0.5,0.5,0.9,0.5c0.6,0,1-0.4,1.1-1c0,0,0,0,0,0v0
		c0-2.2,1-4.1,2.5-5.4c1.5,1.3,2.5,3.2,2.5,5.3c0,0.1,0,0.1,0,0.2v0c0.1,0.5,0.5,1,1.1,1c0.4,0,0.7-0.2,0.9-0.5
		c0-0.1,0.1-0.2,0.1-0.2l0,0c0.6-1.4,1-3,1-4.7l0,0c0-0.3,0-0.6,0-0.9l35.3,12.5c0,0,0.1,0,0.1,0c0.1,0,0.3-0.1,0.4-0.2
		C293.4,81.6,293.4,81.5,293.3,81.4z"/>
	<g>
		<g>
			<path class="st0" d="M118.8,113c0.8-2.3,2-4.4,3.4-6.2c1.4-1.8,3.2-3.4,5.4-4.8s4.9-2.4,8.1-3s6.8-0.7,10.9-0.2
				c1,0.1,1.8-0.3,2.5-1.3c1.1-1.6,1.4-3.4,0.8-5.6c-0.6-2.5-2.1-3.7-4.5-3.7c-8,0-14.5,2.1-19.3,6.2c-4.8,4.1-8.6,10.3-11.3,18.5
				c-3.6,11.1-7,21.1-9.9,30c-0.5-1.3-1.4-3.8-2.7-7.5c-1.3-3.7-2.9-8-4.6-12.9c-1.8-4.9-3.1-8.8-4.2-11.7c-0.3-0.8-0.1-1.7,0.7-2.7
				c0.9-1,1.9-1.5,3-1.5v-2.1H77.4v2.1c2.3,0,4.1,1.3,5.2,4.1c0.3,0.9,0.8,2.2,1.5,4.1s1.2,3.2,1.4,4l-8,24.2
				c-0.1-0.4-4-11.1-11.6-32.1c-0.3-0.8-0.1-1.7,0.7-2.7c0.9-1,1.9-1.5,3-1.5v-2.1H54.6c-2.6,0-5.2,0.5-7.6,1.5
				c-2.3,1-4.3,2.4-6,4.3c-1.6,1.9-2.7,3.9-3.3,6c-0.6,2.1-0.8,4.2-0.6,6.3c0.2,2.1,0.9,4,2.2,5.6c1.3,1.7,3,2.9,5.2,3.6
				c1.2,0.4,2.3,0.6,3.3,0.6c3-0.1,5.5-1,7.4-2.9c1.9-1.9,2.8-4.2,2.7-7.1c-0.1-2.9-1.2-5.1-3.2-6.6c-2-1.4-4.7-1.6-8-0.5
				c0.7,0.1,1.2,0.3,1.7,0.8s0.8,1.1,0.8,1.7s0.1,1.3-0.1,1.9s-0.5,1.1-1,1.5c-0.5,0.4-1.1,0.5-1.9,0.5c-1.2-0.1-2.2-0.8-2.9-2.1
				c-0.7-1.3-0.8-2.9-0.3-4.7c0.6-2.4,2-4.2,4.1-5.3c0.8-0.5,1.8-0.8,3-0.9c1.1-0.1,2.3,0.2,3.4,0.8c1.1,0.6,1.9,1.6,2.5,2.9
				c1.7,4.7,4.4,12.4,8.2,23c3.8,10.6,6,16.9,6.7,18.8h5.7L87.5,124c1.3,3.6,3.2,9,5.7,15.9s4.2,11.7,5.1,14.2h5.7
				C106.7,146.9,111.6,133.1,118.8,113z"/>
		</g>
		<g>
			<path class="st0" d="M138.1,122.2c-1.4,1.2-2.6,2.5-3.5,4.1v-6.8l-14.2,3.6v0.9l1.1,0.2c0.7,0.2,1.3,0.7,2,1.5s1.1,1.8,1.1,3.1
				v17.5c0,1.6-0.7,3-2,4.1c-1.3,1.1-2.5,1.7-3.6,1.8v2.1h21.2v-2.1c-1.1-0.1-2.3-0.6-3.6-1.8s-2-2.5-2-4.1v-14.3
				c0.3-1.1,0.8-2.2,1.3-3.2c1.1-2.1,2.8-3.6,5-4.7s4.2-1.3,6.1-0.7c1.5,0.5,2.6,1.5,3.2,2.8s0.6,2.6-0.1,3.8
				c-0.5,0.8-1.2,1.3-2.1,1.5s-1.8-0.2-2.4-1c-0.6-0.8-0.8-1.9-0.5-3.4c-1.7,1.2-2.7,2.8-3.1,4.9s-0.1,4.1,1,5.9s2.6,3,4.8,3.4
				c2.3,0.5,4.6,0,6.7-1.3c2.1-1.4,3.5-3.5,4-6.4c0.8-4.1-0.1-7.6-2.6-10.2s-5.6-4-9.4-4C143.4,119.3,140.6,120.2,138.1,122.2z"/>
		</g>
		<g>
			<path class="st0" d="M287.1,154.2c2.5,1.1,5.4,1.3,8.5,0.5c3.1-0.8,5.8-2.4,7.9-4.8c0.2,2.1,1.1,3.5,2.5,4.3
				c1.4,0.8,3,1.1,4.7,0.8s3.2-0.8,4.7-1.5s2.3-1.4,2.7-2.1v-1.1c-0.4,0.5-0.9,0.8-1.6,1.1c-0.7,0.3-1.4,0.2-2-0.3s-1-1.4-1-2.8
				v-16.9c0-4.2-1.3-7.2-3.9-9.1c-2.6-1.9-5.8-2.9-9.7-2.9c-3.2,0-6.1,0.6-8.7,1.9s-4.2,3.4-4.7,6.3c-0.4,2.3,0.1,4,1.5,5
				c1.4,1,2.9,1.1,4.5,0.4c1.8-0.9,2.5-2.4,2.2-4.5c-0.3-1.6,0.1-3.1,1.1-4.3c1-1.2,2.2-1.9,3.5-1.9c1,0,1.8,0.2,2.4,0.7
				c0.6,0.4,1,1.1,1.3,2s0.5,1.7,0.5,2.5c0.1,0.8,0.1,1.8,0.1,3.1v2.7c-0.4,0.1-1.1,0.2-2,0.4c-2.7,0.6-4.7,1-5.9,1.3
				s-2.9,0.8-5.1,1.6c-2.2,0.8-3.8,1.7-4.7,2.6c-0.9,0.9-1.8,2.2-2.5,3.8s-0.9,3.4-0.6,5.5C283.1,151.1,284.5,153,287.1,154.2z
				 M293.6,141.1c1.2-1.5,2.6-2.7,4.2-3.4c1.7-0.8,3.5-1.4,5.6-1.9v11.3c-1.1,1.4-2.5,2.3-4.2,2.8c-1.7,0.4-3.2,0.4-4.5-0.3
				c-1.4-0.6-2.1-1.7-2.4-3.3C292,144.4,292.4,142.6,293.6,141.1z"/>
		</g>
		<g>
			<path class="st0" d="M90.1,202.1c-1.4-0.4-2.9-0.6-4.2-0.7c-1.4-0.1-2.8,0.1-4.3,0.6c-1.5,0.5-2.8,1.2-3.9,2.2
				c-1.1,1-2,2.5-2.7,4.6s-1.1,4.4-1.1,7.2c1.2-2.6,2.5-4.3,3.8-5.1s2.8-1.1,4.5-0.8c1.1,0.1,1.9,0.6,2.6,1.5s1.1,1.8,1.2,2.8
				c0.1,1-0.2,2-0.8,3.1c-0.6,1-1.6,1.8-2.9,2.2c-1.1,0.6-2.6,0.9-4.7,0.8s-3.8-0.3-5.2-0.7c-1.4-0.4-3.7-0.8-6.8-1.2
				c-3.1-0.4-6.3-0.7-9.5-0.8c7.8-11.6,13.4-20.2,17-25.6c3.6-5.4,7.5-11.4,11.9-18l0.1-3H47.3l-1,11.6c0.6-0.8,1.2-1.6,2-2.4
				c0.8-0.8,1.8-1.8,3.1-2.9c1.3-1.1,2.8-2,4.5-2.7c1.7-0.7,3.4-1,5.2-1h12.2l-29.1,43.9c0,0.5-0.1,1.3-0.1,2.3s0,1.8,0,2.3
				c2.8-0.7,5.6-0.9,8.4-0.7c2.8,0.3,5.7,0.7,8.7,1.3c3,0.6,5.8,1.3,8.6,2.2c2.8,0.9,5.5,1.5,8.2,2c2.7,0.5,5.1,0.8,7.3,0.8
				s4.3-0.5,6.2-1.5c1.9-1.1,3.5-2.7,4.7-4.9c1.4-2.9,2.1-5.6,2.1-8.2s-0.8-4.9-2.3-7C94.5,204.1,92.6,202.8,90.1,202.1z"/>
		</g>
		<g>
			<path class="st0" d="M160,183.4c-4.1,0-7.2,1-9.5,3.1c0-2.1,0-5.5,0-9.9c0-4.5,0-7.9,0-10.3l-9.6,2.4l-3.1,0.8
				c-2.6,0.6-4.9,1.2-6.9,1.5c-2,0.4-4.1,0.6-6.3,0.8s-4.2,0.1-5.8-0.2c-1.6-0.4-3.2-0.9-4.7-1.7c-1.5-0.8-2.7-1.9-3.6-3.5
				s-1.6-3.5-2-5.8c-0.1,0-0.2,0-0.3,0c-0.1,0-0.2,0-0.2,0c-2.6,0-4.5,0.6-5.9,1.9s-2,2.7-2,4.3s0.4,3.2,1.2,4.9
				c0.8,1.6,1.8,2.9,3.1,3.6c1.9,1.2,4.1,2,6.6,2.4c2.4,0.4,4.8,0.6,7,0.5c2.2-0.1,4.8-0.5,7.6-1.2c2.9-0.6,5.3-1.3,7.2-1.9
				c1.9-0.6,4.2-1.4,6.9-2.4c0.7,0.9,1.1,1.9,1.1,3.1v28.6v14.1c1.2-1.2,3.1-1.9,5.7-2.1s4.6,0.1,6,1c2.1,1.4,4.3,2,6.6,2
				c5.6,0,9.9-1.8,13.2-5.4s4.8-8,4.8-13.2c0-5.3-1.6-9.5-4.8-12.6C168.8,184.9,164.8,183.4,160,183.4z M162.4,211.8
				c-1.7,2.4-3.9,3.7-6.6,3.7c-0.3,0-0.6-0.1-1.1-0.1l-1.1-0.3c-0.7-0.2-1.4-0.8-2.1-1.5c-0.7-0.8-1.1-1.8-1.1-2.9
				c0-2.3,0-5.7,0-10.4c0-4.6,0-8.1,0-10.3c1.3-2.5,3.3-3.8,6.2-3.8c2.6,0,4.6,1.3,6.1,3.8s2.2,6.3,2.2,11.3
				C164.9,205.8,164.1,209.3,162.4,211.8z"/>
		</g>
		<g>
			<path class="st0" d="M217.6,213.3c-0.7-0.8-1.1-1.8-1.1-3.1c0-2.6,0-5.4,0-8.5s0-6.4,0-10c0-3.6,0-6.3,0-8.1H201l-0.1,2.2
				c0.5,0,1.1,0.1,1.9,0.2c0.7,0.2,1.5,0.6,2.4,1.5s1.4,1.9,1.4,3.3v21.7c-2.7,2.2-5,3.3-6.9,3.3c-1.7,0-3.1-0.6-4.2-1.8
				c-1.1-1.2-1.7-3-1.7-5.4c0-11.1,0-19.4,0.1-24.9h-15.6l-0.1,2.2c1.2,0,2.5,0.4,3.8,1.2c1.3,0.8,1.9,2,1.9,3.6v18.3
				c0,3.5,1.1,6.2,3.4,8c2.3,1.8,5,2.7,8.1,2.7c4.3,0,8.1-1.6,11.3-4.7v4.7l14.1-3.6v-1l-1.1-0.2C219,214.6,218.3,214.1,217.6,213.3
				z"/>
		</g>
		<g>
			<path class="st0" d="M254.6,207.5c-0.3-2.3-1.5-4.2-3.5-5.8c-1.3-1-3.5-2.2-6.7-3.7c-3.2-1.5-5.8-2.9-7.8-4.3c-2-1.4-3-3.1-3-4.9
				c0-1.4,0.6-2.4,1.9-3.1c1.3-0.7,2.6-0.9,4.1-0.7c1.4,0.2,2.4,0.7,3.1,1.5c0.6,0.8,0.9,1.6,0.8,2.5c-0.1,0.9-0.4,1.8-1,2.6
				c-0.5,0.9-1.2,1.5-2,1.9c1.7,1.6,3.6,2.2,5.7,1.9c2.1-0.3,3.5-1.6,4.1-3.8c0.6-2.1-0.2-4-2.4-5.8c-2.1-1.8-5.4-2.7-9.7-2.7
				c-3.5,0-6.3,0.5-8.5,1.6c-2.1,1.1-3.6,2.5-4.3,4.2c-0.9,1.8-0.9,3.9-0.2,6.1c0.8,2.2,2.4,4.2,4.8,5.9c1.2,0.8,3,1.8,5.5,3
				s4.6,2.3,6.4,3.3s2.8,2.1,3.1,3.2c0.4,1.4,0.1,2.7-0.7,4c-0.9,1.3-2.2,2-4,2.1c-2.1,0.1-3.9-0.3-5.5-1.1s-3-1.8-4.1-3.2
				s-1.9-2.6-2.5-3.5c-0.6-1-1.1-2.1-1.8-3.5l-0.6,9.4c1.1,1.3,2.9,2.4,5.3,3.1c2.4,0.8,5.1,1.2,8,1.2c3.1,0,5.9-0.5,8.4-1.5
				s4.3-2.4,5.6-4.2C254.4,211.8,254.9,209.8,254.6,207.5z"/>
		</g>
		<g>
			<path class="st0" d="M295.6,222.1c-2.6-1.3-5.6-2.3-9-2.8c-3.4-0.5-6.5-0.9-9.2-1c-2.8-0.1-5.9-0.2-9.5-0.1l21.4-31.9l0.1-2.7
				h-30l-1.3,10.5c1.5-2.7,3.5-4.6,5.8-5.9c2.3-1.3,5.5-1.9,9.4-1.9h4.1l-2.7,3.9c-2.2,3.4-5.6,8.4-10.1,15.2
				c-4.5,6.8-7.8,11.8-10.1,15.2h0.8c0.4,0.1,1.6,0.2,3.4,0.4c10.4,1,17.8,2.3,22.1,3.7c8.4,2.9,12,7.8,11.1,14.7
				c2.3,0.5,4.4,0.4,6.2-0.3c1.8-0.7,3.2-1.7,4.1-3s1.3-2.8,1.3-4.4s-0.5-3.1-1.5-4.5C300.3,225.1,298.2,223.5,295.6,222.1z"/>
		</g>
		<g>
			<path class="st0" d="M325.9,207.9c-2.3-3.3-5.6-8.1-9.9-14.4c2-1.4,3.4-2.2,4.1-2.7s1.9-1.2,3.8-2.2s3.4-1.8,4.8-2.2
				c1.3-0.4,2.6-0.6,3.8-0.7v-2.2h-13.9v2.3l0.7,0.1c0.5,0.1,0.9,0.2,1,0.5c0.2,0.3-0.1,0.7-0.7,1.2c-4.9,3.4-9.2,6.3-13,8.9v-30.3
				l-0.2,0.1c0.3-0.7,0.4-1.4,0.4-2.1c0-0.1,0-0.2,0-0.4c0-0.1,0-0.2,0-0.3c-0.2-1.5-1.1-2.9-2.6-4.3c-1.6-1.4-3-2.1-4.5-2.1
				s-2.2,0.8-2.5,2.4c-0.9,5.8-2.2,9.1-3.7,9.9l-0.9,0.2c-1.1,0-2.5-0.9-4.2-2.8c-1.7-1.9-3.9-4.8-6.6-8.7
				c-2.7-3.8-9.3-13.4-19.9-28.8c2-1.4,3.4-2.2,4.1-2.7c0.7-0.4,1.9-1.2,3.8-2.2c1.8-1.1,3.4-1.8,4.8-2.2c1.3-0.4,2.6-0.7,3.8-0.7
				v-2.2h-13.9l-0.1,2.3l0.8,0.1c0.5,0.1,0.8,0.2,1,0.5s-0.1,0.7-0.8,1.2c-0.9,0.6-5.2,3.6-12.9,8.9v-30.3l-14.2,3.6v1l1.1,0.2
				c0.7,0.1,1.4,0.6,2.1,1.4c0.7,0.8,1.1,1.8,1.1,3.2v34.7c0,1.6-0.7,3-2,4.1s-2.5,1.7-3.6,1.7v2.2h21.2V152c-1.1,0-2.3-0.6-3.6-1.7
				s-2-2.5-2-4.1v-12.9l0.8,1.3c6.8,9.9,11.3,16.4,13.5,19.5c0.3,0.5,1.1,1.5,2.2,3.1c1.1,1.6,1.9,2.6,2.2,3.1c0.4,0.5,1,1.4,2,2.7
				s1.7,2.2,2.2,2.7s1.2,1.2,2.1,2.2c1,1,1.7,1.7,2.4,2.1c0.6,0.4,1.4,0.9,2.4,1.5s1.9,1.1,2.7,1.3c0.8,0.2,1.8,0.5,2.8,0.7
				s2.1,0.3,3.2,0.3c1.9,0,3.6-0.2,5.2-0.5c0.3,0.6,0.5,1.4,0.5,2.2v34.7c0,1.6-0.7,3-2,4.1c-1.4,1.1-2.6,1.7-3.6,1.7l0.1,2.2h21.1
				l0.1-2.2c-1.1,0-2.3-0.6-3.6-1.7s-2-2.5-2-4.1v-12.9c4.5,6.5,7.9,11.3,10.1,14.6c0.6,0.8,0.9,1.6,1,2.1c0.1,0.6-0.1,1-0.4,1.3
				s-0.7,0.4-1.1,0.6s-0.8,0.2-1.2,0.2v2.2h19.9v-2.2c-1.3,0-2.5-0.6-3.7-1.8C329.6,212.9,327.9,210.8,325.9,207.9z"/>
		</g>
		<g>
			<path class="st0" d="M390.4,206.6c-0.2-2.1-0.9-4.1-2.1-5.9s-3-3-5.1-3.7c-2.9-0.9-5.7-0.7-8.3,0.7c-2.6,1.4-4.2,3.4-4.8,6.1
				c-0.5,2.2-0.2,4.3,0.7,6.3c0.9,2,2.2,3.3,3.9,4c1.7,0.6,3.6,0.5,5.8-0.5c-1.1-0.1-1.8-0.6-2.1-1.7s-0.1-2,0.6-2.9
				s1.6-1.3,2.8-1.2c1.2,0.1,2,0.7,2.6,1.9c0.6,1.2,0.7,2.5,0.4,4.1c-0.5,2.3-1.8,4.3-3.9,6c-2.1,1.7-4.3,2.6-6.6,2.5
				c-1.4-0.1-2.9-0.9-4.3-2.7c-1.5-1.7-2.2-3.7-2.2-6v-18.2c0-4.1-1.3-7.2-3.9-9.1c-2.6-1.9-5.8-2.9-9.7-2.9c-3.2,0-6.1,0.6-8.7,1.9
				s-4.2,3.4-4.7,6.3c-0.4,2.3,0.1,4,1.5,5c1.4,1.1,2.9,1.2,4.5,0.4c1.8-0.8,2.5-2.3,2.2-4.4c-0.3-1.6,0.1-3.1,1.1-4.3
				c1-1.3,2.2-1.9,3.5-1.9c1,0,1.8,0.2,2.4,0.7c0.6,0.4,1,1.1,1.3,2s0.5,1.7,0.5,2.5c0.1,0.8,0.1,1.8,0.1,3.1v2.7
				c-0.4,0.1-1.1,0.2-2,0.4c-2.7,0.6-4.7,1-5.9,1.3s-2.9,0.8-5.1,1.6c-2.2,0.8-3.8,1.7-4.7,2.6c-0.9,0.9-1.8,2.2-2.5,3.8
				s-0.9,3.4-0.6,5.5c0.3,2,1.3,3.6,2.9,4.8c1.6,1.2,3.5,1.8,5.6,1.9s4.3-0.3,6.6-1.2c2.3-0.9,4.2-2.2,5.7-4c0.1,2.5,1,4.6,2.7,6.4
				s3.6,2.9,6,3.6c2.3,0.6,4.8,0.9,7.4,0.9c2.6-0.1,5-0.6,7.1-1.4c2.1-0.9,4-2.2,5.6-4.1c1.6-1.8,2.7-3.9,3.3-6.1
				C390.4,210.9,390.6,208.8,390.4,206.6z M357.7,211.1c-1.1,1.4-2.5,2.3-4.2,2.8c-1.7,0.4-3.2,0.4-4.5-0.3
				c-1.4-0.6-2.1-1.7-2.4-3.3c-0.3-2,0.1-3.7,1.3-5.2s2.6-2.7,4.2-3.4c1.7-0.8,3.5-1.4,5.6-1.9L357.7,211.1L357.7,211.1z"/>
		</g>
		<g>
			<path class="st0" d="M125.8,227.9c-0.7-2.3-0.4-4.8,0.9-7.6c2.8-1.6,5.2-4.2,7.4-7.7l-1.1-0.8c-3.3,4.8-7,7.1-11.2,7.1
				c-2.6,0-4.8-1.4-6.6-4.3s-2.7-6.2-2.7-10.1v-0.2h21.7c0-5.9-1.1-10.4-3.4-13.3s-6.2-4.4-11.7-4.4h-0.3c-4.9,0-9,1.7-12.5,5
				c-3.5,3.3-5.2,7.6-5.2,12.6c0,5.7,1.6,10.2,4.8,13.4c3.2,3.2,7.5,4.8,12.9,4.8c1.2,0,2.4-0.1,3.6-0.4c-3.3,4-3.6,8.3-3.5,11.2
				c0.1,2.4,1.3,4.3,3.5,5.8c2.2,1.5,4.6,1.6,7.1,0.4c2.5-1.2,4.1-3.9,4.8-8C129.7,232.4,126.9,231.2,125.8,227.9z M115.1,193
				c1.6-2.1,3.6-3.1,5.9-3.1c3.4,0,5.3,2.6,5.7,7.8c0.1,1,0,1.8-0.1,2.3s-0.4,1-0.9,1.2c-0.5,0.2-0.9,0.4-1.2,0.4c-0.3,0-1,0-1.9,0
				h-9.8C112.7,197.9,113.5,195.1,115.1,193z"/>
		</g>
		<g>
			
				<ellipse transform="matrix(0.9871 -0.1602 0.1602 0.9871 -15.0337 36.3581)" class="st0" cx="218" cy="111.4" rx="4.5" ry="4.5"/>
		</g>
		<g>
			<path class="st0" d="M232.9,154.2l1.1-11.6c-3.4,5.9-8.9,8.8-16.5,8.8h-2.4l19.5-29.2v-2.7H204l-1.3,10.7c1.7-2.9,3.7-5,6.1-6.2
				c2.4-1.2,5.5-1.8,9.4-1.8l4.3-0.1l-21.2,31.9L232.9,154.2L232.9,154.2z"/>
		</g>
		<g>
			<path class="st0" d="M181.3,155.1c4.9,0,9.2-1.8,12.7-5.2s5.2-7.7,5.2-12.7s-1.8-9.2-5.2-12.6c-3-3-6.6-4.7-10.8-5.1
				c-0.2,0-0.4,0-0.6-0.1c0.9-2.6,2.8-4.8,5.7-6.2c0.3-0.1,0.6-0.3,0.8-0.5c0.2-0.1,0.3-0.3,0.4-0.4c0.4-0.5,0.6-1,0.7-1.6
				c0.2-1.1-0.2-2.3-1.1-3.1c-1.2-1-2.8-0.9-4.1-0.1c-1,0.6-2,1.3-2.8,2.3c-2,2.4-3,5.6-3,9.7c-4.1,0.4-7.7,2.1-10.7,5.1
				c-3.5,3.5-5.2,7.7-5.2,12.6c0,4.9,1.8,9.2,5.2,12.7C172.1,153.4,176.4,155.1,181.3,155.1z M176.1,125.7c0.9-1.8,2.1-3.1,3.3-3.7
				c0,0,0.1,0,0.1,0c0.6-0.2,1.2-0.4,1.8-0.4c0.3,0,0.6,0,0.9,0.1c0.1,0,0.1,0,0.2,0c1.6,0.4,3,1.7,4.1,3.9
				c1.4,2.7,2.1,6.5,2.1,11.5c0,4.9-0.7,8.8-2.1,11.5c-1.4,2.7-3.1,4.1-5.2,4.1s-3.8-1.4-5.2-4.1c-1.4-2.7-2.1-6.5-2.1-11.5
				C174,132.2,174.7,128.4,176.1,125.7z"/>
		</g>
	</g>
	<path class="st0" d="M246.5,43.7c0,0.1-0.1,0.1-0.1,0.2c-0.3,0.5-0.7,0.8-1.1,1.2c-0.3,0.3-0.6,0.5-0.9,0.7
		c0.1,0.4,0.2,0.7,0.3,1.1c0.1,0.6,0.2,1.2,0.1,1.9c-0.1,0-0.1,0-0.2-0.1c-0.5-0.2-1-0.4-1.5-0.7c-0.3-0.2-0.7-0.4-1-0.7
		c-0.3,0.2-0.6,0.5-1,0.7c-0.5,0.3-1.1,0.5-1.7,0.7c0-0.1,0-0.2,0-0.2c0-0.6,0.1-1.1,0.2-1.6c0.1-0.4,0.2-0.8,0.4-1.1
		c-0.3-0.2-0.6-0.5-0.9-0.7c-0.5-0.4-0.9-0.9-1.2-1.4c0.1,0,0.1,0,0.2-0.1c0.5-0.2,1.1-0.3,1.6-0.3c0.4,0,0.8,0,1.2,0
		c0.1-0.4,0.2-0.8,0.4-1.1c0.2-0.6,0.6-1.1,1-1.6c0.1,0.1,0.1,0.1,0.1,0.2c0.3,0.5,0.6,0.9,0.8,1.4c0.2,0.4,0.3,0.7,0.4,1.1
		c0.4,0,0.8,0,1.2,0C245.3,43.3,245.9,43.5,246.5,43.7z"/>
	<path class="st0" d="M238,75.2c0,0.1-0.1,0.1-0.1,0.2c-0.3,0.4-0.7,0.8-1.1,1.2c-0.3,0.3-0.6,0.5-0.9,0.7c0.1,0.4,0.2,0.7,0.3,1.1
		c0.1,0.6,0.2,1.2,0.1,1.9c-0.1,0-0.1,0-0.2-0.1c-0.5-0.2-1-0.4-1.5-0.7c-0.3-0.2-0.7-0.4-1-0.7c-0.3,0.2-0.6,0.5-1,0.7
		c-0.5,0.3-1.1,0.5-1.7,0.7c0-0.1,0-0.2,0-0.2c0-0.6,0.1-1.1,0.2-1.6c0.1-0.4,0.2-0.8,0.4-1.1c-0.3-0.2-0.6-0.4-0.9-0.7
		c-0.5-0.4-0.9-0.9-1.2-1.4c0.1,0,0.1-0.1,0.2-0.1c0.5-0.2,1.1-0.3,1.6-0.3c0.4,0,0.8,0,1.2,0c0.1-0.4,0.2-0.8,0.4-1.1
		c0.2-0.6,0.6-1.1,1-1.6c0.1,0.1,0.1,0.1,0.1,0.2c0.3,0.4,0.6,0.9,0.8,1.4c0.2,0.4,0.3,0.7,0.4,1.1c0.4,0,0.8,0,1.2,0
		C236.8,74.8,237.4,74.9,238,75.2z"/>
	<path class="st0" d="M229.5,57.2c0,0-0.1,0.1-0.1,0.1c-0.2,0.3-0.4,0.5-0.7,0.8c-0.2,0.2-0.4,0.3-0.6,0.4c0.1,0.2,0.1,0.5,0.2,0.7
		c0.1,0.4,0.1,0.8,0.1,1.2c-0.1,0-0.1,0-0.1,0c-0.3-0.1-0.6-0.2-0.9-0.4c-0.2-0.1-0.4-0.3-0.6-0.4c-0.2,0.2-0.4,0.3-0.6,0.4
		c-0.3,0.2-0.7,0.3-1.1,0.4c0,0,0-0.1,0-0.2c0-0.3,0-0.7,0.1-1c0.1-0.2,0.1-0.5,0.2-0.7c-0.2-0.1-0.4-0.3-0.6-0.5
		c-0.3-0.3-0.5-0.5-0.7-0.9c0.1,0,0.1,0,0.1,0c0.3-0.1,0.7-0.2,1-0.2c0.2,0,0.5,0,0.7,0c0.1-0.2,0.1-0.5,0.2-0.7
		c0.2-0.3,0.4-0.7,0.6-1c0,0,0.1,0.1,0.1,0.1c0.2,0.3,0.4,0.6,0.5,0.9c0.1,0.2,0.2,0.5,0.2,0.7c0.2,0,0.5,0,0.7,0
		C228.8,56.9,229.2,57,229.5,57.2z"/>
	<path class="st0" d="M265.1,46.6c0,0,0,0.1-0.1,0.1c-0.2,0.3-0.4,0.5-0.7,0.8c-0.2,0.2-0.4,0.3-0.6,0.4c0.1,0.2,0.1,0.5,0.2,0.7
		c0.1,0.4,0.1,0.8,0.1,1.2c0,0-0.1,0-0.1,0c-0.3-0.1-0.6-0.2-0.9-0.4c-0.2-0.1-0.4-0.3-0.6-0.4c-0.2,0.2-0.4,0.3-0.6,0.4
		c-0.3,0.2-0.7,0.3-1.1,0.4c0,0,0-0.1,0-0.2c0-0.3,0-0.7,0.1-1c0-0.2,0.1-0.5,0.2-0.7c-0.2-0.1-0.4-0.3-0.6-0.5
		c-0.3-0.3-0.5-0.5-0.7-0.9c0,0,0.1,0,0.1,0c0.3-0.1,0.7-0.2,1-0.2c0.2,0,0.5,0,0.7,0c0.1-0.2,0.1-0.5,0.2-0.7
		c0.2-0.3,0.4-0.7,0.6-1c0,0,0.1,0.1,0.1,0.1c0.2,0.3,0.4,0.6,0.5,0.9c0.1,0.2,0.2,0.5,0.2,0.7c0.2,0,0.5,0,0.7,0
		C264.3,46.4,264.7,46.5,265.1,46.6z"/>
</g>
</svg>
