<svg id="Warstwa_1" data-name="Warstwa 1" xmlns="http://www.w3.org/2000/svg" viewBox="0 0 14.06 13.42"><defs><style>.cls-1{fill:#ed79a5;}</style></defs><path class="cls-1" d="M15.06,6.36l-.22.32a11.86,11.86,0,0,1-1.78,2,12.82,12.82,0,0,1-1.52,1.14,12.65,12.65,0,0,1,.53,1.82,11.63,11.63,0,0,1,.22,3l-.37-.11a12.15,12.15,0,0,1-2.4-1.09A11.41,11.41,0,0,1,8,12.3a13.27,13.27,0,0,1-1.58,1.07A11.77,11.77,0,0,1,3.6,14.51c0-.13,0-.25,0-.38a12,12,0,0,1,.29-2.63,11.2,11.2,0,0,1,.57-1.81A12.08,12.08,0,0,1,3,8.52,11.37,11.37,0,0,1,1,6.22l.36-.13A11.92,11.92,0,0,1,4,5.56a11,11,0,0,1,1.9,0A11.62,11.62,0,0,1,6.5,3.75,11.44,11.44,0,0,1,8.09,1.18c.07.1.15.2.22.31A12,12,0,0,1,9.62,3.78a10.71,10.71,0,0,1,.61,1.81,11,11,0,0,1,1.9.06A11.61,11.61,0,0,1,15.06,6.36Z" transform="translate(-1 -1.18)"/></svg>