<svg id="Group_282" data-name="Group 282" xmlns="http://www.w3.org/2000/svg" xmlns:xlink="http://www.w3.org/1999/xlink" width="112.574" height="135.172" viewBox="0 0 112.574 135.172">
  <defs>
    <clipPath id="clip-path">
      <rect id="Rectangle_163" data-name="Rectangle 163" width="112.574" height="135.172" fill="#fff"/>
    </clipPath>
  </defs>
  <g id="Group_281" data-name="Group 281" clip-path="url(#clip-path)">
    <path id="Path_104" data-name="Path 104" d="M112.574,56.288A56.358,56.358,0,0,0,59.226.077a2.084,2.084,0,0,0-.867-.053l-.1.015C57.607.017,56.949,0,56.287,0A56.288,56.288,0,0,0,41.7,110.655l-3.2,22.106a2.109,2.109,0,0,0,1.785,2.39,2.135,2.135,0,0,0,.3.022,2.109,2.109,0,0,0,2.084-1.806L45.83,111.6a56.4,56.4,0,0,0,20.913,0l3.156,21.77a2.109,2.109,0,0,0,2.084,1.806,2.135,2.135,0,0,0,.3-.022,2.109,2.109,0,0,0,1.785-2.39l-3.2-22.106a56.386,56.386,0,0,0,41.705-54.368M56.287,108.356a52.071,52.071,0,0,1-9.309-103.3c-4.093,3.169-8.293,8.613-8.293,17.606,0,7,1.89,12.186,5.619,15.405,3.034,2.619,7.124,3.892,12.5,3.892,9.9,0,17.08-6.352,17.08-15.1,0-6.914-5.319-10.594-10.574-10.655-5.1-.056-10.324,3.319-10.477,9.888a2.109,2.109,0,1,0,4.217.1c.094-4.033,3.185-5.811,6.211-5.768a6.137,6.137,0,0,1,6.4,6.438c0,6.409-5.289,10.885-12.862,10.885-9.617,0-13.906-4.651-13.906-15.08C42.9,8.1,56,4.781,58.567,4.272a52.067,52.067,0,0,1-2.281,104.085" transform="translate(0 -0.001)" fill="#fff"/>
    <path id="Path_105" data-name="Path 105" d="M162.085,126.74c-11.082,0-14.245,8.408-14.375,8.766a2.109,2.109,0,0,0,3.961,1.448c.093-.245,2.372-6,10.413-6,8.324,0,10.288,5.621,10.379,5.9a2.109,2.109,0,0,0,4.028-1.249c-.111-.362-2.842-8.866-14.408-8.866" transform="translate(-85.336 -73.284)" fill="#fff"/>
    <path id="Path_106" data-name="Path 106" d="M75.438,136.855a2.109,2.109,0,0,0,4.028-1.249c-.111-.362-2.842-8.866-14.408-8.866-11.082,0-14.245,8.408-14.374,8.766a2.109,2.109,0,1,0,3.967,1.432c.022-.059,2.254-5.98,10.407-5.98,8.324,0,10.288,5.621,10.379,5.9" transform="translate(-29.234 -73.284)" fill="#fff"/>
    <path id="Path_107" data-name="Path 107" d="M126.679,195.23a2.107,2.107,0,0,0-2.7,1.267c-.022.06-2.254,5.981-10.407,5.981-8.324,0-10.288-5.621-10.379-5.9a2.109,2.109,0,0,0-4.028,1.249c.111.362,2.842,8.866,14.408,8.866,11.082,0,14.245-8.408,14.374-8.766a2.109,2.109,0,0,0-1.267-2.7" transform="translate(-57.285 -112.813)" fill="#fff"/>
  </g>
</svg>
