<?xml version="1.0" encoding="UTF-8"?><svg id="Warstwa_2" xmlns="http://www.w3.org/2000/svg" viewBox="0 0 141.73 141.73"><defs><style>.cls-1{fill:#fff;}.cls-2{fill:none;}</style></defs><g id="Warstwa_1-2"><rect class="cls-2" width="141.73" height="141.73"/><g id="Group_281"><path id="Path_104" class="cls-1" d="M127.16,59.57c-.04-29.93-23.46-54.61-53.35-56.21-.28-.08-.58-.1-.87-.05l-.1,.02c-.65-.02-1.31-.04-1.97-.04-31.09,0-56.29,25.19-56.3,56.28,0,25.47,17.1,47.78,41.71,54.37l-3.2,22.11c-.17,1.15,.63,2.22,1.78,2.39,0,0,0,0,0,0,.1,.01,.2,.02,.3,.02,1.05,0,1.93-.77,2.08-1.81l3.16-21.77c6.91,1.3,14,1.3,20.91,0l3.16,21.77c.15,1.04,1.04,1.8,2.08,1.81,.1,0,.2,0,.3-.02,1.15-.17,1.95-1.24,1.79-2.39,0,0,0,0,0,0l-3.2-22.11c24.58-6.63,41.67-28.91,41.71-54.37m-56.29,52.07c-28.76,0-52.06-23.33-52.05-52.09,0-25.15,18-46.71,42.74-51.21-4.09,3.17-8.29,8.61-8.29,17.61,0,7,1.89,12.19,5.62,15.41,3.03,2.62,7.12,3.89,12.5,3.89,9.9,0,17.08-6.35,17.08-15.1,0-6.91-5.32-10.59-10.57-10.66-5.1-.06-10.32,3.32-10.48,9.89-.03,1.16,.89,2.13,2.06,2.16,1.16,.03,2.13-.89,2.16-2.06,.09-4.03,3.19-5.81,6.21-5.77,3.39-.15,6.25,2.47,6.4,5.86,0,.19,0,.39,0,.58,0,6.41-5.29,10.89-12.86,10.89-9.62,0-13.91-4.65-13.91-15.08,0-14.57,13.11-17.89,15.67-18.4,28.73,1.25,51.01,25.55,49.76,54.28-1.21,27.86-24.15,49.82-52.04,49.81"/><path id="Path_105" class="cls-1" d="M91.33,56.74c-11.08,0-14.24,8.41-14.38,8.77-.38,1.1,.2,2.3,1.3,2.68,1.07,.37,2.25-.17,2.66-1.23,.09-.24,2.37-6,10.41-6s10.29,5.62,10.38,5.9c.37,1.11,1.56,1.7,2.67,1.34,1.08-.36,1.68-1.5,1.36-2.59-.11-.36-2.84-8.87-14.41-8.87"/><path id="Path_106" class="cls-1" d="M60.79,66.85c.37,1.11,1.56,1.7,2.67,1.34,1.08-.36,1.68-1.5,1.36-2.59-.11-.36-2.84-8.87-14.41-8.87s-14.24,8.41-14.37,8.77c-.41,1.09,.14,2.31,1.23,2.72,1.09,.41,2.31-.14,2.72-1.23,0-.02,.01-.04,.02-.06,.02-.06,2.25-5.98,10.41-5.98s10.29,5.62,10.38,5.9"/><path id="Path_107" class="cls-1" d="M83.98,85.7c-1.09-.4-2.3,.17-2.7,1.26,0,0,0,0,0,0-.02,.06-2.25,5.98-10.41,5.98s-10.29-5.62-10.38-5.9c-.37-1.11-1.56-1.7-2.67-1.34-1.08,.36-1.68,1.5-1.36,2.59,.11,.36,2.84,8.87,14.41,8.87s14.25-8.41,14.37-8.77c.4-1.1-.17-2.3-1.27-2.7"/></g></g></svg>