<svg id="Group_292" data-name="Group 292" xmlns="http://www.w3.org/2000/svg" xmlns:xlink="http://www.w3.org/1999/xlink" width="115.858" height="137" viewBox="0 0 115.858 137">
  <defs>
    <clipPath id="clip-path">
      <rect id="Rectangle_168" data-name="Rectangle 168" width="115.858" height="137" fill="#fff"/>
    </clipPath>
  </defs>
  <g id="Group_291" data-name="Group 291" clip-path="url(#clip-path)">
    <path id="Path_118" data-name="Path 118" d="M109.576,12.389C104.172,4.284,96.06,0,86.116,0,79.4,0,75,2.209,70.756,4.345,66.921,6.275,63.3,8.1,57.96,8.1a22.516,22.516,0,0,1-9.5-2.142c-.292-.212-.576-.423-.833-.621l-.016-.013c-.065-.049-.132-.1-.2-.142a2.859,2.859,0,0,0-1.541-.452l-.8-.4C40.806,2.2,36.4,0,29.742,0,19.8,0,11.685,4.284,6.282,12.389A39.34,39.34,0,0,0,0,33.4C0,44.417,3.4,52.059,6.995,60.15c3.052,6.865,6.208,13.964,7.342,23.7,1.5,17.184,4.761,31.222,9.427,40.6C29.2,135.37,34.8,137,37.648,137a9.88,9.88,0,0,0,9.867-9.675l5.656-37.549c0-.033.009-.066.013-.1s.55-4.6,4.744-4.6a4.724,4.724,0,0,1,4.7,4.217c0,.033.008.065.013.1l5.7,37.93A9.881,9.881,0,0,0,78.21,137c8.614,0,19.886-13.921,23.312-53.147,1.133-9.739,4.289-16.838,7.341-23.7,3.6-8.091,6.995-15.733,6.995-26.749a39.336,39.336,0,0,0-6.282-21.012m-5.148,45.789c-3.2,7.207-6.517,14.658-7.732,25.151,0,.022-.005.045-.007.068-3.486,39.991-14.522,48.749-18.48,48.749a5.021,5.021,0,0,1-5.016-5.015,2.4,2.4,0,0,0-.027-.361L67.451,88.718a9.57,9.57,0,0,0-9.522-8.493c-6.276,0-9.15,5.285-9.564,8.872l-5.675,37.672a2.423,2.423,0,0,0-.027.362,5.021,5.021,0,0,1-5.016,5.015c-2.239,0-5.921-2.59-9.539-9.859-3.07-6.166-7.112-17.918-8.941-38.89,0-.023,0-.046-.007-.068-1.215-10.493-4.528-17.944-7.732-25.151C8.048,50.571,4.854,43.387,4.854,33.4c0-7.94,4.471-28.547,24.888-28.547,5.51,0,9.225,1.855,13.159,3.82l.371.184A2.856,2.856,0,0,0,44.3,10.022c.664.425,1.258.777,1.885,1.147s1.241.717,1.869,1.055q1.875,1.036,3.794,1.971A85.245,85.245,0,0,0,59.7,17.573a63.614,63.614,0,0,0,8.251,2.4,39.607,39.607,0,0,0,8.642.8,1.436,1.436,0,0,0,.053-2.869l-.053,0a36.472,36.472,0,0,1-7.771-1.414,59.734,59.734,0,0,1-7.469-2.892c-.49-.231-.976-.472-1.462-.714,5.439-.379,9.3-2.314,13.045-4.2,3.914-1.969,7.611-3.828,13.179-3.828C106.533,4.854,111,25.461,111,33.4c0,9.986-3.194,17.171-6.576,24.777" fill="#fff"/>
    <path id="Path_119" data-name="Path 119" d="M63.632,87.113,55.319,78.8a2.206,2.206,0,0,0-3.121,0l-8.313,8.313a2.206,2.206,0,0,0,3.12,3.12l4.547-4.547V99.344a2.206,2.206,0,0,0,4.413,0V85.687l4.547,4.546a2.206,2.206,0,0,0,3.12-3.12" transform="translate(-24.16 -43.668)" fill="#fff"/>
    <path id="Path_120" data-name="Path 120" d="M127.836,87.113,119.523,78.8a2.206,2.206,0,0,0-3.121,0l-8.313,8.313a2.206,2.206,0,0,0,3.12,3.12l4.547-4.547V99.344a2.206,2.206,0,0,0,4.413,0V85.687l4.547,4.546a2.206,2.206,0,1,0,3.12-3.12" transform="translate(-60.034 -43.668)" fill="#fff"/>
    <path id="Path_121" data-name="Path 121" d="M192.039,87.113,183.726,78.8a2.206,2.206,0,0,0-3.121,0l-8.313,8.313a2.206,2.206,0,0,0,3.12,3.12l4.547-4.547V99.344a2.206,2.206,0,0,0,4.413,0V85.687l4.547,4.546a2.206,2.206,0,0,0,3.12-3.12" transform="translate(-95.907 -43.668)" fill="#fff"/>
  </g>
</svg>
