<?xml version="1.0" encoding="UTF-8"?><svg id="Warstwa_2" xmlns="http://www.w3.org/2000/svg" viewBox="0 0 141.73 141.73"><defs><style>.cls-1{fill:#fff;}.cls-2{fill:none;}</style></defs><g id="Warstwa_1-2"><rect class="cls-2" width="141.73" height="141.73"/><g id="Group_291"><path id="Path_118" class="cls-1" d="M122.51,14.76c-5.4-8.11-13.52-12.39-23.46-12.39-6.72,0-11.12,2.21-15.36,4.34-3.83,1.93-7.46,3.76-12.8,3.76-3.29-.01-6.53-.74-9.5-2.14-.29-.21-.58-.42-.83-.62h-.02c-.06-.06-.13-.11-.2-.16-.46-.29-.99-.45-1.54-.45l-.8-.4c-4.26-2.13-8.67-4.33-15.33-4.33-9.94,0-18.06,4.28-23.46,12.39-4.04,6.27-6.22,13.55-6.28,21.01,0,11.02,3.4,18.66,6.99,26.75,3.05,6.86,6.21,13.96,7.34,23.7,1.5,17.18,4.76,31.22,9.43,40.6,5.44,10.92,11.04,12.55,13.88,12.55,5.37,0,9.76-4.3,9.87-9.68l5.66-37.55s0-.07,.01-.1,.55-4.6,4.74-4.6c2.41,0,4.44,1.82,4.7,4.22,0,.03,0,.07,.01,.1l5.7,37.93c.11,5.37,4.5,9.67,9.87,9.68,8.61,0,19.89-13.92,23.31-53.15,1.13-9.74,4.29-16.84,7.34-23.7,3.6-8.09,7-15.73,7-26.75-.06-7.46-2.24-14.75-6.28-21.01m-5.15,45.79c-3.2,7.21-6.52,14.66-7.73,25.15,0,.02,0,.04,0,.07-3.49,39.99-14.52,48.75-18.48,48.75-2.77,0-5.01-2.25-5.02-5.01,0-.12,0-.24-.03-.36l-5.72-38.06c-.55-4.84-4.65-8.5-9.52-8.49-6.28,0-9.15,5.29-9.56,8.87l-5.67,37.67c-.02,.12-.03,.24-.03,.36,0,2.77-2.25,5.01-5.02,5.01-2.24,0-5.92-2.59-9.54-9.86-3.07-6.17-7.11-17.92-8.94-38.89,0-.02,0-.05,0-.07-1.22-10.49-4.53-17.94-7.73-25.15-3.38-7.61-6.57-14.79-6.57-24.78,0-7.94,4.47-28.55,24.89-28.55,5.51,0,9.23,1.86,13.16,3.82l.37,.18c.23,.48,.58,.88,1.03,1.16,.66,.43,1.26,.78,1.88,1.15s1.24,.72,1.87,1.06c1.25,.69,2.51,1.35,3.79,1.97,2.56,1.26,5.18,2.38,7.85,3.38,2.69,.99,5.45,1.79,8.25,2.4,2.84,.58,5.74,.85,8.64,.8,.79-.02,1.42-.68,1.4-1.47-.02-.75-.6-1.35-1.35-1.4h-.05c-2.63-.19-5.24-.66-7.77-1.41-2.55-.8-5.05-1.76-7.47-2.89-.49-.23-.98-.47-1.46-.71,5.44-.38,9.3-2.31,13.05-4.2,3.91-1.97,7.61-3.83,13.18-3.83,20.42,0,24.88,20.61,24.88,28.54,0,9.99-3.19,17.17-6.58,24.78"/><path id="Path_119" class="cls-1" d="M52.41,45.81l-8.31-8.31c-.86-.86-2.26-.86-3.12,0,0,0,0,0,0,0l-8.31,8.31c-.86,.86-.86,2.26,0,3.12,.86,.86,2.26,.86,3.12,0l4.55-4.55v13.66c0,1.22,.99,2.21,2.21,2.21s2.21-.99,2.21-2.21h0v-13.66l4.55,4.55c.86,.86,2.26,.86,3.12,0,.86-.86,.86-2.26,0-3.12"/><path id="Path_120" class="cls-1" d="M80.74,45.81l-8.31-8.31c-.86-.86-2.26-.86-3.12,0,0,0,0,0,0,0l-8.31,8.31c-.86,.86-.86,2.26,0,3.12s2.26,.86,3.12,0l4.55-4.55v13.66c0,1.22,.99,2.21,2.21,2.21s2.21-.99,2.21-2.21h0v-13.66l4.55,4.55c.86,.86,2.26,.86,3.12,0s.86-2.26,0-3.12"/><path id="Path_121" class="cls-1" d="M109.07,45.81l-8.31-8.31c-.86-.86-2.26-.86-3.12,0,0,0,0,0,0,0l-8.31,8.31c-.86,.86-.86,2.26,0,3.12,.86,.86,2.26,.86,3.12,0l4.55-4.55v13.66c0,1.22,.99,2.21,2.21,2.21s2.21-.99,2.21-2.21v-13.66l4.55,4.55c.86,.86,2.26,.86,3.12,0,.86-.86,.86-2.26,0-3.12h0"/></g></g></svg>