<svg xmlns="http://www.w3.org/2000/svg" viewBox="0 0 130.85 155.89"><defs><style>.cls-1{fill:#fff;}</style></defs><g id="Warstwa_2" data-name="Warstwa 2"><g id="Warstwa_1-2" data-name="Warstwa 1"><path class="cls-1" d="M97.69,77.62a32.31,32.31,0,0,0-18.92,58.52l-3.89,8.74c-2.7,4.6-5.34,6.24-6.93,6.24a4.06,4.06,0,0,1-4.05-4.05,2.19,2.19,0,0,0,0-.36l-4.94-32.92a8.56,8.56,0,0,0-8.52-7.59c-5.61,0-8.19,4.71-8.56,7.92l-4.91,32.59a2.17,2.17,0,0,0,0,.36,4.06,4.06,0,0,1-4.06,4.05c-3.13,0-12.72-7.7-15.71-42-1.06-9.12-3.93-15.59-6.72-21.84C7.52,80.73,4.77,74.54,4.77,66c0-6.8,3.83-23.81,21.25-24.42,7.25-.26,13.57,5.06,14.11,5.37s1.07.62,1.62.91c1.09.59,2.19,1.16,3.3,1.7a73,73,0,0,0,6.82,2.9,54.26,54.26,0,0,0,7.17,2,34,34,0,0,0,7.52.67,1.36,1.36,0,0,0,0-2.72h0a31.69,31.69,0,0,1-6.69-1.24,50.78,50.78,0,0,1-6.43-2.53l-.5-.25c4.33-.46,7.51-2,10.58-3.58,3.36-1.69,6.53-3.28,11.28-3.28,17.43,0,21.25,17.62,21.25,24.42a40.37,40.37,0,0,1-.31,4.92,2.38,2.38,0,0,0,4.73.61,44.51,44.51,0,0,0,.35-5.53c0-11.74-6.93-29.19-26-29.19-5.88,0-9.89,2-13.42,3.79-3.29,1.65-6.39,3.21-10.94,3.21a19.39,19.39,0,0,1-8.31-1.92c-.18-.13-2.48-1.18-2.72-1.3-3.55-1.77-7.57-3.78-13.39-3.78C6.93,36.78,0,54.23,0,66,0,75.56,3,82.2,6.08,89.23c2.63,5.92,5.36,12,6.32,20.38,3,34.16,12.88,46.28,20.46,46.28a8.83,8.83,0,0,0,8.82-8.63l4.89-32.47s0-.07,0-.1S47,111,50.41,111a3.79,3.79,0,0,1,3.78,3.39s0,.07,0,.1l4.92,32.8A8.84,8.84,0,0,0,68,155.89c2.26,0,6.7-1.13,11.11-8.72a1.27,1.27,0,0,0,.12-.23l3.69-8.27a32.33,32.33,0,1,0,14.82-61Zm0,59.89A27.56,27.56,0,1,1,125.25,110,27.59,27.59,0,0,1,97.69,137.51Z"/><path class="cls-1" d="M106.67,98.11a2.39,2.39,0,0,0,0-4.77H93.53a2.39,2.39,0,0,0-2.39,2.38v33.22a2.39,2.39,0,0,0,4.77,0v-17.2h10.76a2.39,2.39,0,0,0,0-4.77H95.91V98.11Z"/><path class="cls-1" d="M123.75,8.06a3.48,3.48,0,0,1-.35.48,20,20,0,0,1-2.79,3.07,17.64,17.64,0,0,1-2.39,1.78,17.7,17.7,0,0,1,.84,2.86,19.47,19.47,0,0,1,.35,4.72c-.17,0-.38-.1-.58-.18a18.72,18.72,0,0,1-3.78-1.7,18.06,18.06,0,0,1-2.43-1.72A18,18,0,0,1,110.16,19a20.15,20.15,0,0,1-4.39,1.8v-.58a18.49,18.49,0,0,1,.46-4.11,17.7,17.7,0,0,1,.89-2.84,16,16,0,0,1-2.36-1.82,18.08,18.08,0,0,1-3-3.6c.17-.08.38-.13.55-.21a19,19,0,0,1,4.06-.83,15.72,15.72,0,0,1,3,0,17.87,17.87,0,0,1,1-2.79,17.93,17.93,0,0,1,2.48-4c.13.15.23.33.36.48a18.5,18.5,0,0,1,2,3.6,18.76,18.76,0,0,1,1,2.82,19.91,19.91,0,0,1,7.56,1.16Z"/><path class="cls-1" d="M79.85,7.22c-.07.1-.12.2-.2.3a11.19,11.19,0,0,1-1.72,1.9,13,13,0,0,1-1.47,1.12,11.11,11.11,0,0,1,.5,1.77,10.92,10.92,0,0,1,.23,2.92c-.13,0-.23-.08-.35-.1a11.83,11.83,0,0,1-2.34-1.07A8.74,8.74,0,0,1,73,13a13.16,13.16,0,0,1-1.52,1,11,11,0,0,1-2.72,1.11v-.38a11.75,11.75,0,0,1,.28-2.53,10.21,10.21,0,0,1,.56-1.75,10.37,10.37,0,0,1-1.45-1.14,11.47,11.47,0,0,1-1.87-2.23L66.64,7a11.31,11.31,0,0,1,2.51-.51,11.44,11.44,0,0,1,1.85,0,10.9,10.9,0,0,1,.64-1.73,11,11,0,0,1,1.54-2.48l.23.3a11.53,11.53,0,0,1,1.27,2.23,8.76,8.76,0,0,1,.58,1.75,16.69,16.69,0,0,1,1.86,0A9.07,9.07,0,0,1,79.85,7.22Z"/><path class="cls-1" d="M130.85,43.49c-.07.1-.12.21-.2.31a11.58,11.58,0,0,1-1.72,1.9,14.16,14.16,0,0,1-1.47,1.11,11.23,11.23,0,0,1,.5,1.78,10.92,10.92,0,0,1,.23,2.92c-.13,0-.23-.08-.35-.11a12.4,12.4,0,0,1-2.34-1.06A8.79,8.79,0,0,1,124,49.27a12,12,0,0,1-1.52,1,10.68,10.68,0,0,1-2.72,1.12v-.38a11.84,11.84,0,0,1,.28-2.54,10.21,10.21,0,0,1,.56-1.75,10.37,10.37,0,0,1-1.45-1.14,11.18,11.18,0,0,1-1.87-2.23c.12,0,.23-.07.35-.13a11.28,11.28,0,0,1,2.51-.5,11.45,11.45,0,0,1,1.85,0,11.17,11.17,0,0,1,.64-1.72,10.87,10.87,0,0,1,1.54-2.49l.23.31a11.24,11.24,0,0,1,1.27,2.23,8.55,8.55,0,0,1,.58,1.75,14.59,14.59,0,0,1,1.86,0A8.48,8.48,0,0,1,130.85,43.49Z"/></g></g></svg>