<svg xmlns="http://www.w3.org/2000/svg" viewBox="0 0 136.31 124.88"><defs><style>.cls-1,.cls-2{fill:none;stroke:#fff;stroke-width:5px;}.cls-1{stroke-miterlimit:10;}.cls-2{stroke-linecap:round;stroke-linejoin:round;}.cls-3{fill:#fff;}</style></defs><g id="Warstwa_2" data-name="Warstwa 2"><g id="Group_242" data-name="Group 242"><line id="Line_31" data-name="Line 31" class="cls-1" x1="100.41" y1="76.09" x2="111.83" y2="76.09"/><line id="Line_32" data-name="Line 32" class="cls-1" x1="100.41" y1="62.19" x2="111.83" y2="62.19"/><line id="Line_33" data-name="Line 33" class="cls-1" x1="98.05" y1="59.3" x2="98.05" y2="94.12"/><circle id="Ellipse_21" data-name="Ellipse 21" class="cls-1" cx="102.42" cy="76.71" r="31.4"/><path id="Path_72" data-name="Path 72" class="cls-2" d="M102.85,36.09a42,42,0,0,0,.34-5.49c0-10.11-5.94-28.1-24.77-28.1-11.08,0-14.75,7.34-25.54,7.34S38.27,2.5,27.28,2.5C8.45,2.5,2.5,20.49,2.5,30.6c0,18,10.74,26.08,13,45.54,3,34.54,12.89,46.24,19,46.24a6.76,6.76,0,0,0,6.75-6.76l5.15-34.21c.12-1.1,1.33-6.13,6.5-6.13a6.49,6.49,0,0,1,6.45,5.79l5.19,34.55a6.75,6.75,0,0,0,6.75,6.75c2.75,0,6.22-2.27,9.49-7.9l5-11.16"/><path id="Path_73" data-name="Path 73" class="cls-3" d="M43.64,4.94c.42.33.93.7,1.41,1s1,.7,1.5,1c1,.68,2,1.34,3.07,2,2.08,1.26,4.21,2.43,6.4,3.48a55.92,55.92,0,0,0,6.75,2.65,33.33,33.33,0,0,0,7,1.3h0a1.44,1.44,0,0,1,1.33,1.53,1.42,1.42,0,0,1-1.38,1.32,35.89,35.89,0,0,1-7.88-.7,56.51,56.51,0,0,1-7.52-2.15,77.44,77.44,0,0,1-7.15-3c-1.17-.57-2.32-1.16-3.46-1.78-.57-.31-1.14-.63-1.7-1S41,10,40.35,9.59a2.86,2.86,0,1,1,3.07-4.82l.22.16Z"/></g></g></svg>