<?xml version="1.0" encoding="UTF-8"?><svg id="Warstwa_2" xmlns="http://www.w3.org/2000/svg" viewBox="0 0 141.73 141.73"><defs><style>.cls-1{fill:#fff;}.cls-2{fill:none;}</style></defs><g id="Warstwa_1-2"><rect class="cls-2" width="141.73" height="141.73"/><g id="Warstwa_2-2"><g><path class="cls-1" d="M114.61,72.7c1.38,0,2.5-1.12,2.5-2.5s-1.12-2.5-2.5-2.5h-13.85c-1.38,0-2.5,1.12-2.5,2.5v30.72c0,1.38,1.12,2.5,2.5,2.5s2.5-1.12,2.5-2.5v-13.9h11.28c1.38,0,2.5-1.12,2.5-2.5s-1.12-2.5-2.5-2.5h-11.28v-9.32h11.35Z"/><path class="cls-1" d="M105.13,51.24c-18.69,0-33.9,15.21-33.9,33.9,0,11.31,5.58,21.34,14.12,27.5l-4.08,9.11c-2.83,4.82-5.6,6.54-7.26,6.54-2.34,0-4.25-1.91-4.25-4.25,0-.12,0-.25-.03-.37l-5.18-34.5c-.52-4.54-4.35-7.96-8.93-7.97-5.89,0-8.59,4.94-8.98,8.3l-5.14,34.16c-.02,.12-.03,.25-.03,.37,0,2.35-1.91,4.26-4.25,4.26-3.29,0-13.39-8.08-16.52-44.03-1.11-9.56-4.13-16.35-7.04-22.91-3.05-6.87-5.94-13.36-5.94-22.34,0-7.12,4-25.6,22.28-25.6,4.93,0,8.27,1.67,11.81,3.43,.08,.04,.15,.08,.23,.11,.24,.42,.58,.78,1.03,1.04,.65,.41,1.1,.63,1.66,1s1.13,.69,1.7,1c1.14,.62,2.29,1.21,3.46,1.78,2.33,1.12,4.72,2.12,7.15,3,2.45,.89,4.97,1.61,7.52,2.15,2.59,.52,5.24,.76,7.88,.7,.73-.02,1.33-.59,1.38-1.32,.05-.79-.54-1.47-1.33-1.53-2.37-.18-4.72-.62-7-1.3-2.3-.74-4.56-1.62-6.75-2.65-.16-.07-.31-.16-.46-.24,4.51-.49,7.83-2.13,11.03-3.74,3.52-1.77,6.85-3.44,11.83-3.44,18.27,0,22.27,18.48,22.27,25.61,0,1.72-.1,3.46-.32,5.16-.18,1.37,.79,2.62,2.16,2.8,1.37,.18,2.62-.79,2.8-2.16,.25-1.92,.37-3.88,.36-5.81,0-12.3-7.26-30.6-27.27-30.6-6.17,0-10.37,2.11-14.07,3.97-3.45,1.73-6.7,3.37-11.47,3.37-3.49,0-6.19-.88-8.75-2.03-.17-.12-.34-.25-.49-.37h0s-.22-.17-.22-.17c-.07-.05-.14-.09-.21-.13-.4-.23-.83-.34-1.26-.37-.21-.1-.42-.21-.63-.31-3.72-1.85-7.93-3.96-14.04-3.96C9.97,8.43,2.71,26.73,2.71,39.03c0,10.04,3.09,17,6.37,24.37,2.77,6.22,5.62,12.65,6.64,21.39,3.11,35.81,13.52,48.52,21.49,48.52,5.03,0,9.14-4.05,9.24-9.06l5.12-34.04s0-.07,.01-.1c0-.04,.47-3.9,4.01-3.9,2.04,0,3.75,1.53,3.97,3.56,0,.03,0,.07,.01,.1l5.16,34.38c.11,5.01,4.21,9.05,9.25,9.05,2.37,0,7.03-1.19,11.65-9.14,.04-.08,.08-.15,.12-.23l3.87-8.64c4.65,2.4,9.91,3.76,15.49,3.76,18.69,0,33.9-15.21,33.9-33.9s-15.21-33.9-33.9-33.9Zm0,62.8c-5.55,0-10.74-1.58-15.15-4.3-.04-.03-.09-.06-.14-.09-8.17-5.11-13.61-14.18-13.61-24.51,0-15.94,12.96-28.9,28.9-28.9s28.9,12.96,28.9,28.9-12.96,28.9-28.9,28.9Z"/></g></g></g></svg>