<?xml version="1.0" encoding="UTF-8"?><svg id="Warstwa_2" xmlns="http://www.w3.org/2000/svg" viewBox="0 0 141.73 141.73"><defs><style>.cls-1{fill:#fff;}.cls-2{fill:none;}</style></defs><g id="Warstwa_1-2"><rect class="cls-2" width="141.73" height="141.73"/><g><path class="cls-1" d="M55.93,22.02c.08,.04,.15,.08,.23,.12,.2,.25,.43,.48,.71,.66,.61,.39,1.16,.72,1.72,1.04,.56,.32,1.13,.65,1.7,.95,1.14,.62,2.29,1.22,3.46,1.78,2.33,1.13,4.72,2.15,7.15,3.05,2.45,.89,4.97,1.6,7.52,2.15,2.59,.52,5.23,.76,7.88,.7,.73-.02,1.33-.6,1.38-1.33,.05-.79-.54-1.47-1.33-1.52h-.05c-2.38-.18-4.73-.62-7.01-1.31-2.3-.73-4.56-1.61-6.74-2.65-.18-.08-.35-.18-.52-.27,4.54-.48,7.87-2.13,11.1-3.75,3.52-1.77,6.84-3.44,11.82-3.44,18.28,0,22.28,18.48,22.28,25.6,0,1.38,1.12,2.5,2.5,2.5s2.5-1.12,2.5-2.5c0-12.3-7.26-30.6-27.28-30.6-6.17,0-10.36,2.11-14.07,3.97-3.45,1.73-6.7,3.37-11.43,3.37-2.78-.04-5.55-.58-8.15-1.57-.39-.28-.79-.58-1.13-.84h0c-.07-.07-.14-.12-.22-.17-.56-.35-1.19-.48-1.79-.42-1.18-.53-2.59-.08-3.22,1.07-.66,1.21-.21,2.73,1,3.39Z"/><path class="cls-1" d="M18.68,32.17c-1.39,3.72-2.11,7.62-2.15,11.64,0,7.93,1.9,14,4.74,20.67,.41,.95,1.33,1.52,2.3,1.52,.33,0,.66-.06,.98-.2,1.27-.54,1.86-2.01,1.32-3.28-2.6-6.11-4.34-11.62-4.34-18.69,.03-3.29,.61-6.49,1.71-9.56,.7,.14,1.43,.22,2.18,.22,.1,0,.2,0,.3,0,2.25-.06,4.43-.83,6.24-2.15,.17-.02,.34-.06,.5-.12,.86,.28,1.74,.49,2.66,.61,8.01,.93,15.3-4.82,16.24-12.84,.94-8.02-4.82-15.3-12.83-16.24,0,0,0,0,0,0-6.55-.76-12.66,2.9-15.15,8.84-2.27,.43-4.34,1.55-5.95,3.25-2.03,2.14-3.1,4.94-3.03,7.89,.09,3.44,1.76,6.48,4.3,8.44Zm2.36-12.89c1.11-1.17,2.61-1.84,4.22-1.88,1.09-.03,2.03-.76,2.34-1.81,1.2-4.17,4.97-6.95,9.22-6.95,.37,0,.74,.02,1.12,.06h0c5.28,.62,9.07,5.42,8.45,10.69-.62,5.28-5.41,9.07-10.66,8.45-.18-.02-.35-.06-.52-.09,.11-.39,.2-.79,.28-1.19,.14-.71,.22-1.43,.26-2.15,.02-.37,.02-.74,0-1.12,0-.19-.02-.39-.04-.59l-.04-.31-.03-.17-.04-.24h0c-.19-1.17-1.29-1.96-2.46-1.77-1.17,.19-1.96,1.29-1.77,2.46-.02-.07-.02-.02-.02-.02v.05s-.02,.14-.02,.14c-.01,.1-.03,.2-.05,.31-.03,.22-.09,.45-.14,.67-.12,.47-.28,.93-.47,1.38-.19,.46-.42,.91-.66,1.35-.12,.22-.26,.44-.39,.65l-.43,.64-.04,.06c-.09,.14-.16,.28-.23,.43-.97,.69-2.14,1.09-3.34,1.12-3.34,.08-6.11-2.55-6.2-5.88-.04-1.61,.54-3.15,1.66-4.32Z"/><path class="cls-1" d="M123.02,52.28h-.02c-1,0-1.98,.11-2.94,.33-3.17-5.37-9.82-7.89-15.88-5.69-6.84,2.49-10.38,10.08-7.89,16.92,.52,1.42,1.28,2.74,2.24,3.91-.79,1.83-1.21,3.82-1.22,5.83,0,4,1.55,7.76,4.38,10.59,.88,.89,1.87,1.63,2.91,2.26-.14,.87-.27,1.76-.37,2.7-3.13,35.88-13.19,43.95-16.47,43.95-2.34,0-4.25-1.91-4.25-4.25,0-.12,0-.25-.03-.37l-5.18-34.51c-.52-4.54-4.35-7.96-8.93-7.96-5.88,0-8.58,4.95-8.97,8.31l-5.15,34.17c-.02,.12-.03,.25-.03,.37,0,2.34-1.91,4.25-4.25,4.25-3.2,0-10.11-5.83-14.18-27.49,3.37-.37,6.49-1.86,8.92-4.29,2.83-2.83,4.38-6.59,4.38-10.6-.01-2.15-.5-4.27-1.4-6.2,.01-.59-.15-1.19-.51-1.7-.09-.12-.14-.17-.2-.24-.06-.07-.11-.12-.16-.17-.1-.11-.2-.22-.3-.31-.2-.2-.41-.38-.61-.56-.41-.35-.83-.67-1.28-.96-.88-.58-1.84-1.05-2.85-1.38-.99-.34-2.03-.54-3.07-.6-.51-.03-1.02-.03-1.54,0-.51,.02-1.01,.11-1.5,.18-1.02,.13-1.8,.97-1.86,1.99-.06,1.17,.84,2.17,2.01,2.24l.36,.02c.33,.02,.67,0,1,.03,.32,.03,.65,.08,.96,.15,.62,.13,1.21,.34,1.77,.63,.55,.28,1.06,.63,1.52,1.05,.23,.2,.44,.42,.64,.65,.09,.11,.19,.23,.27,.34,.04,.06,.08,.11,.11,.16,.02,.02,.03,.04,.04,.07,0,0,0,.01,.01,.02,.2,.28,.45,.51,.72,.7,.55,1.24,.85,2.58,.85,3.93,0,2.66-1.03,5.17-2.92,7.06-1.88,1.89-4.39,2.92-7.05,2.93h0c-4.82,0-8.95-3.44-9.82-8.19-.19-1.05-1.03-1.87-2.09-2.02-4.41-.66-7.46-4.78-6.8-9.19s4.78-7.46,9.19-6.8c.7,.1,1.39,.3,1.99,.56,1.17,.55,2.15,1.42,2.84,2.51,.74,1.17,2.28,1.51,3.45,.77,1.17-.74,1.51-2.29,.77-3.45-1.2-1.9-2.91-3.4-5-4.38-1.06-.46-2.18-.79-3.32-.96-7.13-1.06-13.81,3.87-14.87,11-.98,6.56,3.11,12.72,9.31,14.51,1.55,5.14,5.74,9.01,10.88,10.22,5.42,30.39,16.12,32.8,19.32,32.8,5.03,0,9.14-4.04,9.25-9.05l5.13-34.04s0-.07,.01-.1c0-.04,.47-3.91,4.01-3.91,2.04,0,3.75,1.53,3.97,3.56,0,.03,0,.07,.01,.1l5.17,34.39c.11,5.01,4.21,9.05,9.25,9.05,7.94,0,18.33-12.71,21.44-48.45,.05-.46,.12-.9,.18-1.35,.94,.18,1.91,.28,2.9,.28h0c6.66,0,12.44-4.38,14.33-10.63,5.57-1.58,9.46-6.61,9.47-12.55,.01-7.22-5.85-13.1-13.07-13.11Zm1.17,21.08c-1.06,.16-1.9,.97-2.09,2.02-.87,4.74-4.99,8.19-9.82,8.19h0c-2.67,0-5.17-1.04-7.05-2.93-1.88-1.89-2.92-4.39-2.92-7.04,0-1.36,.3-2.7,.85-3.93,.27-.19,.52-.42,.73-.7,0,0,0-.02,.01-.02,.01-.02,.03-.05,.04-.07,.03-.05,.07-.1,.11-.16,.08-.11,.17-.22,.27-.34,.2-.23,.41-.45,.64-.65,.46-.42,.97-.77,1.52-1.05,.56-.29,1.15-.5,1.77-.63,.32-.07,.64-.12,.96-.15,.32-.03,.66-.02,1-.03l.36-.02c1.03-.05,1.87-.84,2-1.86,.14-1.17-.68-2.23-1.85-2.37-.5-.06-.99-.15-1.5-.18-1.56-.1-3.12,.11-4.61,.6-1.01,.33-1.96,.8-2.85,1.38-.04,.03-.07,.06-.11,.08-.26-.44-.49-.89-.66-1.37-1.55-4.25,.65-8.96,4.9-10.51,.92-.34,1.87-.49,2.8-.49,3.35,0,6.5,2.07,7.71,5.4,.24,.65,.73,1.17,1.37,1.44,.63,.27,1.35,.27,1.99,0,1.03-.45,2.12-.68,3.24-.68h.01c4.46,0,8.08,3.64,8.08,8.1,0,4.03-2.9,7.39-6.89,7.98Z"/><path class="cls-1" d="M103.9,68.95s0,0-.01,.02c0,0,0,0,.01-.02Z"/><path class="cls-1" d="M43.5,86.07s.02,.02,.01,0c0,0,0,0,0,0h0Z"/></g></g></svg>