<svg id="Group_237" data-name="Group 237" xmlns="http://www.w3.org/2000/svg" xmlns:xlink="http://www.w3.org/1999/xlink" width="134.143" height="136.644" viewBox="0 0 134.143 136.644">
  <defs>
    <clipPath id="clip-path">
      <rect id="Rectangle_124" data-name="Rectangle 124" width="134.143" height="136.644" fill="none" stroke="#fff" stroke-width="5"/>
    </clipPath>
  </defs>
  <g id="Group_236" data-name="Group 236" clip-path="url(#clip-path)">
    <path id="Path_59" data-name="Path 59" d="M184.4,59.843c0-10.108-5.95-28.1-24.779-28.1-11.076,0-14.743,7.345-25.54,7.345A26.543,26.543,0,0,1,121.8,35.862" transform="translate(-68.403 -17.829)" fill="none" stroke="#fff" stroke-linecap="round" stroke-linejoin="round" stroke-width="5"/>
    <path id="Path_60" data-name="Path 60" d="M68.761,208.742c4.074,24.238,11.9,32.1,17.1,32.1a6.751,6.751,0,0,0,6.751-6.751l5.154-34.213c.12-1.1,1.325-6.134,6.492-6.134a6.493,6.493,0,0,1,6.454,5.789l5.191,34.558a6.751,6.751,0,0,0,6.751,6.751c6.147,0,15.919-11.391,18.956-46.232q.241-2.081.6-4" transform="translate(-38.617 -107.05)" fill="none" stroke="#fff" stroke-linecap="round" stroke-linejoin="round" stroke-width="5"/>
    <path id="Path_61" data-name="Path 61" d="M37.566,67.475A31.705,31.705,0,0,0,34.9,79.909c0,7.874,2.047,13.843,4.541,19.689" transform="translate(-19.597 -37.895)" fill="none" stroke="#fff" stroke-linecap="round" stroke-linejoin="round" stroke-width="5"/>
    <path id="Path_62" data-name="Path 62" d="M122.821,36.516c.42.328.93.7,1.411,1.044s.986.7,1.492,1.032q1.507,1.021,3.07,1.967c2.081,1.262,4.217,2.434,6.408,3.48a54.094,54.094,0,0,0,6.742,2.645,32.969,32.969,0,0,0,7.012,1.309l.054,0a1.427,1.427,0,0,1-.054,2.85,36.113,36.113,0,0,1-7.877-.7,57.937,57.937,0,0,1-7.518-2.152,77.465,77.465,0,0,1-7.154-3.046q-1.75-.845-3.459-1.779c-.573-.306-1.138-.63-1.7-.954s-1.114-.651-1.723-1.04a2.857,2.857,0,1,1,3.068-4.821c.077.049.151.1.221.156Z" transform="translate(-66.381 -20.164)" fill="#fff"/>
    <path id="Path_63" data-name="Path 63" d="M51.348,10.007a12.112,12.112,0,0,0-13.03,8.672,8.543,8.543,0,1,0,6.508,14.331,11.993,11.993,0,0,0,3.7,1.106,12.136,12.136,0,1,0,2.821-24.108Z" transform="translate(-16.85 -5.573)" fill="none" stroke="#fff" stroke-linecap="round" stroke-linejoin="round" stroke-width="5"/>
    <path id="Path_64" data-name="Path 64" d="M250.638,123.628a10.588,10.588,0,0,0-14.837-9.715,10.7,10.7,0,1,0-17.19,11.632,12.363,12.363,0,0,0-1.751,6.279,12.478,12.478,0,0,0,24.753,2.25A10.576,10.576,0,0,0,250.638,123.628Z" transform="translate(-120.776 -60.034)" fill="none" stroke="#fff" stroke-linecap="round" stroke-linejoin="round" stroke-width="5"/>
    <path id="Path_65" data-name="Path 65" d="M217.178,140.243c.093-.124.141-.176.195-.239s.108-.123.157-.175c.1-.108.2-.217.3-.311.2-.2.4-.379.606-.559a13.042,13.042,0,0,1,1.28-.96,11.974,11.974,0,0,1,2.846-1.382,12.274,12.274,0,0,1,4.607-.6c.507.025,1,.115,1.5.176a2.126,2.126,0,0,1-.151,4.233l-.359.018c-.338.018-.677,0-1,.033a7.174,7.174,0,0,0-.963.147,6.729,6.729,0,0,0-1.769.629,6.826,6.826,0,0,0-1.52,1.048,7.479,7.479,0,0,0-.637.651c-.093.114-.189.227-.268.339-.045.057-.077.109-.111.16a.483.483,0,0,0-.041.068c-.011.019-.028.049,0,.009a2.854,2.854,0,0,1-4.668-3.285" transform="translate(-121.677 -76.374)" fill="#fff"/>
    <path id="Path_66" data-name="Path 66" d="M63.83,43.779l.041.24.026.17.038.314c.02.2.037.4.044.588.02.384.015.754,0,1.122a15.257,15.257,0,0,1-.26,2.15,18.094,18.094,0,0,1-.53,2.053c-.1.338-.229.66-.345.993l-.394.967a2.871,2.871,0,1,1-5.058-2.663l.042-.061.426-.639c.127-.217.27-.433.389-.654a13.071,13.071,0,0,0,.662-1.348,10.8,10.8,0,0,0,.467-1.379c.057-.228.11-.458.144-.674.02-.11.032-.214.046-.313l.016-.136.007-.055s0-.05.015.016a2.14,2.14,0,1,1,4.225-.691" transform="translate(-31.966 -23.579)" fill="#fff"/>
    <path id="Path_67" data-name="Path 67" d="M55.022,172.456a12.364,12.364,0,0,1,1.751,6.279,12.478,12.478,0,0,1-24.753,2.249,10.583,10.583,0,1,1,5.812-20.16,9.289,9.289,0,0,1,3.891,3.43" transform="translate(-12.914 -89.821)" fill="none" stroke="#fff" stroke-linecap="round" stroke-linejoin="round" stroke-width="5"/>
    <path id="Path_68" data-name="Path 68" d="M79.6,182.589c.032.039.015.01,0-.01a.429.429,0,0,0-.041-.067c-.034-.051-.066-.1-.111-.16-.078-.112-.174-.224-.268-.339a7.477,7.477,0,0,0-.637-.651,6.824,6.824,0,0,0-1.519-1.048,6.733,6.733,0,0,0-1.77-.629,7.175,7.175,0,0,0-.962-.147c-.328-.036-.666-.015-1-.033l-.358-.018a2.126,2.126,0,0,1-.152-4.232c.495-.061.989-.151,1.5-.176a11.819,11.819,0,0,1,1.536,0,11.552,11.552,0,0,1,3.072.6,11.981,11.981,0,0,1,2.846,1.382,13.021,13.021,0,0,1,1.28.96c.2.18.407.358.606.559.1.094.2.2.3.311.049.052.1.109.157.175s.1.115.195.239a2.854,2.854,0,1,1-4.668,3.285" transform="translate(-39.827 -98.312)" fill="#fff"/>
  </g>
</svg>
