<svg xmlns="http://www.w3.org/2000/svg" viewBox="0 0 131.74 155.89"><defs><style>.cls-1{fill:#fff;}</style></defs><g id="Warstwa_2" data-name="Warstwa 2"><g id="Warstwa_1-2" data-name="Warstwa 1"><path class="cls-1" d="M44.56,40.75c.61.39,1.16.72,1.72,1s1.13.65,1.7,1c1.14.63,2.29,1.22,3.46,1.78a76.55,76.55,0,0,0,7.16,3,57.46,57.46,0,0,0,7.51,2.15,36,36,0,0,0,7.88.7A1.43,1.43,0,0,0,74,47.57H74a32.72,32.72,0,0,1-7-1.31,53.51,53.51,0,0,1-6.74-2.64c-.22-.1-.42-.22-.64-.33,5.13-.3,8.73-2.09,12.21-3.84S78.65,36,83.63,36c18.28,0,22.28,18.48,22.28,25.6a2.5,2.5,0,0,0,5,0c0-12.3-7.26-30.6-27.28-30.6-6.16,0-10.36,2.11-14.06,4-3.45,1.73-6.71,3.37-11.44,3.37A24.15,24.15,0,0,1,47,35.44a2.48,2.48,0,0,0-3.39,1,2.43,2.43,0,0,0-.3,1.25A2.85,2.85,0,0,0,44.56,40.75Z"/><path class="cls-1" d="M7.37,50A34,34,0,0,0,5.22,61.61c0,7.93,1.89,14,4.74,20.67a2.51,2.51,0,0,0,2.3,1.52,2.42,2.42,0,0,0,1-.2,2.5,2.5,0,0,0,1.32-3.28C12,74.21,10.22,68.69,10.22,61.64a29.05,29.05,0,0,1,1.71-9.57,11.19,11.19,0,0,0,2.18.22h.29A11.05,11.05,0,0,0,20.9,50a14.06,14.06,0,0,0,2.9.67,14.63,14.63,0,1,0,3.4-29.07h0a14.57,14.57,0,0,0-15.15,8.84,11.07,11.07,0,0,0-9,11.15A11,11,0,0,0,7.37,50ZM9.73,37.09A6,6,0,0,1,14,35.2a2.52,2.52,0,0,0,2.34-1.8,9.57,9.57,0,0,1,9.21-6.95,8.42,8.42,0,0,1,1.12.07h0a9.63,9.63,0,0,1-2.21,19.14,9.43,9.43,0,0,1-2.93-.87,2.49,2.49,0,0,0-2.93.55,6.12,6.12,0,0,1-4.28,1.95,6,6,0,0,1-6.2-5.89A6,6,0,0,1,9.73,37.09Z"/><path class="cls-1" d="M121,73.94a13,13,0,0,0-9.25-3.85h0a13.12,13.12,0,0,0-2.94.33A13.2,13.2,0,1,0,87.22,85.55a14.89,14.89,0,0,0,6.07,18.69c-.13.86-.26,1.75-.37,2.7-3.13,35.88-13.19,43.95-16.47,43.95a4.26,4.26,0,0,1-4.25-4.25,2.31,2.31,0,0,0,0-.37L67,111.76a9,9,0,0,0-8.93-8c-5.89,0-8.58,4.95-9,8.31l-5.15,34.17a2.22,2.22,0,0,0,0,.37,4.26,4.26,0,0,1-4.25,4.25c-3.2,0-10.11-5.83-14.18-27.49A14.91,14.91,0,0,0,36.67,101a2.5,2.5,0,1,0-4.29,2.57,9.78,9.78,0,0,1,1.39,5,10,10,0,0,1-10,10h0A10,10,0,0,1,14,110.31a2.5,2.5,0,0,0-2.09-2,8.08,8.08,0,1,1,2.39-16,8.54,8.54,0,0,1,2,.56,6.76,6.76,0,0,1,2.84,2.51,2.5,2.5,0,1,0,4.22-2.68,11.8,11.8,0,0,0-5-4.38,13.27,13.27,0,0,0-3.32-1,13.08,13.08,0,0,0-5.56,25.51,15,15,0,0,0,10.88,10.22c5.42,30.39,16.13,32.8,19.32,32.8a9.27,9.27,0,0,0,9.25-9l5.13-34s0-.07,0-.1.47-3.91,4-3.91a4,4,0,0,1,4,3.56s0,.07,0,.1l5.16,34.39a9.27,9.27,0,0,0,9.25,9c7.94,0,18.33-12.71,21.44-48.44,0-.46.12-.91.18-1.36a14.7,14.7,0,0,0,2.9.28h0a15,15,0,0,0,14.33-10.63,13.18,13.18,0,0,0,9.47-12.54A13,13,0,0,0,121,73.94Zm-1.18,9.25a8.15,8.15,0,0,1-6.89,8,2.51,2.51,0,0,0-2.1,2,10,10,0,0,1-9.81,8.18h0a9.9,9.9,0,0,1-8.57-15,2.5,2.5,0,0,0-.48-3.14,8.2,8.2,0,0,1,2.66-13.82,8.08,8.08,0,0,1,2.8-.5,8.21,8.21,0,0,1,7.71,5.4,2.5,2.5,0,0,0,3.35,1.44,8.06,8.06,0,0,1,3.25-.68h0a8.09,8.09,0,0,1,8.08,8.1Z"/><path class="cls-1" d="M124.64,8.06a2.86,2.86,0,0,1-.36.48,19,19,0,0,1-2.79,3.07,17.55,17.55,0,0,1-2.38,1.78,18.77,18.77,0,0,1,.84,2.86A19.47,19.47,0,0,1,120.3,21c-.17,0-.38-.1-.58-.18a18.72,18.72,0,0,1-3.78-1.7,18.06,18.06,0,0,1-2.43-1.72A18,18,0,0,1,111.05,19a20.15,20.15,0,0,1-4.39,1.8v-.58a17.92,17.92,0,0,1,.46-4.11,17.68,17.68,0,0,1,.88-2.84,16.41,16.41,0,0,1-2.35-1.82,18.47,18.47,0,0,1-3.05-3.6c.18-.08.38-.13.56-.21a19,19,0,0,1,4.06-.83,15.72,15.72,0,0,1,3,0,16.91,16.91,0,0,1,1-2.79,17.93,17.93,0,0,1,2.48-4c.13.15.23.33.36.48a18.5,18.5,0,0,1,2.05,3.6,20,20,0,0,1,1,2.82,19.91,19.91,0,0,1,7.56,1.16Z"/><path class="cls-1" d="M80.74,7.22l-.2.3a10.83,10.83,0,0,1-1.73,1.9,11.4,11.4,0,0,1-1.47,1.12,11.15,11.15,0,0,1,.51,1.77,11.34,11.34,0,0,1,.23,2.92c-.13,0-.23-.08-.36-.1a12,12,0,0,1-2.33-1.07A8.74,8.74,0,0,1,73.9,13a13.28,13.28,0,0,1-1.53,1,11,11,0,0,1-2.71,1.11v-.38a11.75,11.75,0,0,1,.28-2.53,10.21,10.21,0,0,1,.56-1.75,10.37,10.37,0,0,1-1.45-1.14,11.47,11.47,0,0,1-1.87-2.23L67.53,7A11.19,11.19,0,0,1,70,6.48a11.43,11.43,0,0,1,1.85,0,10,10,0,0,1,.64-1.73,11,11,0,0,1,1.54-2.48l.23.3a11.53,11.53,0,0,1,1.27,2.23,8.76,8.76,0,0,1,.58,1.75,16.45,16.45,0,0,1,1.85,0A9.06,9.06,0,0,1,80.74,7.22Z"/><path class="cls-1" d="M131.74,43.49l-.2.31a11.2,11.2,0,0,1-1.73,1.9,12.31,12.31,0,0,1-1.47,1.11,11.95,11.95,0,0,1,.74,4.7l-.36-.11a12.6,12.6,0,0,1-2.33-1.06,8.79,8.79,0,0,1-1.49-1.07,12.12,12.12,0,0,1-1.53,1,10.61,10.61,0,0,1-2.71,1.12v-.38a11.84,11.84,0,0,1,.28-2.54,10.21,10.21,0,0,1,.56-1.75,10.37,10.37,0,0,1-1.45-1.14,11.18,11.18,0,0,1-1.87-2.23c.12,0,.22-.07.35-.13a11.17,11.17,0,0,1,2.51-.5,11.43,11.43,0,0,1,1.85,0,10.22,10.22,0,0,1,.64-1.72,10.87,10.87,0,0,1,1.54-2.49l.23.31a11.24,11.24,0,0,1,1.27,2.23,8.55,8.55,0,0,1,.58,1.75,14.39,14.39,0,0,1,1.85,0A8.48,8.48,0,0,1,131.74,43.49Z"/></g></g></svg>