<svg xmlns="http://www.w3.org/2000/svg" xmlns:xlink="http://www.w3.org/1999/xlink" width="43.474" height="68.897" viewBox="0 0 43.474 68.897">
  <defs>
    <clipPath id="clip-path">
      <rect id="Rectangle_49" data-name="Rectangle 49" width="20" height="19.092" fill="#fff"/>
    </clipPath>
    <clipPath id="clip-path-2">
      <rect id="Rectangle_49-2" data-name="Rectangle 49" width="15" height="14.319" fill="#fff"/>
    </clipPath>
  </defs>
  <g id="Group_98" data-name="Group 98" transform="translate(-1010 -6276.31)">
    <g id="Group_94" data-name="Group 94" transform="matrix(-0.829, -0.559, 0.559, -0.829, 1042.798, 6321.817)" opacity="0.8">
      <g id="Group_22" data-name="Group 22" transform="translate(0 0)" clip-path="url(#clip-path)">
        <path id="Path_20" data-name="Path 20" d="M20,7.374c-.1.15-.2.3-.311.446A16.755,16.755,0,0,1,17.157,10.6a16.632,16.632,0,0,1-2.168,1.62,16.6,16.6,0,0,1,.75,2.6,16.784,16.784,0,0,1,.319,4.28c-.173-.049-.349-.1-.521-.158a16.743,16.743,0,0,1-3.421-1.553,16.176,16.176,0,0,1-2.209-1.564,16.9,16.9,0,0,1-2.239,1.519,16.714,16.714,0,0,1-3.976,1.624c0-.18-.008-.36-.008-.54A17.027,17.027,0,0,1,4.9,12.1a16.734,16.734,0,0,1-2.131-1.658A16.439,16.439,0,0,1,0,7.164c.169-.064.338-.12.51-.176A16.773,16.773,0,0,1,6.894,6.2,16.973,16.973,0,0,1,10.075,0c.109.143.218.289.326.435A16.813,16.813,0,0,1,12.262,3.7a16.01,16.01,0,0,1,.866,2.566A16.856,16.856,0,0,1,20,7.374" transform="translate(0 0)" fill="#fff"/>
      </g>
    </g>
    <g id="Group_95" data-name="Group 95" transform="matrix(-0.829, -0.559, 0.559, -0.829, 1022.436, 6296.568)" opacity="0.8">
      <g id="Group_22-2" data-name="Group 22" transform="translate(0 0)" clip-path="url(#clip-path-2)">
        <path id="Path_20-2" data-name="Path 20" d="M15,5.531c-.073.113-.152.225-.233.335a12.566,12.566,0,0,1-1.9,2.082,12.474,12.474,0,0,1-1.626,1.215,12.447,12.447,0,0,1,.563,1.947,12.588,12.588,0,0,1,.239,3.21c-.129-.037-.262-.076-.391-.118a12.557,12.557,0,0,1-2.566-1.165A12.132,12.132,0,0,1,7.43,11.863,12.675,12.675,0,0,1,5.75,13a12.536,12.536,0,0,1-2.982,1.218c0-.135-.006-.27-.006-.405a12.77,12.77,0,0,1,.914-4.74,12.55,12.55,0,0,1-1.6-1.243A12.329,12.329,0,0,1,0,5.373c.127-.048.253-.09.383-.132a12.58,12.58,0,0,1,4.788-.594A12.73,12.73,0,0,1,7.556,0c.082.107.163.217.245.326a12.61,12.61,0,0,1,1.4,2.45A12.007,12.007,0,0,1,9.846,4.7,12.642,12.642,0,0,1,15,5.531" transform="translate(0 0)" fill="#fff"/>
      </g>
    </g>
    <g id="Group_96" data-name="Group 96" transform="matrix(-0.829, -0.559, 0.559, -0.829, 1033.052, 6345.207)" opacity="0.8">
      <g id="Group_22-3" data-name="Group 22" transform="translate(0 0)" clip-path="url(#clip-path-2)">
        <path id="Path_20-3" data-name="Path 20" d="M15,5.531c-.073.113-.152.225-.233.335a12.566,12.566,0,0,1-1.9,2.082,12.474,12.474,0,0,1-1.626,1.215,12.447,12.447,0,0,1,.563,1.947,12.588,12.588,0,0,1,.239,3.21c-.129-.037-.262-.076-.391-.118a12.557,12.557,0,0,1-2.566-1.165A12.132,12.132,0,0,1,7.43,11.863,12.675,12.675,0,0,1,5.75,13a12.536,12.536,0,0,1-2.982,1.218c0-.135-.006-.27-.006-.405a12.77,12.77,0,0,1,.914-4.74,12.55,12.55,0,0,1-1.6-1.243A12.329,12.329,0,0,1,0,5.373c.127-.048.253-.09.383-.132a12.58,12.58,0,0,1,4.788-.594A12.73,12.73,0,0,1,7.556,0c.082.107.163.217.245.326a12.61,12.61,0,0,1,1.4,2.45A12.007,12.007,0,0,1,9.846,4.7,12.642,12.642,0,0,1,15,5.531" transform="translate(0 0)" fill="#fff"/>
      </g>
    </g>
  </g>
</svg>
