<svg xmlns="http://www.w3.org/2000/svg" viewBox="0 0 192.33 192.83"><defs><style>.cls-1{fill:#ee79a6;}</style></defs><g id="Warstwa_2" data-name="Warstwa 2"><g id="Warstwa_1-2" data-name="Warstwa 1"><path class="cls-1" d="M192.22,172.4l-.09-.07a19.14,19.14,0,0,1-5.86-7.72h0a3.05,3.05,0,0,1-.13-.32h0A2.78,2.78,0,0,0,184.8,163l0,0h0l-.58-.19h0a217.14,217.14,0,0,1-24-9.49l-3.23-1.54c-1.05-4.81-1.92-9.64-2.62-14.46q-.84-5.79-1.36-11.57a31,31,0,0,0,4.87,3c.94.45,1.9.86,2.88,1.22A31.14,31.14,0,0,0,141.27,93a30,30,0,0,0-4.38-1.25c.2,0,.39.07.58.12-.64-1.22-1.24-2.46-1.78-3.75-.37-.85-.71-1.72-1-2.6-.53-1.46-1-2.94-1.36-4.42l.52.43.69.54.94.73.69.51,1,.69.7.47q.51.34,1,.66l.4.25c.08.06.17.1.25.15.7.42,1.4.84,2.12,1.23l0,0c.72.39,1.46.76,2.2,1.11l.65.3.68.32h.07a50.17,50.17,0,0,0,37.6,1.3,51.68,51.68,0,0,0,6.25-2.76,50.43,50.43,0,0,0-28.42-19.28A50.38,50.38,0,0,0,186.4,34.07,50.48,50.48,0,0,0,186.53,13,31.2,31.2,0,0,1,180,24.15a31,31,0,0,1-12.39,8.31c-.9.33-1.8.61-2.7.85v0l-.34.07.34-.09a49.31,49.31,0,0,0-1.74-7.37A50,50,0,0,0,152.76,7.62a31.08,31.08,0,0,1-5.67,25.11c-.31.41-.64.82-1,1.21A31.44,31.44,0,0,1,144,36.25h0c-.55.53-1.11,1-1.69,1.53h0a48.71,48.71,0,0,0-4,4.24A50.21,50.21,0,0,0,128,62.18a30.56,30.56,0,0,0-3.41-4.82h0a19.2,19.2,0,0,1-1.37-1.48h0a19.74,19.74,0,0,1-3.27-5.71,18.54,18.54,0,0,1-.93-3.64c-.14-.08-.26-.18-.39-.26a19.17,19.17,0,0,0,2.95,1.53A19.24,19.24,0,0,0,119.1,18l.1.06a4.55,4.55,0,0,1,8,1.07,11.82,11.82,0,0,0,6.69,7,11.54,11.54,0,0,0,2.26.67h0c.4.08.81.13,1.22.17h0a7.36,7.36,0,0,0,7.27-9.86,4.37,4.37,0,0,0-.18-.46,4.54,4.54,0,0,1-8.65,2.75,4.63,4.63,0,0,1-.27-1.62c0-.12,0-.25,0-.37h0a31.38,31.38,0,0,0-.14-4.75,28.63,28.63,0,0,0-.47-3h0a12.34,12.34,0,0,0-.49-1.75,11.63,11.63,0,0,0-1.77-3.21A11.89,11.89,0,0,0,111.79,15l.18,0a19.23,19.23,0,0,0-17,4.91,18.44,18.44,0,0,0-2.23,2.53,0,0,0,0,0,0,0,11.88,11.88,0,0,0,4.73,17.2L97,39.44a19.26,19.26,0,0,1,.64,7.32c0,.17,0,.35-.07.52a19.22,19.22,0,0,0,9,6.61h0a4.56,4.56,0,0,0,5.15-1.56.83.83,0,0,1,.13-.18,1.63,1.63,0,0,1,.75-.53,1.71,1.71,0,0,1,1.35.07,1.68,1.68,0,0,1,.86.93v0l.06.17h0a18.57,18.57,0,0,1,.52,2,19,19,0,0,1,.1,7.17c-.08.44-.17.87-.28,1.3a19.23,19.23,0,0,1-11.38,7v0a51.25,51.25,0,0,1-8.3,1A50.81,50.81,0,0,1,78,63.52q-1.86-1.31-3.61-2.77c-.15-.15-.37-.27-.5-.43h0L73,59.57h0a4.56,4.56,0,0,0-4.11-.52,4.67,4.67,0,0,0-1.78,1.18,7.36,7.36,0,0,0,5.52,1.1c.76.82,1.54,1.6,2.34,2.36h0a50.7,50.7,0,0,0,4.51,3.78,51.18,51.18,0,0,0,4.31,2.87,50.78,50.78,0,0,0,10.67,4.77,49.64,49.64,0,0,0,11.94.11A50.35,50.35,0,0,0,113,74l0-.05a7.4,7.4,0,0,1,.31-5.75c.1-.2.21-.4.32-.59h0A7.37,7.37,0,0,0,115,77h0a50,50,0,0,1,9.06,10.21q1.33,2,2.49,4.16c.63,1.17,1.21,2.38,1.75,3.61l.15-.17A32.8,32.8,0,0,0,126,98.46a31.15,31.15,0,0,0,8.83,41,30.09,30.09,0,0,0,1.46-2.82,31.59,31.59,0,0,0,1.81-5.22c2,3.31,3.86,6.67,5.66,10.11q1.18,2.25,2.31,4.54h0q1.62,3.28,3.15,6.65,3.35,7.4,6.16,15.13,2.34,6.44,4.25,12.91c.27.93.54,1.87.8,2.81q1.26,4.49,2.31,9h0s0,0,0,0a.41.41,0,0,0,.53.25.42.42,0,0,0,.27-.37.69.69,0,0,1,0-.13,19.18,19.18,0,0,1,1.32-9.6c0-.1.08-.2.13-.3h0a2.82,2.82,0,0,0,0-1.9v0l-.3-.58a215.17,215.17,0,0,1-10.25-23.67c-.23-.63-.46-1.27-.68-1.91,1.41.53,2.82,1.07,4.22,1.63,3.74,1.5,7.45,3.1,11.14,4.83q6.21,2.88,12.13,6.12l2.56,1.42h0q4.07,2.28,8,4.72h0l0,0a.41.41,0,0,0,.54-.2A.41.41,0,0,0,192.22,172.4Z"/><path class="cls-1" d="M69.19,60.55a.38.38,0,0,0-.21-.2L33.65,46.71a11.71,11.71,0,0,1,.82-2.33c.08-.17.16-.34.25-.5h0a4.42,4.42,0,0,0,.36-1.75,4.51,4.51,0,0,0-3.21-4.32,4.33,4.33,0,0,0-1.31-.2,4.54,4.54,0,0,0-2.79,1,4.54,4.54,0,0,0-2.79-1,4.44,4.44,0,0,0-1.32.2A4.51,4.51,0,0,0,20.87,44c.06.1.11.21.16.31h0a11.67,11.67,0,0,1,1.16,5.11,11.8,11.8,0,0,0,1,4.68l.13.28a1.06,1.06,0,0,0,2-.52v-.07a7.28,7.28,0,0,1,2.52-5.37,7.25,7.25,0,0,1,2.52,5.34v.15h0a1.07,1.07,0,0,0,2,.44c0-.08.07-.16.1-.23h0a11.7,11.7,0,0,0,1-4.7h0c0-.3,0-.59,0-.88L68.72,61.06l.13,0a.38.38,0,0,0,.35-.24A.41.41,0,0,0,69.19,60.55Z"/><path class="cls-1" d="M22.35,22.86a1.43,1.43,0,0,1-.14.2,6.62,6.62,0,0,1-1.1,1.2,6.44,6.44,0,0,1-.94.71,7,7,0,0,1,.33,1.13A7.67,7.67,0,0,1,20.64,28l-.23-.07a7.47,7.47,0,0,1-1.49-.68,7.23,7.23,0,0,1-1-.68,6.38,6.38,0,0,1-1,.66,7.08,7.08,0,0,1-1.73.71v-.24A7.25,7.25,0,0,1,15.44,26a6.94,6.94,0,0,1,.35-1.12,8.23,8.23,0,0,1-.93-.72,7.52,7.52,0,0,1-1.2-1.43l.22-.07a6.51,6.51,0,0,1,1.6-.33,7.64,7.64,0,0,1,1.17,0,9.07,9.07,0,0,1,.4-1.1,7.53,7.53,0,0,1,1-1.59l.14.19A7.2,7.2,0,0,1,19,21.27a7.61,7.61,0,0,1,.37,1.11,7.45,7.45,0,0,1,3,.48Z"/><path class="cls-1" d="M13.82,54.36l-.13.2a7.43,7.43,0,0,1-1.1,1.2,8.09,8.09,0,0,1-.95.71A7.2,7.2,0,0,1,12,57.59a7.7,7.7,0,0,1,.14,1.86l-.23-.06a7.47,7.47,0,0,1-1.49-.68,7.23,7.23,0,0,1-1-.68,6.38,6.38,0,0,1-1,.66,6.92,6.92,0,0,1-1.73.71v-.24a7.18,7.18,0,0,1,.18-1.62,8.11,8.11,0,0,1,.35-1.12,8.11,8.11,0,0,1-.92-.72,7.22,7.22,0,0,1-1.21-1.43l.22-.08A7.59,7.59,0,0,1,7,53.86a7.76,7.76,0,0,1,1.18,0,6,6,0,0,1,.4-1.1,6.89,6.89,0,0,1,1-1.59l.14.19a6.93,6.93,0,0,1,.81,1.42,6.29,6.29,0,0,1,.37,1.11,7.72,7.72,0,0,1,1.18,0A7.25,7.25,0,0,1,13.82,54.36Z"/><path class="cls-1" d="M5.37,36.34l-.08.12a5.33,5.33,0,0,1-.68.74,5,5,0,0,1-.59.44,3.94,3.94,0,0,1,.21.69,4.91,4.91,0,0,1,.08,1.15l-.14,0A4.8,4.8,0,0,1,3.25,39a3.51,3.51,0,0,1-.59-.42,4.89,4.89,0,0,1-.6.41A4.38,4.38,0,0,1,1,39.45V39.3a4.71,4.71,0,0,1,.11-1,4.37,4.37,0,0,1,.22-.7,4.92,4.92,0,0,1-.58-.44A4.49,4.49,0,0,1,0,36.28l.14-.05a4.83,4.83,0,0,1,1-.2,4.33,4.33,0,0,1,.72,0,4.28,4.28,0,0,1,.25-.68,4.34,4.34,0,0,1,.61-1l.08.11a4.31,4.31,0,0,1,.5.88,4,4,0,0,1,.24.69,4.33,4.33,0,0,1,.72,0A4,4,0,0,1,5.37,36.34Z"/><path class="cls-1" d="M40.93,25.79l-.09.12a4.86,4.86,0,0,1-1.26,1.18,4,4,0,0,1,.2.7,4.4,4.4,0,0,1,.09,1.15l-.14-.05a4,4,0,0,1-.92-.41,5.19,5.19,0,0,1-.59-.42,4.81,4.81,0,0,1-.6.4,4.55,4.55,0,0,1-1.07.44v-.15a4.14,4.14,0,0,1,.11-1,3.94,3.94,0,0,1,.21-.69,4,4,0,0,1-.57-.45,4.21,4.21,0,0,1-.74-.88l.13-.05a5,5,0,0,1,1-.2,6,6,0,0,1,.73,0,4.23,4.23,0,0,1,.24-.68,4.73,4.73,0,0,1,.61-1l.09.12a4.45,4.45,0,0,1,.5.87,4.65,4.65,0,0,1,.23.69,5.93,5.93,0,0,1,.73,0A5,5,0,0,1,40.93,25.79Z"/></g></g></svg>