<?xml version="1.0" encoding="utf-8"?>
<!-- Generator: Adobe Illustrator 26.0.3, SVG Export Plug-In . SVG Version: 6.00 Build 0)  -->
<svg version="1.1" id="Warstwa_1" xmlns="http://www.w3.org/2000/svg" xmlns:xlink="http://www.w3.org/1999/xlink" x="0px" y="0px"
	 viewBox="0 0 512 512" style="enable-background:new 0 0 512 512;" xml:space="preserve">
<style type="text/css">
	.st0{fill:#ED79A5;}
</style>
<path class="st0" d="M0,0v512h512V0H0z M162.4,394.6c-2.1-5.9-6.1-17-11.9-33.3c-5.9-16.3-10.4-28.7-13.4-37.2l-25.2,70.5H98.5
	c-1.6-4.5-6.9-19.1-15.7-44c-8.8-24.9-15.2-42.8-19.1-53.8c-1.2-3.2-3.1-5.4-5.7-6.9c-2.6-1.4-5.3-2-7.9-1.9c-2.7,0.2-5,0.8-6.9,2
	c-4.9,2.7-8.1,6.9-9.5,12.4c-1.2,4.1-1,7.8,0.7,10.9c1.7,3.1,4,4.8,6.8,5c1.7,0.1,3.2-0.3,4.3-1.1c1.1-0.9,1.9-2,2.2-3.5
	c0.3-1.5,0.4-2.9,0.2-4.4c-0.2-1.5-0.9-2.8-2-3.9c-1.1-1.1-2.4-1.8-3.9-1.9c7.6-2.5,13.8-2.1,18.6,1.2c4.8,3.3,7.3,8.4,7.5,15.3
	c0.2,6.7-1.9,12.2-6.3,16.5c-4.4,4.4-10.2,6.6-17.3,6.7c-2.3,0-4.8-0.4-7.7-1.3c-5-1.6-9-4.4-12.1-8.3c-3.1-3.9-4.8-8.3-5.2-13.2
	c-0.4-4.8,0-9.8,1.3-14.7c1.3-5,3.9-9.6,7.7-14c3.8-4.4,8.4-7.7,13.9-10c5.8-2.4,11.7-3.6,17.8-3.6h35.3v4.9c-2.6,0-5,1.1-7,3.4
	c-1.9,2.2-2.4,4.3-1.6,6.2c17.7,49.1,26.7,74.1,27,75.1l18.6-56.4c-0.7-2-1.8-5.1-3.4-9.3c-1.6-4.3-2.8-7.4-3.5-9.5
	c-2.6-6.3-6.7-9.5-12.1-9.5v-4.9h45.8v4.9c-2.6,0-5,1.1-7,3.4c-1.9,2.2-2.4,4.3-1.6,6.2c2.4,6.8,5.6,15.9,9.7,27.4
	c4.1,11.5,7.7,21.6,10.8,30.2c3.1,8.6,5.2,14.4,6.3,17.5c7-20.7,14.7-44,23.2-70c6.3-19.2,15.1-33.6,26.4-43.3
	c11.3-9.6,26.3-14.5,45.1-14.5c5.7,0,9.2,2.9,10.5,8.7c1.2,5,0.5,9.4-2,13.1c-1.6,2.3-3.6,3.3-5.9,3.1c-9.4-1-17.8-0.8-25.3,0.6
	c-7.5,1.4-13.8,3.7-18.9,7c-5.1,3.3-9.2,7.1-12.5,11.3c-3.3,4.2-5.9,9-7.8,14.5c-16.8,47.1-28.2,79.2-34.3,96.3H162.4z M326.5,468.1
	c-2.8,5.2-6.5,9.1-11,11.5c-4.5,2.5-9.4,3.7-14.6,3.6c-5.2-0.1-10.9-0.7-17.2-1.8c-6.3-1.1-12.6-2.7-19.1-4.7
	c-6.4-2-13.1-3.7-20-5.2c-6.9-1.4-13.7-2.4-20.2-3c-6.5-0.6-13.1-0.1-19.6,1.6c0-1.2,0-3,0-5.4c0-2.4,0.1-4.2,0.2-5.4l67.9-102.5
	h-28.6c-4,0-8,0.8-12,2.4c-4,1.6-7.5,3.7-10.5,6.2c-3,2.6-5.4,4.8-7.3,6.8c-1.9,2-3.4,3.9-4.7,5.7l2.5-27h88.1l-0.2,7
	c-10.1,15.3-19.4,29.2-27.7,41.9c-8.3,12.7-21.6,32.6-39.7,59.8c7.5,0.2,14.9,0.8,22.2,1.9c7.2,1,12.6,2,15.9,2.9
	c3.4,0.9,7.4,1.4,12.2,1.6c4.7,0.2,8.4-0.4,10.9-1.8c3.1-1.1,5.3-2.8,6.7-5.2c1.4-2.4,2-4.8,1.8-7.1c-0.2-2.3-1.1-4.5-2.7-6.5
	c-1.6-2-3.6-3.1-6.1-3.4c-3.9-0.7-7.4,0-10.5,2c-3.1,2-6,5.9-8.8,11.9c0-6.5,0.8-12.2,2.5-16.9c1.7-4.7,3.8-8.3,6.4-10.6
	c2.6-2.3,5.6-4.1,9.1-5.2c3.5-1.1,6.8-1.6,10.1-1.4c3.2,0.2,6.5,0.7,9.9,1.6c5.7,1.5,10.2,4.7,13.7,9.4c3.4,4.7,5.2,10.2,5.4,16.3
	C331.5,455.1,329.9,461.5,326.5,468.1z M492.6,432.4c-0.2,0.5-0.8,0.7-1.3,0.5c0,0-0.1,0-0.1,0l0,0c-6.1-3.8-12.3-7.5-18.6-11l0,0
	c-2-1.1-4-2.2-6-3.3c-9.2-5-18.7-9.8-28.3-14.3c-8.6-4-17.3-7.8-26-11.3c-3.3-1.3-6.6-2.6-9.9-3.8c0.5,1.5,1.1,3,1.6,4.5
	c7,19.1,15,37.6,23.9,55.3c0.2,0.5,0.5,0.9,0.7,1.4l0,0.1c0.5,1.5,0.5,3,0,4.4c0,0,0,0,0,0c-0.1,0.2-0.2,0.5-0.3,0.7
	c-2.9,7-4,14.7-3.1,22.4c0,0.1,0,0.2,0,0.3c0,0.4-0.2,0.7-0.6,0.9c-0.5,0.2-1-0.1-1.2-0.6c0,0,0-0.1,0-0.1l0,0c-1.6-7-3.4-14-5.4-21
	c-0.6-2.2-1.2-4.4-1.9-6.6c-3-10.1-6.3-20.1-9.9-30.1c-4.4-12.1-9.2-23.8-14.4-35.3c-2.4-5.2-4.8-10.4-7.4-15.5c0,0,0,0,0,0
	c-1.8-3.6-3.6-7.1-5.4-10.6c-4.2-8-8.6-15.9-13.2-23.6c-1.1,4.2-2.5,8.3-4.2,12.2c-1,2.2-2.1,4.5-3.4,6.6
	c-11.6-8.2-20.8-19.9-26.1-34.3c-7.7-21.1-5-43.4,5.4-61.4c1.7-3,3.7-5.9,5.9-8.6c-0.1,0.1-0.2,0.3-0.3,0.4
	c-1.3-2.9-2.6-5.7-4.1-8.4c-1.8-3.4-3.7-6.6-5.8-9.7c-6-9-13.1-17-21.1-23.8l0,0c-3.2-2.5-4.8-6.8-4.8-6.8
	c-5.1,1.3-10.3,2.2-15.4,2.8c-9.4,1-18.7,0.9-27.9-0.3c-8.7-2.7-17.1-6.5-24.9-11.1c-3.5-2.1-6.8-4.3-10.1-6.7
	c-3.7-2.7-7.2-5.7-10.5-8.8l0,0c-1.9-1.8-3.7-3.6-5.5-5.5c-4.6,0.9-9.2-0.1-12.9-2.6c0,0,0,0,0,0l-60.2-21.3c-0.1,1-0.1,1.9-0.1,2.9
	h0c0,6.3-1.3,12.3-3.7,17.8c0,0,0,0,0,0c-0.1,0.3-0.3,0.6-0.4,0.9c-0.7,1.2-2,2-3.5,2c-2.1,0-3.8-1.6-4-3.6v0c0-0.2,0-0.4,0-0.6
	c-0.2-8.1-3.8-15.3-9.5-20.2c-5.7,5-9.4,12.2-9.5,20.3v0.2c0,0,0,0.1,0,0.1c-0.1,2.1-1.9,3.9-4,3.9c-1.4,0-2.7-0.7-3.4-1.9
	c-0.2-0.4-0.3-0.7-0.5-1.1c-2.3-5.4-3.6-11.4-3.6-17.7c0-3.5-0.4-6.9-1.2-10.2c-0.7-3.2-1.8-6.2-3.2-9.1c0,0,0,0,0,0
	c-0.2-0.4-0.4-0.8-0.6-1.2c-1-2.2-1.5-4.6-1.5-7.1c0-7.7,5.1-14.2,12.1-16.3c1.6-0.5,3.2-0.7,5-0.7c4,0,7.6,1.4,10.6,3.7
	c2.9-2.3,6.6-3.7,10.5-3.7c1.7,0,3.4,0.3,5,0.7c7,2.1,12.1,8.6,12.1,16.3c0,2.4-0.5,4.6-1.3,6.6c0,0,0,0,0,0c-0.3,0.6-0.7,1.3-1,1.9
	c-1.3,2.8-2.4,5.7-3.1,8.8c-0.4,1.5-0.6,3.1-0.8,4.7l60.5,23.4c1-0.9,2.2-1.7,3.6-2.2c1.2-0.4,2.4-0.6,3.6-0.6c2.2,0,4.3,0.6,6,1.8
	c0,0,0,0,0,0c0.7,0.6,1.3,1.2,2,1.8c0,0,0,0,0,0c0.3,0.4,0.8,0.6,1.2,1c0,0,0,0,0,0c2.7,2.3,5.5,4.4,8.4,6.4
	c12.4,8.6,26.4,14.8,41.1,18.2c6.4-0.2,12.9-1,19.4-2.4l0,0c2.2-0.4,4.4-1.1,6.6-1.9c8.2-3,15-8.1,20-14.5c0.2-1,0.5-2,0.6-3
	c1-5.4,0.9-11.1-0.2-16.7c-0.3-1.6-0.7-3.1-1.2-4.7c0,0,0,0,0,0c0-0.1-0.1-0.3-0.1-0.4l0-0.1c-0.4-1-1.1-1.7-2-2.2
	c-1-0.5-2.1-0.6-3.2-0.2c-0.7,0.3-1.3,0.7-1.8,1.2c-0.1,0.1-0.2,0.3-0.3,0.4c-1.2,1.6-2.8,2.9-4.9,3.6c-2.4,0.9-4.9,0.8-7.2,0l0,0
	c-8.3-2.9-15.7-8.2-21.1-15.4c0.1-0.4,0.1-0.8,0.1-1.2c0.6-5.6,0.2-11.4-1.5-17.1c0,0,0.1,0,0.1,0c-5.8-3.1-10.5-8.3-12.9-14.9
	c-3.1-8.6-1.8-17.6,2.9-24.7c0,0,0,0,0,0c1.5-2.1,3.3-4.1,5.2-5.9c4.3-4.1,9.6-7.4,15.6-9.6c8-2.9,16.2-3.4,23.9-1.9
	c-0.1,0-0.2,0-0.3-0.1c-3.7-13.8,3.7-28.3,17.3-33.3c11.6-4.2,24.3-0.2,31.5,9.1c1.7,2.2,3.1,4.7,4.1,7.5c0.5,1.4,0.9,2.7,1.1,4.1
	l0,0c0.5,2.3,0.9,4.7,1.1,7.1c0.4,3.7,0.5,7.4,0.3,11.1c0,0,0,0,0,0c0,0.3,0,0.6,0,0.9c0,1.3,0.2,2.5,0.6,3.8
	c2,5.5,8.1,8.3,13.6,6.3c5.2-1.9,8-7.5,6.6-12.8c0.2,0.3,0.3,0.7,0.4,1.1c3.2,8.9-1.3,18.8-10.3,22c-2.2,0.8-4.5,1.1-6.7,1
	c0,0,0,0,0,0c-1-0.1-1.9-0.2-2.9-0.4c0,0,0,0,0,0c-1.8-0.3-3.6-0.9-5.3-1.6c-4.5-1.8-8.5-4.8-11.5-8.7c-1.7-2.2-3.1-4.7-4.1-7.5
	c-2-5.5-8.1-8.3-13.6-6.3c-2.1,0.8-3.8,2.1-5,3.8c-0.1-0.1-0.2-0.1-0.2-0.2c7.5,5.1,13.6,12.6,16.9,21.7
	c6.3,17.3,1.3,35.9-11.1,47.8c-2.7-1.1-5.2-2.4-7.6-4c0.5,0.4,1.1,0.7,1.6,1c0.4,2.8,1.2,5.7,2.2,8.5c0.9,2.4,1.9,4.7,3.2,6.8
	c1.3,2.3,2.8,4.5,4.5,6.5l0,0c1,1.2,2.1,2.4,3.2,3.5c0,0,0,0,0,0c3,3.4,5.6,7.2,8,11.2c4.2-16.8,12.1-32.9,24-47
	c3-3.5,6.1-6.8,9.3-9.9c0,0,0,0,0,0c1.4-1.1,2.7-2.3,4-3.6c0,0,0,0,0,0c0,0,0,0,0,0s0,0,0,0c1.7-1.7,3.4-3.5,5-5.4
	c0.8-0.9,1.5-1.9,2.3-2.8c13.1-17.3,17.4-38.7,13.2-58.6c11.3,12.6,19.5,27.3,24.4,42.8c1.8,5.6,3.1,11.4,4,17.2
	c2.1-0.6,4.2-1.2,6.3-2c11.5-4.2,21.3-10.9,28.9-19.4c6.9-7.6,12-16.5,15.2-26.1c2,9.5,2.8,19.1,2.4,28.5c-0.3,7-1.2,13.9-2.7,20.7
	c-7.3,33-28.7,62.3-60,78.7c26.3,6.7,50,22.5,66.4,45c-4.6,2.4-9.5,4.6-14.6,6.4c-29.8,10.8-61.1,8.9-88-3c0,0,0,0,0,0
	c-0.1-0.1-0.3-0.1-0.4-0.2c-1.1-0.5-2.1-1-3.2-1.5c-0.3-0.2-0.6-0.3-1-0.5c-1.2-0.6-2.3-1.2-3.5-1.8c-0.1,0-0.1-0.1-0.2-0.1
	c-1.2-0.6-2.3-1.3-3.5-2c-0.4-0.2-0.7-0.4-1.1-0.6c-0.4-0.2-0.7-0.4-1.1-0.6c-0.3-0.2-0.6-0.4-0.9-0.6c-0.8-0.5-1.6-1-2.4-1.5
	c-0.5-0.4-1.1-0.7-1.6-1.1c-0.8-0.5-1.5-1.1-2.3-1.6c-0.5-0.4-1.1-0.8-1.6-1.2c-0.7-0.6-1.5-1.1-2.2-1.7c-0.5-0.4-1.1-0.8-1.6-1.3
	c-0.4-0.4-0.9-0.7-1.3-1.1c0.9,3.5,2,6.9,3.2,10.4c0.7,2.1,1.6,4.1,2.4,6.1c1.3,3,2.7,5.9,4.2,8.7c-0.2,0-0.4-0.1-0.6-0.1
	c3.2,0.7,6.4,1.6,9.5,2.8c19.4,7.1,35.6,22.4,43.2,43.4c5.2,14.2,5.6,29.1,2.2,42.7c-2.3-0.8-4.5-1.8-6.7-2.9
	c-4-1.9-7.8-4.2-11.4-6.9c0.8,9,1.9,18,3.2,27c1.6,11.3,3.7,22.5,6.1,33.8c2.5,1.2,5,2.4,7.5,3.6c18.5,8.6,37.2,16,56.1,22.2
	c0,0,0,0,0,0c0.4,0.2,0.9,0.3,1.3,0.4c0,0,0,0,0,0c0,0,0.1,0,0.1,0c1.4,0.7,2.5,1.8,3.1,3.1l0,0c0.1,0.3,0.2,0.5,0.3,0.8l0,0
	c2.9,7,7.5,13.2,13.7,18c0.1,0.1,0.1,0.1,0.2,0.2C492.7,431.6,492.8,432,492.6,432.4z"/>
</svg>
