<?xml version="1.0" encoding="utf-8"?>
<!-- Generator: Adobe Illustrator 26.0.3, SVG Export Plug-In . SVG Version: 6.00 Build 0)  -->
<svg version="1.1" id="Group_274" xmlns="http://www.w3.org/2000/svg" xmlns:xlink="http://www.w3.org/1999/xlink" x="0px" y="0px"
	 viewBox="0 0 128.8 137" style="enable-background:new 0 0 128.8 137;" xml:space="preserve">
<style type="text/css">
	.st0{clip-path:url(#SVGID_00000109739222116894177080000012171916107799181728_);}
	.st1{fill:#FFFFFF;}
</style>
<g>
	<defs>
		<rect id="SVGID_1_" x="7.1" width="115.9" height="137"/>
	</defs>
	<clipPath id="SVGID_00000094594944615562849030000013445211686954956720_">
		<use xlink:href="#SVGID_1_"  style="overflow:visible;"/>
	</clipPath>
	<g id="Group_273" style="clip-path:url(#SVGID_00000094594944615562849030000013445211686954956720_);">
		<path id="Path_92" class="st1" d="M116.7,12.4C111.3,4.3,103.2,0,93.3,0c-6.7,0-11.1,2.2-15.4,4.3c-3.8,1.9-7.5,3.8-12.8,3.8
			c-3.3,0-6.5-0.7-9.5-2.1c-0.3-0.2-0.6-0.4-0.8-0.6l0,0c-0.1-0.1-0.1-0.1-0.2-0.1c-0.5-0.3-1-0.5-1.5-0.5l-0.8-0.4
			C48,2.2,43.5,0,36.9,0c-9.9,0-18.1,4.3-23.5,12.4c-4,6.3-6.2,13.6-6.3,21c0,11,3.4,18.7,7,26.8c3.1,6.9,6.2,14,7.3,23.7
			c1.5,17.2,4.8,31.2,9.4,40.6c5.4,10.9,11,12.5,13.9,12.5c5.4,0,9.8-4.3,9.9-9.7l5.7-37.5c0,0,0-0.1,0-0.1s0.5-4.6,4.7-4.6
			c2.4,0,4.4,1.8,4.7,4.2c0,0,0,0.1,0,0.1l5.7,37.9c0.1,5.4,4.5,9.7,9.9,9.7c8.6,0,19.9-13.9,23.3-53.1c1.1-9.7,4.3-16.8,7.3-23.7
			c3.6-8.1,7-15.7,7-26.7C122.9,25.9,120.8,18.7,116.7,12.4 M36.9,4.9c5.5,0,9.2,1.9,13.2,3.8l0.4,0.2c0.2,0.5,0.6,0.9,1,1.2
			c0.7,0.4,1.3,0.8,1.9,1.1s1.2,0.7,1.9,1.1c1.2,0.7,2.5,1.3,3.8,2c2.6,1.3,5.2,2.4,7.8,3.4c2.7,1,5.4,1.8,8.3,2.4
			c2.8,0.6,5.7,0.9,8.6,0.8c0.8,0,1.4-0.7,1.4-1.5c0-0.7-0.6-1.4-1.3-1.4h-0.1c-2.6-0.2-5.2-0.7-7.8-1.4c-2.6-0.8-5-1.8-7.5-2.9
			c-0.5-0.2-1-0.5-1.5-0.7c5.4-0.4,9.3-2.3,13-4.2c3.9-2,7.6-3.8,13.2-3.8c20.4,0,24.9,20.6,24.9,28.5c0,4.8-0.8,9.6-2.3,14.2H85.3
			v-7.6c0-2.8-2.3-5.1-5.1-5.1H50c-2.8,0-5.1,2.3-5.1,5.1v7.6H14.5c-0.1,0-0.1,0-0.2,0C12.8,43,12,38.2,12,33.4
			C12,25.5,16.5,4.9,36.9,4.9 M80.4,40.1v20c0,0.2-0.1,0.3-0.3,0.3H50c-0.2,0-0.3-0.1-0.3-0.3v-20c0-0.2,0.1-0.3,0.3-0.3h30.2
			C80.3,39.8,80.4,39.9,80.4,40.1 M103.8,83.3C103.8,83.4,103.8,83.4,103.8,83.3c-3.5,40.1-14.5,48.8-18.5,48.8c-2.8,0-5-2.2-5-5
			c0-0.1,0-0.2,0-0.4l-5.7-38.1c-0.5-4.8-4.6-8.5-9.5-8.5c-6.3,0-9.1,5.3-9.6,8.9l-5.7,37.7c0,0.1,0,0.2,0,0.4c0,2.8-2.2,5-5,5
			c-2.2,0-5.9-2.6-9.5-9.9c-3.1-6.2-7.1-17.9-8.9-38.9c0,0,0,0,0-0.1c-1.2-10.5-4.5-17.9-7.7-25.2c-0.8-1.9-1.7-3.8-2.5-5.7h28.8V60
			c0,2.8,2.3,5.1,5.1,5.1h30.2c2.8,0,5.1-2.3,5.1-5.1v-7.6H114c-0.8,1.9-1.6,3.8-2.5,5.7C108.4,65.4,105.1,72.8,103.8,83.3"/>
		<path id="Path_93" class="st1" d="M59.2,41.1c-1.3,0-2.4,1.1-2.4,2.4c0,0,0,0,0,0v13c0,1.3,1.1,2.4,2.4,2.4c1.3,0,2.4-1.1,2.4-2.4
			v-13C61.6,42.2,60.5,41.1,59.2,41.1L59.2,41.1"/>
		<path id="Path_94" class="st1" d="M70.9,41.1c-1.3,0-2.4,1.1-2.4,2.4l0,0v13c0,1.3,1.1,2.4,2.4,2.4s2.4-1.1,2.4-2.4l0,0v-13
			C73.4,42.2,72.3,41.1,70.9,41.1L70.9,41.1"/>
	</g>
</g>
</svg>
