<?xml version="1.0" encoding="UTF-8"?><svg id="Warstwa_2" xmlns="http://www.w3.org/2000/svg" viewBox="0 0 141.73 141.73"><defs><style>.cls-1{fill:#fff;}.cls-2{fill:none;}</style></defs><g id="Warstwa_1-2"><rect class="cls-2" width="141.73" height="141.73"/><g id="Group_273"><path id="Path_92" class="cls-1" d="M122.57,14.77c-5.4-8.1-13.5-12.4-23.4-12.4-6.7,0-11.1,2.2-15.4,4.3-3.8,1.9-7.5,3.8-12.8,3.8-3.3,0-6.5-.7-9.5-2.1-.3-.2-.6-.4-.8-.6h0q-.1-.1-.2-.1c-.5-.3-1-.5-1.5-.5l-.8-.4c-4.3-2.2-8.8-4.4-15.4-4.4-9.9,0-18.1,4.3-23.5,12.4-4,6.3-6.2,13.6-6.3,21,0,11,3.4,18.7,7,26.8,3.1,6.9,6.2,14,7.3,23.7,1.5,17.2,4.8,31.2,9.4,40.6,5.4,10.9,11,12.5,13.9,12.5,5.4,0,9.8-4.3,9.9-9.7l5.7-37.5v-.1s.5-4.6,4.7-4.6c2.4,0,4.4,1.8,4.7,4.2v.1l5.7,37.9c.1,5.4,4.5,9.7,9.9,9.7,8.6,0,19.9-13.9,23.3-53.1,1.1-9.7,4.3-16.8,7.3-23.7,3.6-8.1,7-15.7,7-26.7,0-7.6-2.1-14.8-6.2-21.1M42.77,7.27c5.5,0,9.2,1.9,13.2,3.8l.4,.2c.2,.5,.6,.9,1,1.2,.7,.4,1.3,.8,1.9,1.1s1.2,.7,1.9,1.1c1.2,.7,2.5,1.3,3.8,2,2.6,1.3,5.2,2.4,7.8,3.4,2.7,1,5.4,1.8,8.3,2.4,2.8,.6,5.7,.9,8.6,.8,.8,0,1.4-.7,1.4-1.5,0-.7-.6-1.4-1.3-1.4h-.1c-2.6-.2-5.2-.7-7.8-1.4-2.6-.8-5-1.8-7.5-2.9-.5-.2-1-.5-1.5-.7,5.4-.4,9.3-2.3,13-4.2,3.9-2,7.6-3.8,13.2-3.8,20.4,0,24.9,20.6,24.9,28.5,0,4.8-.8,9.6-2.3,14.2h-30.5v-7.6c0-2.8-2.3-5.1-5.1-5.1h-30.2c-2.8,0-5.1,2.3-5.1,5.1v7.6H20.17c-1.5-4.7-2.3-9.5-2.3-14.3,0-7.9,4.5-28.5,24.9-28.5m43.5,35.2v20c0,.2-.1,.3-.3,.3h-30.1c-.2,0-.3-.1-.3-.3v-20c0-.2,.1-.3,.3-.3h30.2c.1,0,.2,.1,.2,.3m23.4,43.2q0,.1,0,0c-3.5,40.1-14.5,48.8-18.5,48.8-2.8,0-5-2.2-5-5v-.4l-5.7-38.1c-.5-4.8-4.6-8.5-9.5-8.5-6.3,0-9.1,5.3-9.6,8.9l-5.7,37.7v.4c0,2.8-2.2,5-5,5-2.2,0-5.9-2.6-9.5-9.9-3.1-6.2-7.1-17.9-8.9-38.9v-.1c-1.2-10.5-4.5-17.9-7.7-25.2-.8-1.9-1.7-3.8-2.5-5.7h28.8v7.7c0,2.8,2.3,5.1,5.1,5.1h30.2c2.8,0,5.1-2.3,5.1-5.1v-7.6h28.6c-.8,1.9-1.6,3.8-2.5,5.7-3.1,7.3-6.4,14.7-7.7,25.2"/><path id="Path_93" class="cls-1" d="M65.07,43.47c-1.3,0-2.4,1.1-2.4,2.4h0v13c0,1.3,1.1,2.4,2.4,2.4s2.4-1.1,2.4-2.4v-13c0-1.3-1.1-2.4-2.4-2.4h0"/><path id="Path_94" class="cls-1" d="M76.77,43.47c-1.3,0-2.4,1.1-2.4,2.4h0v13c0,1.3,1.1,2.4,2.4,2.4s2.4-1.1,2.4-2.4h0v-13c.1-1.3-1-2.4-2.4-2.4h0"/></g></g></svg>