<svg id="Group_274" data-name="Group 274" xmlns="http://www.w3.org/2000/svg" xmlns:xlink="http://www.w3.org/1999/xlink" width="115.858" height="137" viewBox="0 0 115.858 137">
  <defs>
    <clipPath id="clip-path">
      <rect id="Rectangle_158" data-name="Rectangle 158" width="115.858" height="137" fill="#fff"/>
    </clipPath>
  </defs>
  <g id="Group_273" data-name="Group 273" clip-path="url(#clip-path)">
    <path id="Path_92" data-name="Path 92" d="M109.577,12.389C104.173,4.284,96.06,0,86.116,0,79.4,0,75,2.209,70.756,4.346,66.921,6.275,63.3,8.1,57.961,8.1a22.526,22.526,0,0,1-9.5-2.142c-.292-.212-.576-.423-.833-.621l-.016-.012c-.064-.05-.132-.1-.2-.142a2.862,2.862,0,0,0-1.542-.452l-.8-.4C40.806,2.2,36.4,0,29.742,0,19.8,0,11.686,4.284,6.282,12.389A39.34,39.34,0,0,0,0,33.4C0,44.418,3.4,52.059,6.995,60.15c3.053,6.865,6.208,13.964,7.342,23.7,1.5,17.184,4.761,31.222,9.427,40.6C29.2,135.37,34.8,137,37.649,137a9.88,9.88,0,0,0,9.867-9.675l5.656-37.549c.005-.033.009-.065.013-.1s.55-4.6,4.744-4.6a4.723,4.723,0,0,1,4.7,4.217c0,.033.008.065.013.1l5.7,37.93A9.881,9.881,0,0,0,78.21,137c8.614,0,19.886-13.921,23.312-53.147,1.133-9.738,4.289-16.837,7.342-23.7,3.6-8.091,6.995-15.732,6.995-26.749a39.34,39.34,0,0,0-6.282-21.012M29.742,4.854c5.51,0,9.226,1.855,13.159,3.82l.371.185A2.862,2.862,0,0,0,44.3,10.022c.664.425,1.258.777,1.885,1.146s1.242.717,1.869,1.056q1.875,1.035,3.795,1.97a85.169,85.169,0,0,0,7.85,3.379,63.685,63.685,0,0,0,8.251,2.4,39.609,39.609,0,0,0,8.642.8,1.436,1.436,0,0,0,.053-2.869l-.053,0a36.469,36.469,0,0,1-7.771-1.414,59.806,59.806,0,0,1-7.47-2.892c-.49-.231-.976-.472-1.462-.715,5.439-.379,9.3-2.314,13.045-4.2,3.914-1.968,7.611-3.828,13.179-3.828C106.533,4.854,111,25.461,111,33.4a44.82,44.82,0,0,1-2.323,14.223H78.14V40.066a5.139,5.139,0,0,0-5.133-5.134H42.851a5.139,5.139,0,0,0-5.133,5.134v7.557H7.342c-.055,0-.109,0-.162.008A44.828,44.828,0,0,1,4.854,33.4c0-7.94,4.471-28.547,24.889-28.547M73.287,40.066V60.035a.287.287,0,0,1-.279.28H42.851a.287.287,0,0,1-.279-.28V40.066a.287.287,0,0,1,.279-.28H73.007a.287.287,0,0,1,.279.28M96.7,83.329c0,.023,0,.046-.007.068-3.486,39.992-14.522,48.749-18.48,48.749a5.021,5.021,0,0,1-5.015-5.015,2.47,2.47,0,0,0-.027-.361L67.451,88.719a9.57,9.57,0,0,0-9.522-8.493c-6.276,0-9.149,5.285-9.563,8.872L42.691,126.77a2.417,2.417,0,0,0-.027.361,5.021,5.021,0,0,1-5.015,5.015c-2.239,0-5.921-2.59-9.539-9.859C25.04,116.121,21,104.369,19.169,83.4c0-.022,0-.045-.007-.068-1.215-10.492-4.528-17.944-7.732-25.151-.849-1.91-1.686-3.793-2.464-5.7H37.718v7.557a5.139,5.139,0,0,0,5.133,5.134H73.007a5.139,5.139,0,0,0,5.133-5.134V52.478h28.752c-.778,1.908-1.615,3.791-2.464,5.7-3.2,7.207-6.517,14.658-7.732,25.151" fill="#fff"/>
    <path id="Path_93" data-name="Path 93" d="M114.906,93.2a2.426,2.426,0,0,0-2.427,2.427v13a2.427,2.427,0,0,0,4.854,0v-13a2.427,2.427,0,0,0-2.427-2.427" transform="translate(-62.847 -52.074)" fill="#fff"/>
    <path id="Path_94" data-name="Path 94" d="M141.514,93.2a2.427,2.427,0,0,0-2.427,2.427v13a2.427,2.427,0,1,0,4.854,0v-13a2.427,2.427,0,0,0-2.427-2.427" transform="translate(-77.714 -52.074)" fill="#fff"/>
  </g>
</svg>
