<?xml version="1.0" encoding="UTF-8"?><svg id="Warstwa_2" xmlns="http://www.w3.org/2000/svg" viewBox="0 0 141.73 141.73"><defs><style>.cls-1{fill:#fff;}.cls-2{fill:none;}</style></defs><g id="Warstwa_1-2"><rect class="cls-2" width="141.73" height="141.73"/><g><path class="cls-1" d="M128.51,35.99c0-8.59-4.16-26.27-19.9-31.71-1.31-.45-2.73,.24-3.18,1.55-.45,1.3,.24,2.73,1.54,3.18,13.05,4.51,16.52,19.55,16.54,26.93,0,.02,0,.04,0,.06,0,9.9-3.17,17.03-6.53,24.58-2.16,4.86-4.37,9.84-5.95,15.82-.75,2.83-1.36,5.89-1.75,9.26-2.88,33.02-11.64,46.62-17.21,48.2-.37,.1-.72,.16-1.06,.16-2.42,0-4.42-1.77-4.81-4.07-.05-.27-.08-.54-.08-.82,0-.12,0-.25-.03-.37l-5.68-37.8c-.56-4.86-4.65-8.51-9.55-8.51-5.51,0-8.4,4.06-9.32,7.48-.13,.49-.22,.97-.27,1.42l-5.64,37.43c-.02,.12-.03,.25-.03,.37,0,.34-.03,.67-.1,.98-.46,2.23-2.44,3.91-4.79,3.91-3.65,0-14.83-8.88-18.28-48.42-1.21-10.44-4.5-17.85-7.69-25.01-3.36-7.55-6.53-14.68-6.53-24.58,0-7.35,3.45-22.44,16.51-26.98,1.3-.45,1.99-1.88,1.54-3.18-.45-1.3-1.88-1.99-3.18-1.54-15.72,5.46-19.87,23.12-19.87,31.7,0,0,0,0,0,0,0,0,0,0,0,0,0,10.96,3.38,18.56,6.96,26.61,3.03,6.82,6.17,13.88,7.28,23.49,3.41,39.06,14.66,52.92,23.25,52.92,4.71,0,8.67-3.32,9.65-7.74,.14-.63,.22-1.29,.24-1.96l5.62-37.3s0-.07,.01-.1c0,0,.02-.19,.09-.48,.27-1.16,1.26-4.01,4.53-4.01,2.36,0,4.33,1.77,4.58,4.11,0,.03,0,.07,.01,.1l5.66,37.68c.01,.49,.07,.96,.15,1.43,.78,4.68,4.85,8.26,9.75,8.26,2.69,0,5.63-1.35,8.52-4.4,6.35-6.71,12.39-21.64,14.73-48.44,.41-3.51,1.08-6.67,1.91-9.6,1.47-5.16,3.44-9.61,5.38-13.96,3.58-8.05,6.96-15.65,6.96-26.62Z"/><path class="cls-1" d="M70.86,36.26c17.12,0,31.04-13.92,31.04-31.04,0-1.38-1.12-2.5-2.5-2.5-.09,0-.18,.02-.27,.03-.09,0-.18-.03-.27-.03-6.7,0-11.07,2.2-15.3,4.33-3.8,1.91-7.39,3.72-12.67,3.72s-8.93-1.81-12.77-3.73c-4.24-2.12-8.63-4.31-15.27-4.31-.09,0-.18,.02-.27,.03-.09,0-.18-.03-.27-.03-1.38,0-2.5,1.12-2.5,2.5,0,17.12,13.92,31.04,31.04,31.04Zm.03-20.5c6.47,0,10.77-2.16,14.92-4.25,3.37-1.69,6.57-3.3,10.96-3.7-1.31,13.14-12.43,23.44-25.91,23.44s-24.6-10.3-25.91-23.44c4.34,.4,7.56,2,10.94,3.69,4.19,2.09,8.53,4.26,15,4.26Z"/></g></g></svg>