<svg xmlns="http://www.w3.org/2000/svg" viewBox="0 0 132.16 155.89"><defs><style>.cls-1{fill:#fff;}</style></defs><g id="Warstwa_2" data-name="Warstwa 2"><g id="Warstwa_1-2" data-name="Warstwa 1"><path class="cls-1" d="M84.05,37.16a2.25,2.25,0,0,0-1.47,4.26c11.46,4,14.51,17.22,14.53,23.67h0v0c0,8.7-2.78,15-5.74,21.62a90.42,90.42,0,0,0-5.23,13.89,58,58,0,0,0-1.55,8.21c-1.13,12.94-3.44,23.87-6.68,31.59-2.56,6.07-5.63,10-8.43,10.8a3.44,3.44,0,0,1-.93.14,4.27,4.27,0,0,1-4.18-3.47,4.7,4.7,0,0,1-.08-.79,1.88,1.88,0,0,0,0-.34l-5-33.28A8.51,8.51,0,0,0,50.8,106c-4.78,0-7.39,3.42-8.25,6.62a10.14,10.14,0,0,0-.24,1.25l-5,32.95a2,2,0,0,0,0,.34,4.09,4.09,0,0,1-.09.85,4.27,4.27,0,0,1-4.17,3.4c-3.2,0-13-7.82-16-42.59-1.07-9.2-4-15.72-6.78-22C7.29,80.11,4.5,73.84,4.5,65.13c0-6.45,3-19.72,14.51-23.7a2.25,2.25,0,0,0,1.38-2.87,2.25,2.25,0,0,0-2.86-1.38C3.66,42,0,57.57,0,65.14,0,74.8,3,81.5,6.13,88.59c2.67,6,5.43,12.21,6.41,20.66,3,34.43,12.93,46.64,20.52,46.64A8.82,8.82,0,0,0,41.61,149a8.44,8.44,0,0,0,.21-1.73l5-32.84s0-.06,0-.1,0-.15.08-.41a4.07,4.07,0,0,1,3.94-3.49,4,4,0,0,1,4,3.58s0,.06,0,.09l5,33.17a1.37,1.37,0,0,0,0,.19.62.62,0,0,0,0,.13v.1l0,.44a.52.52,0,0,1,0,.11s0,.06,0,.09c0,.21.06.44.11.66v.08a8.77,8.77,0,0,0,8.53,6.78c2.52,0,5.13-1.35,7.54-3.89,3-3.22,5.67-8.17,7.82-14.72,2.46-7.51,4.2-16.92,5.16-28a52.12,52.12,0,0,1,1.76-8.71,91.64,91.64,0,0,1,4.66-12c3.15-7.09,6.13-13.79,6.13-23.46C101.61,57.56,97.94,42,84.05,37.16Z"/><path class="cls-1" d="M50.8,65.42A27.41,27.41,0,0,0,78.18,38a2.25,2.25,0,0,0-2.25-2.25l-.17,0h-.13l-.17,0c-5.91,0-9.76,1.94-13.49,3.82-3.35,1.68-6.5,3.26-11.14,3.26S43,41.28,39.61,39.59c-3.74-1.87-7.61-3.8-13.46-3.8l-.18,0h-.12l-.18,0A2.25,2.25,0,0,0,23.42,38,27.41,27.41,0,0,0,50.8,65.42Zm22.76-25a22.88,22.88,0,0,1-45.52,0c3.81.36,6.6,1.75,9.56,3.23,3.7,1.85,7.52,3.76,13.23,3.76s9.5-1.91,13.16-3.75C66.94,42.14,69.73,40.74,73.56,40.38Z"/><path class="cls-1" d="M125.05,8.06a2.81,2.81,0,0,1-.35.48,20,20,0,0,1-2.79,3.07,18.2,18.2,0,0,1-2.38,1.78,18.74,18.74,0,0,1,.83,2.86,19.47,19.47,0,0,1,.36,4.72,5.41,5.41,0,0,1-.58-.18,18.66,18.66,0,0,1-6.22-3.42A17.43,17.43,0,0,1,111.46,19a20.28,20.28,0,0,1-4.38,1.8v-.58a18.49,18.49,0,0,1,.45-4.11,17.7,17.7,0,0,1,.89-2.84,16.5,16.5,0,0,1-2.36-1.82,18.42,18.42,0,0,1-3-3.6c.18-.08.38-.13.56-.21a18.78,18.78,0,0,1,4.06-.83,15.71,15.71,0,0,1,3,0A18.73,18.73,0,0,1,114.13,0c.12.15.22.33.35.48a18,18,0,0,1,2,3.6,20,20,0,0,1,1,2.82,19.83,19.83,0,0,1,7.55,1.16Z"/><path class="cls-1" d="M81.16,7.22c-.08.1-.13.2-.21.3a10.78,10.78,0,0,1-1.72,1.9,12.14,12.14,0,0,1-1.47,1.12,11.15,11.15,0,0,1,.51,1.77,11.34,11.34,0,0,1,.23,2.92c-.13,0-.23-.08-.36-.1a11.49,11.49,0,0,1-2.33-1.07A9.24,9.24,0,0,1,74.31,13a13.16,13.16,0,0,1-1.52,1,11.11,11.11,0,0,1-2.71,1.11v-.38a11.75,11.75,0,0,1,.28-2.53,10.18,10.18,0,0,1,.55-1.75,10.91,10.91,0,0,1-1.44-1.14,11.52,11.52,0,0,1-1.88-2.23L68,7a11.08,11.08,0,0,1,2.51-.51,11.43,11.43,0,0,1,1.85,0,10.86,10.86,0,0,1,.63-1.73,11.44,11.44,0,0,1,1.55-2.48l.23.3A12.07,12.07,0,0,1,76,4.78a9.45,9.45,0,0,1,.58,1.75,16.45,16.45,0,0,1,1.85,0A9.2,9.2,0,0,1,81.16,7.22Z"/><path class="cls-1" d="M132.16,43.49c-.08.1-.13.21-.21.31a11.15,11.15,0,0,1-1.72,1.9,13.17,13.17,0,0,1-1.47,1.11,11.95,11.95,0,0,1,.74,4.7l-.36-.11a12,12,0,0,1-2.33-1.06,9.29,9.29,0,0,1-1.5-1.07,12,12,0,0,1-1.52,1,10.76,10.76,0,0,1-2.71,1.12v-.38a11.84,11.84,0,0,1,.28-2.54,10.18,10.18,0,0,1,.55-1.75,10.29,10.29,0,0,1-1.44-1.14,11.23,11.23,0,0,1-1.88-2.23c.13,0,.23-.07.36-.13a11.06,11.06,0,0,1,2.51-.5,11.43,11.43,0,0,1,1.85,0,11.12,11.12,0,0,1,.63-1.72,11.27,11.27,0,0,1,1.55-2.49l.23.31A11.75,11.75,0,0,1,127,41.06a9.21,9.21,0,0,1,.58,1.75,14.39,14.39,0,0,1,1.85,0A8.6,8.6,0,0,1,132.16,43.49Z"/></g></g></svg>