<svg id="Group_244" data-name="Group 244" xmlns="http://www.w3.org/2000/svg" xmlns:xlink="http://www.w3.org/1999/xlink" width="115.992" height="136.998" viewBox="0 0 115.992 136.998">
  <defs>
    <clipPath id="clip-path">
      <rect id="Rectangle_127" data-name="Rectangle 127" width="115.992" height="136.997" fill="none" stroke="#fff" stroke-width="5"/>
    </clipPath>
  </defs>
  <g id="Group_243" data-name="Group 243" clip-path="url(#clip-path)">
    <path id="Path_74" data-name="Path 74" d="M124.422,6.51c-12.13,0-16.147,8.044-27.973,8.044s-16-8.044-28.035-8.044" transform="translate(-38.422 -3.656)" fill="none" stroke="#fff" stroke-linecap="round" stroke-linejoin="round" stroke-width="5"/>
    <path id="Path_75" data-name="Path 75" d="M6.51,76.706c0,19.754,11.762,28.563,14.231,49.881,3.3,37.828,14.117,50.635,20.762,50.635a7.4,7.4,0,0,0,7.394-7.394l5.644-37.472c.132-1.207,1.451-6.718,7.111-6.718a7.111,7.111,0,0,1,7.069,6.34l5.685,37.849a7.4,7.4,0,0,0,7.394,7.394c6.732,0,17.435-12.476,20.762-50.635,2.469-21.318,14.231-30.127,14.231-49.881" transform="translate(-3.656 -43.079)" fill="none" stroke="#fff" stroke-linecap="round" stroke-linejoin="round" stroke-width="5"/>
    <path id="Path_76" data-name="Path 76" d="M124.422,6.51c-12.13,0-16.147,8.044-27.973,8.044s-16-8.044-28.035-8.044" transform="translate(-38.422 -3.656)" fill="none" stroke="#fff" stroke-linecap="round" stroke-linejoin="round" stroke-width="5"/>
    <path id="Path_77" data-name="Path 77" d="M24.7,9.763C11.086,14.491,6.511,29.828,6.511,39.1c0,19.754,11.762,28.563,14.231,49.881,3.3,37.828,14.117,50.635,20.762,50.635a7.4,7.4,0,0,0,7.395-7.394l5.644-37.472c.132-1.207,1.451-6.718,7.11-6.718a7.111,7.111,0,0,1,7.069,6.34l5.686,37.85A7.394,7.394,0,0,0,81.8,139.62c6.732,0,17.435-12.475,20.762-50.635C105.032,67.668,116.8,58.858,116.8,39.1c0-9.283-4.582-24.635-18.221-29.351" transform="translate(-3.657 -5.477)" fill="none" stroke="#fff" stroke-linecap="round" stroke-linejoin="round" stroke-width="5"/>
    <path id="Path_78" data-name="Path 78" d="M124.271,6.51a28.541,28.541,0,0,1-57.082,0" transform="translate(-37.734 -3.656)" fill="none" stroke="#fff" stroke-linecap="round" stroke-linejoin="round" stroke-width="5"/>
  </g>
</svg>
