<svg id="Group_290" data-name="Group 290" xmlns="http://www.w3.org/2000/svg" xmlns:xlink="http://www.w3.org/1999/xlink" width="139.359" height="138.065" viewBox="0 0 139.359 138.065">
  <defs>
    <clipPath id="clip-path">
      <rect id="Rectangle_167" data-name="Rectangle 167" width="139.359" height="138.065" fill="#fff"/>
    </clipPath>
  </defs>
  <g id="Group_289" data-name="Group 289" clip-path="url(#clip-path)">
    <path id="Path_115" data-name="Path 115" d="M97.619,61.313,76.226,65.1a1.506,1.506,0,0,0,.427,2.979L96.2,65.948l4.663,19.585a2.242,2.242,0,0,0,.592,1.059l23.224,23.223a8.021,8.021,0,0,0,1.346,9.528l42.991,42.989a2.226,2.226,0,0,0,3.144,0l8.188-8.188a2.225,2.225,0,0,0,0-3.144L137.358,108.01a8.021,8.021,0,0,0-9.528-1.346L105.053,83.887l-5-20.983h0a2.125,2.125,0,0,0-2.436-1.59m36.594,49.841,41.418,41.417-5.044,5.044L129.17,116.2a3.575,3.575,0,0,1-.034-5.01.339.339,0,0,0,.056-.054,3.577,3.577,0,0,1,5.022.02" transform="translate(-41.64 -34.03)" fill="#fff"/>
    <path id="Path_116" data-name="Path 116" d="M98.005,105.969A2.36,2.36,0,0,0,94,107.079c-4.8,20.849-12.108,26.094-15.182,26.094a5.061,5.061,0,0,1-5.055-5.017,3.335,3.335,0,0,0-.027-.4l-5.76-38.348a9.645,9.645,0,0,0-9.6-8.559c-6.324,0-9.221,5.326-9.638,8.941l-5.719,37.964a2.441,2.441,0,0,0-.027.365,5.061,5.061,0,0,1-5.055,5.054c-2.256,0-5.967-2.61-9.614-9.936-3.093-6.214-7.167-18.057-9.01-39.192,0-.023,0-.046-.007-.069C18.086,73.4,14.747,65.892,11.519,58.63,8.111,50.964,4.892,43.724,4.892,33.66c0-8,4.506-28.769,25.081-28.769,5.554,0,9.3,1.869,13.261,3.849l.374.186a2.882,2.882,0,0,0,1.04,1.173c.668.428,1.267.783,1.9,1.155s1.251.723,1.884,1.064q1.89,1.044,3.824,1.986a85.952,85.952,0,0,0,7.911,3.4,64.2,64.2,0,0,0,8.315,2.414,39.945,39.945,0,0,0,8.709.809,1.456,1.456,0,0,0,1.343-1.9,1.43,1.43,0,0,0-1.29-.992l-.053,0a36.751,36.751,0,0,1-7.831-1.425A60.267,60.267,0,0,1,61.831,13.7c-.494-.233-.984-.476-1.473-.72,5.482-.382,9.374-2.332,13.146-4.23,3.944-1.984,7.67-3.858,13.281-3.858,20.576,0,25.082,20.767,25.082,28.769,0,10.064-3.219,17.3-6.627,24.97-1.57,3.53-3.163,7.123-4.528,11.094a1.928,1.928,0,0,0,.523,2.04,2.669,2.669,0,0,0,4.326-1.08c1.261-3.57,2.716-6.844,4.148-10.066,3.625-8.154,7.049-15.855,7.049-26.957a39.646,39.646,0,0,0-6.331-21.175C104.982,4.317,96.806,0,86.785,0c-6.772,0-11.2,2.227-15.479,4.379C67.441,6.323,63.79,8.16,58.411,8.16A22.7,22.7,0,0,1,48.833,6c-.293-.213-.58-.426-.839-.626l-.016-.013c-.065-.05-.133-.1-.2-.143a2.873,2.873,0,0,0-1.021-.406l-1.146-.355C41.252,2.284,36.778,0,29.973,0,19.952,0,11.776,4.317,6.33,12.485A39.645,39.645,0,0,0,0,33.66c0,11.1,3.424,18.8,7.049,26.957,3.076,6.918,6.256,14.072,7.4,23.887,1.513,17.318,4.8,31.464,9.5,40.913,5.478,11,11.118,12.648,13.992,12.648a9.958,9.958,0,0,0,9.944-9.751l5.7-37.841c0-.033.009-.066.013-.1s.554-4.634,4.781-4.634a4.761,4.761,0,0,1,4.739,4.25c0,.033.008.065.012.1l5.742,38.225a9.958,9.958,0,0,0,9.944,9.751c6.627,0,14.815-8.177,19.855-29.633A2.679,2.679,0,0,0,98.005,105.969Z" fill="#fff"/>
    <path id="Path_117" data-name="Path 117" d="M58.268,69.551a4.343,4.343,0,1,1-4.343-4.343,4.343,4.343,0,0,1,4.343,4.343" transform="translate(-27.534 -36.211)" fill="#fff"/>
  </g>
</svg>
