<?xml version="1.0" encoding="UTF-8"?><svg id="Warstwa_2" xmlns="http://www.w3.org/2000/svg" viewBox="0 0 141.73 141.73"><defs><style>.cls-1{fill:#fff;}.cls-2{fill:none;}</style></defs><g id="Warstwa_1-2"><rect class="cls-2" width="141.73" height="141.73"/><g id="Group_279"><path id="Path_100" class="cls-1" d="M122.58,14.68c-5.41-8.11-13.53-12.4-23.49-12.4-6.72,0-11.12,2.21-15.38,4.35-3.84,1.93-7.47,3.76-12.81,3.76-3.29-.01-6.54-.74-9.51-2.14-.29-.21-.58-.42-.83-.62h-.02c-.06-.06-.13-.11-.2-.16-.46-.3-1-.45-1.54-.45l-.8-.4c-4.27-2.13-8.68-4.33-15.35-4.33-9.96,0-18.08,4.29-23.49,12.4-4.05,6.28-6.23,13.57-6.29,21.04,0,11.03,3.4,18.68,7,26.78,3.06,6.87,6.22,13.98,7.35,23.73,1.5,17.21,4.77,31.26,9.44,40.65,5.44,10.93,11.05,12.57,13.9,12.57,5.38,0,9.77-4.31,9.88-9.69l5.66-37.6s0-.07,.01-.1,.55-4.6,4.75-4.6c2.42,0,4.45,1.82,4.71,4.22,0,.03,0,.07,.01,.1l5.7,37.98c.11,5.38,4.5,9.68,9.88,9.69,8.62,0,19.91-13.94,23.34-53.21,1.13-9.75,4.29-16.86,7.35-23.73,3.6-8.1,7-15.75,7-26.78-.06-7.47-2.24-14.76-6.29-21.04m-5.15,45.85c-3.21,7.22-6.53,14.68-7.74,25.18,0,.02,0,.05,0,.07-3.49,40.04-14.54,48.81-18.5,48.81-2.77,0-5.02-2.25-5.02-5.02,0-.12,0-.24-.03-.36l-5.72-38.1c-.55-4.85-4.65-8.51-9.53-8.5-6.28,0-9.16,5.29-9.58,8.88l-5.68,37.72c-.02,.12-.03,.24-.03,.36,0,2.77-2.25,5.02-5.02,5.02-2.24,0-5.93-2.59-9.55-9.87-3.07-6.17-7.12-17.94-8.95-38.94,0-.02,0-.05,0-.07-1.22-10.51-4.53-17.97-7.74-25.18-3.38-7.62-6.58-14.81-6.58-24.81,0-7.95,4.48-28.58,24.92-28.58,5.52,0,9.24,1.86,13.18,3.82l.37,.19c.23,.48,.59,.88,1.03,1.16,.66,.43,1.26,.78,1.89,1.15s1.24,.72,1.87,1.06c1.25,.69,2.52,1.35,3.8,1.97,2.56,1.26,5.19,2.39,7.86,3.38,2.7,.99,5.46,1.79,8.26,2.4,2.85,.58,5.75,.85,8.65,.8,.79-.02,1.42-.68,1.4-1.47-.02-.75-.6-1.36-1.35-1.4h-.05c-2.64-.19-5.25-.66-7.78-1.42-2.56-.8-5.05-1.77-7.48-2.9-.49-.23-.98-.47-1.46-.72,5.45-.38,9.31-2.32,13.06-4.2,3.92-1.97,7.62-3.83,13.2-3.83,20.44,0,24.92,20.63,24.92,28.58,0,10-3.2,17.19-6.58,24.81"/><path id="Path_101" class="cls-1" d="M56.27,36.22c.05-.06,.09-.13,.13-.19,.04-.06,.07-.12,.1-.18,.03-.07,.06-.13,.09-.2,.03-.07,.05-.14,.07-.21,.02-.07,.03-.13,.04-.2,.01-.08,.02-.16,.02-.24,0-.04,.01-.08,.01-.12s0-.05,0-.08c0-.08-.01-.16-.02-.23-.01-.07-.02-.14-.04-.2-.02-.07-.04-.14-.07-.21-.02-.07-.05-.13-.07-.2s-.07-.12-.1-.19-.07-.12-.11-.18-.09-.11-.13-.16c-.05-.06-.1-.11-.16-.17-.02-.02-.04-.04-.06-.06s-.07-.04-.1-.07c-.06-.05-.13-.09-.19-.13-.06-.04-.12-.07-.18-.1-.07-.03-.13-.06-.2-.09-.07-.03-.14-.05-.21-.07s-.13-.03-.2-.04c-.08-.01-.16-.02-.24-.02-.04,0-.08-.01-.12-.01h-14.84c-1.22,0-2.21,.99-2.21,2.21,0,1.22,.99,2.21,2.21,2.21h10.04l-11.71,13.65s-.04,.07-.07,.1c-.05,.06-.09,.13-.13,.19-.04,.06-.07,.12-.1,.18-.03,.07-.06,.13-.09,.2-.03,.07-.05,.14-.06,.21s-.03,.13-.04,.2c-.01,.08-.02,.16-.02,.24,0,.04-.01,.08-.01,.12s0,.05,0,.08c0,.08,.01,.16,.02,.23,0,.07,.02,.14,.03,.2,.02,.07,.04,.14,.06,.21,.02,.07,.05,.13,.08,.2s.06,.12,.1,.19,.07,.12,.12,.18,.08,.11,.13,.16c.05,.06,.1,.12,.16,.17,.02,.02,.03,.04,.06,.06s.08,.05,.11,.08,.1,.08,.15,.11c.07,.04,.14,.08,.21,.11,.05,.03,.1,.05,.16,.07,.08,.03,.17,.06,.25,.08,.05,.01,.09,.03,.14,.04,.14,.03,.27,.04,.41,.04h14.85c1.22,0,2.21-.99,2.21-2.21,0-1.22-.99-2.21-2.21-2.21h-10.04l11.71-13.65s.04-.07,.07-.1"/><path id="Path_102" class="cls-1" d="M80.12,49.14c.05-.06,.09-.13,.13-.19,.04-.06,.07-.12,.1-.18,.03-.07,.06-.13,.09-.2,.03-.07,.05-.14,.07-.21,.02-.07,.03-.13,.04-.2,.01-.08,.02-.16,.02-.24,0-.04,.01-.08,.01-.12s0-.05,0-.08c0-.08-.01-.16-.02-.23,0-.07-.02-.14-.04-.2-.02-.07-.04-.14-.07-.21-.02-.07-.05-.13-.07-.2s-.07-.12-.1-.19-.07-.12-.12-.18-.09-.11-.13-.16c-.05-.06-.1-.11-.16-.17-.02-.02-.04-.04-.06-.06s-.07-.04-.1-.07c-.06-.05-.12-.09-.19-.13-.06-.04-.12-.07-.18-.1s-.13-.06-.2-.09-.14-.05-.21-.07-.13-.03-.2-.04c-.08-.01-.16-.02-.24-.02-.04,0-.08-.01-.12-.01h-12.37c-1.22,0-2.21,.99-2.21,2.21,0,1.22,.99,2.21,2.21,2.21h7.57l-9.24,10.77s-.04,.07-.07,.1c-.05,.06-.09,.13-.13,.19-.04,.06-.07,.12-.1,.18-.03,.07-.06,.13-.09,.2-.03,.07-.05,.14-.07,.21-.02,.07-.03,.13-.04,.2-.01,.08-.02,.16-.02,.24,0,.04-.01,.08-.01,.12s0,.05,0,.08c0,.08,.01,.16,.02,.23,.01,.07,.02,.14,.04,.2s.04,.14,.06,.21,.05,.13,.08,.2c.03,.06,.06,.13,.1,.19,.03,.06,.07,.12,.11,.18,.04,.06,.09,.11,.13,.16,.05,.06,.1,.11,.16,.17,.02,.02,.04,.04,.06,.06s.07,.05,.11,.08,.1,.07,.15,.11c.07,.04,.14,.08,.21,.11,.05,.03,.1,.05,.16,.07,.08,.03,.17,.06,.25,.08,.05,.01,.09,.03,.14,.04,.14,.03,.27,.04,.41,.04h12.37c1.22,0,2.21-.99,2.21-2.21,0-1.22-.99-2.21-2.21-2.21h-7.57l9.24-10.77s.04-.07,.07-.1"/><path id="Path_103" class="cls-1" d="M101.29,59.56c.05-.06,.09-.13,.13-.19,.04-.06,.07-.12,.1-.18,.03-.07,.06-.13,.09-.2,.03-.07,.05-.14,.07-.21,.02-.07,.03-.13,.04-.2,.01-.08,.02-.16,.02-.24,0-.04,.01-.08,.01-.12s0-.05,0-.08c0-.08-.01-.16-.02-.23,0-.07-.02-.14-.04-.2s-.04-.14-.06-.21-.05-.13-.08-.2-.07-.12-.1-.19c-.04-.06-.07-.12-.12-.18-.04-.06-.09-.11-.13-.16-.05-.06-.1-.12-.16-.17-.02-.02-.04-.04-.06-.06s-.07-.04-.1-.07c-.06-.05-.13-.09-.19-.13-.06-.04-.12-.07-.18-.1s-.13-.06-.2-.09-.14-.05-.21-.07c-.07-.02-.13-.03-.2-.04-.08-.01-.16-.02-.24-.02-.04,0-.08-.01-.12-.01h-9.72c-1.22,0-2.21,.99-2.21,2.21,0,1.22,.99,2.21,2.21,2.21h4.91l-6.59,7.68s-.04,.07-.07,.1c-.05,.06-.09,.13-.13,.19-.04,.06-.07,.12-.1,.18-.03,.07-.06,.13-.09,.2-.03,.07-.05,.14-.07,.21-.02,.07-.03,.13-.04,.2-.01,.08-.02,.16-.02,.24,0,.04-.01,.08-.01,.12s0,.05,0,.08c0,.08,.01,.16,.02,.23,0,.07,.02,.14,.04,.2s.04,.14,.07,.21,.05,.13,.08,.2c.03,.06,.06,.13,.1,.19,.04,.06,.07,.12,.11,.18s.09,.11,.13,.16c.05,.06,.1,.11,.16,.17,.02,.02,.04,.04,.06,.06s.07,.05,.11,.08,.1,.08,.15,.11c.07,.04,.14,.08,.21,.11,.05,.02,.1,.05,.16,.07,.08,.03,.17,.06,.25,.08,.05,.01,.09,.03,.14,.04,.14,.03,.27,.04,.41,.04h9.72c1.22,0,2.21-.99,2.21-2.21,0-1.22-.99-2.21-2.21-2.21h-4.91l6.59-7.68s.04-.07,.07-.1"/></g></g></svg>