<?xml version="1.0" encoding="UTF-8"?><svg id="Warstwa_2" xmlns="http://www.w3.org/2000/svg" viewBox="0 0 141.73 141.73"><defs><style>.cls-1{fill:#fff;}.cls-2{fill:none;}</style></defs><g id="Warstwa_1-2"><rect class="cls-2" width="141.73" height="141.73"/><g><path class="cls-1" d="M122.51,14.76h0c-5.4-8.11-13.52-12.39-23.46-12.39-6.72,0-11.12,2.21-15.36,4.35-3.83,1.93-7.46,3.75-12.8,3.75-2.62,0-5.21-.47-7.66-1.4-.07-.05-.14-.1-.21-.15-.38-.24-.8-.39-1.24-.43-1.28-.55-2.52-1.16-3.77-1.79-4.26-2.13-8.67-4.33-15.33-4.33-9.94,0-18.06,4.28-23.46,12.39-4.04,6.27-6.22,13.55-6.28,21.01,0,11.02,3.4,18.66,6.99,26.75,3.05,6.86,6.21,13.97,7.34,23.7,1.5,17.18,4.76,31.22,9.43,40.6,5.44,10.92,11.04,12.55,13.89,12.55,5.37,0,9.76-4.3,9.87-9.67l5.66-37.55s0-.07,.01-.1c0-.03,.55-4.6,4.74-4.6,2.41,0,4.44,1.82,4.7,4.22,0,.03,0,.07,.01,.1l5.7,37.93c.11,5.37,4.5,9.67,9.87,9.68,8.61,0,19.89-13.92,23.31-53.15,1.13-9.74,4.29-16.84,7.34-23.7,3.6-8.09,7-15.73,7-26.75-.06-7.46-2.24-14.75-6.28-21.01Zm-5.15,45.79c-3.2,7.21-6.52,14.66-7.73,25.15,0,.02,0,.05,0,.07-3.49,39.99-14.52,48.75-18.48,48.75-2.77,0-5.01-2.25-5.02-5.02,0-.12,0-.24-.03-.36l-5.72-38.05c-.55-4.84-4.65-8.5-9.52-8.49-6.28,0-9.15,5.29-9.56,8.87l-5.67,37.67c-.02,.12-.03,.24-.03,.36,0,2.77-2.25,5.01-5.02,5.02-2.24,0-5.92-2.59-9.54-9.86-3.07-6.17-7.11-17.92-8.94-38.89,0-.02,0-.04,0-.07-1.22-10.49-4.53-17.94-7.73-25.15-3.38-7.61-6.58-14.79-6.58-24.78,0-7.94,4.47-28.55,24.89-28.55,5.51,0,9.23,1.85,13.16,3.82,.98,.49,1.98,.99,3.01,1.46,.23,.53,.61,.97,1.09,1.28,.61,.39,1.16,.71,1.73,1.05,.58,.34,1.14,.65,1.72,.96,1.15,.63,2.31,1.22,3.48,1.79,2.35,1.14,4.75,2.17,7.2,3.07,2.47,.89,5,1.61,7.57,2.17,2.61,.52,5.27,.76,7.93,.71,.79-.02,1.42-.68,1.4-1.47-.02-.75-.6-1.36-1.35-1.4h-.05c-2.39-.18-4.76-.62-7.06-1.32-2.32-.73-4.59-1.62-6.79-2.66-.94-.45-1.87-.93-2.79-1.42,5.39-.4,9.22-2.32,12.95-4.19,3.91-1.97,7.61-3.83,13.18-3.83,20.42,0,24.88,20.61,24.88,28.54,0,9.99-3.19,17.17-6.58,24.78h0Z"/><path class="cls-1" d="M102.96,45.12c-1.35-2.24-3.33-4.04-5.69-5.15-2.37-1.12-5.03-1.48-7.62-1.04l-.25,.05c-.23,.05-.47,.09-.7,.15l-.94,.26c-.48,.15-.98,.3-1.48,.44-1.08,.3-2.07,.56-3.02,.77-8.14,1.84-16.59,1.83-24.72-.03-.93-.21-1.92-.46-3.02-.77-.48-.13-.96-.28-1.44-.43l-.05-.02-.95-.26c-.22-.05-.47-.1-.73-.15l-.22-.04c-.7-.12-1.42-.18-2.13-.18-1.9,0-3.77,.42-5.49,1.22-2.38,1.12-4.37,2.91-5.73,5.16-1.37,2.27-1.99,4.92-1.77,7.57,.11,1.31,.42,2.59,.92,3.8,.1,.26,.18,.45,.26,.63l1.07,2.4c.82,1.85,1.59,3.77,2.37,5.87,1.45,3.95,2.63,8,3.53,12.12,.88,4.12,1.48,8.29,1.78,12.49,.08,.78,.11,1.58,.15,2.36,.01,.27,.02,.53,.03,.79l.07,1.57,.03,1.61c.04,2.39,.04,4.49,.02,6.4-.02,1.74-.09,3.52-.15,5.18-.23,2.94-.45,5.86-.66,8.77-.06,.82,.55,1.54,1.37,1.6,.79,.06,1.5-.51,1.6-1.3l.09-.67,.03-.08c.05-.11,.08-.23,.11-.35l.25-1.63c.08-.49,.14-.98,.21-1.47l.02-.14c.13-.97,.25-2,.39-3.25,.12-1.02,.22-2.09,.31-3.29l.15-1.15c.09-.74,.19-1.49,.28-2.23l1.62-13.42,.14-.76c.8-4.25,2.98-8.12,6.2-11.02,1.59-1.41,3.42-2.51,5.42-3.24,2.02-.73,4.14-1.11,6.28-1.12,4.32,.02,8.49,1.58,11.75,4.41,1.62,1.4,2.98,3.06,4.03,4.92,.16,.27,.3,.55,.43,.83,.09,.19,.18,.37,.27,.55,.15,.31,.28,.63,.4,.96,.07,.18,.13,.35,.21,.53,.09,.21,.16,.43,.22,.65l.26,.91c.08,.27,.15,.54,.19,.82l.22,1.16,.8,6.7c.18,1.54,.37,3.07,.56,4.6,.11,.85,.21,1.69,.32,2.54,.25,2.07,.51,4.14,.78,6.21l.05,.47c.13,1.14,.28,2.28,.42,3.24l.08,.54,.5,3.81c.11,.82,.86,1.39,1.68,1.28,.36-.05,.7-.23,.93-.5,.26-.3,.39-.69,.36-1.09l-.08-1.11v-.05l-.2-3.2-.15-3.2c-.1-2.2-.14-4.38-.16-6.4-.03-2.06-.02-4.21,.02-6.4,.03-1.25,.06-2.26,.1-3.18,.02-.37,.03-.75,.04-1.12,.02-.66,.05-1.35,.1-2.03,.44-8.42,2.15-16.72,5.07-24.63,.61-1.71,1.34-3.53,2.36-5.89l1.31-3c.5-1.2,.82-2.48,.94-3.78,.24-2.63-.37-5.27-1.72-7.54v-.02Zm-2.68,7.14h0c-.08,.85-.29,1.69-.62,2.49l-.3,.7-.98,2.23c-1.05,2.44-1.81,4.33-2.46,6.13-1.91,5.22-3.34,10.61-4.27,16.09l-.32,1.86-.92-1.65c-1.25-2.27-2.89-4.3-4.86-5.99-4.09-3.5-9.3-5.43-14.69-5.42-2.67,0-5.31,.45-7.83,1.34-2.53,.91-4.86,2.29-6.87,4.07-1.94,1.72-3.56,3.77-4.79,6.05l-.92,1.67-.31-1.88c-.93-5.5-2.35-10.91-4.23-16.16-.74-2.03-1.58-4.1-2.48-6.14l-1.06-2.37c-.09-.21-.18-.42-.23-.56-.32-.78-.52-1.6-.59-2.44-.14-1.69,.25-3.38,1.13-4.83,.89-1.48,2.19-2.66,3.74-3.4,1.55-.74,3.3-.99,5-.7l.66,.13,.59,.16c.56,.17,1.09,.33,1.63,.48,1.18,.33,2.24,.6,3.26,.82,8.79,1.95,17.89,1.94,26.68-.03,1.03-.23,2.09-.5,3.26-.83,.54-.15,1.08-.32,1.61-.48l.62-.17c.14-.03,.26-.06,.38-.08,.08-.01,.16-.03,.24-.05,1.71-.31,3.48-.07,5.05,.68,1.57,.74,2.88,1.93,3.77,3.41,.87,1.47,1.26,3.17,1.12,4.88Z"/></g></g></svg>