<svg id="Group_280" data-name="Group 280" xmlns="http://www.w3.org/2000/svg" xmlns:xlink="http://www.w3.org/1999/xlink" width="116.003" height="137.172" viewBox="0 0 116.003 137.172">
  <defs>
    <clipPath id="clip-path">
      <rect id="Rectangle_162" data-name="Rectangle 162" width="116.004" height="137.172" fill="#fff"/>
    </clipPath>
  </defs>
  <g id="Group_279" data-name="Group 279" clip-path="url(#clip-path)">
    <path id="Path_100" data-name="Path 100" d="M109.714,12.4C104.3,4.29,96.181,0,86.224,0,79.5,0,75.1,2.212,70.845,4.351c-3.84,1.932-7.467,3.756-12.812,3.756a22.545,22.545,0,0,1-9.515-2.145c-.292-.212-.577-.423-.834-.622l-.016-.013c-.065-.049-.132-.1-.2-.142a2.863,2.863,0,0,0-1.543-.453l-.8-.4C40.857,2.2,36.443,0,29.78,0,19.823,0,11.7,4.29,6.29,12.4A39.389,39.389,0,0,0,0,33.443c0,11.03,3.4,18.682,7,26.783C10.06,67.1,13.22,74.207,14.354,83.958c1.5,17.206,4.767,31.261,9.439,40.648,5.443,10.933,11.046,12.566,13.9,12.566a9.893,9.893,0,0,0,9.88-9.687l5.664-37.6c0-.033.009-.066.013-.1s.551-4.6,4.75-4.6a4.73,4.73,0,0,1,4.708,4.223c0,.033.008.065.013.1l5.705,37.978a9.894,9.894,0,0,0,9.88,9.688c8.625,0,19.911-13.939,23.342-53.214,1.134-9.751,4.294-16.859,7.35-23.733,3.6-8.1,7-15.753,7-26.783a39.385,39.385,0,0,0-6.29-21.038m-5.155,45.847c-3.208,7.216-6.525,14.676-7.741,25.182,0,.023-.005.046-.007.068-3.491,40.042-14.54,48.811-18.5,48.811a5.028,5.028,0,0,1-5.022-5.022,2.4,2.4,0,0,0-.027-.361l-5.723-38.1A9.582,9.582,0,0,0,58,80.327c-6.283,0-9.161,5.292-9.576,8.883l-5.682,37.719a2.425,2.425,0,0,0-.027.362,5.028,5.028,0,0,1-5.022,5.022c-2.242,0-5.928-2.593-9.551-9.872-3.074-6.174-7.121-17.941-8.952-38.939,0-.023,0-.046-.007-.068-1.217-10.506-4.534-17.967-7.742-25.182C8.058,50.635,4.86,43.441,4.86,33.443c0-7.95,4.477-28.583,24.92-28.583,5.517,0,9.237,1.857,13.175,3.825l.372.185a2.859,2.859,0,0,0,1.033,1.165c.664.425,1.259.778,1.887,1.148s1.243.717,1.872,1.057q1.877,1.037,3.8,1.973a85.293,85.293,0,0,0,7.86,3.383,63.694,63.694,0,0,0,8.261,2.4,39.656,39.656,0,0,0,8.652.8,1.438,1.438,0,0,0,.053-2.873l-.053,0a36.523,36.523,0,0,1-7.781-1.416,59.809,59.809,0,0,1-7.479-2.9c-.491-.232-.978-.473-1.464-.715,5.446-.38,9.314-2.317,13.061-4.2,3.919-1.971,7.621-3.833,13.2-3.833,20.443,0,24.919,20.633,24.919,28.583,0,10-3.2,17.192-6.584,24.808" fill="#fff"/>
    <path id="Path_101" data-name="Path 101" d="M74.5,72.347a2.061,2.061,0,0,0,.133-.192c.037-.06.069-.121.1-.183a2.156,2.156,0,0,0,.086-.2,2.119,2.119,0,0,0,.065-.209,2.056,2.056,0,0,0,.044-.2,2.1,2.1,0,0,0,.023-.235c0-.04.012-.078.012-.119s-.007-.053-.008-.08a2.153,2.153,0,0,0-.023-.232c-.01-.068-.019-.136-.035-.2a2.154,2.154,0,0,0-.065-.207c-.023-.067-.046-.134-.075-.2s-.066-.125-.1-.187-.072-.124-.115-.182-.086-.107-.131-.159a2.129,2.129,0,0,0-.16-.168c-.02-.019-.035-.041-.056-.059s-.067-.044-.1-.069a2.06,2.06,0,0,0-.192-.133c-.06-.037-.121-.069-.183-.1a2.112,2.112,0,0,0-.2-.086c-.069-.026-.139-.047-.21-.065s-.133-.032-.2-.043a2.231,2.231,0,0,0-.236-.024c-.04,0-.077-.012-.118-.012H57.913a2.209,2.209,0,1,0,0,4.418H67.951L56.237,86.867c-.027.031-.045.067-.069.1a2.155,2.155,0,0,0-.134.192c-.037.06-.069.121-.1.183a2.113,2.113,0,0,0-.087.2c-.026.069-.046.139-.065.209s-.032.133-.043.2a2.2,2.2,0,0,0-.024.235c0,.04-.012.078-.012.118s.007.053.008.08a2.271,2.271,0,0,0,.023.233c.01.068.019.136.035.2a2.111,2.111,0,0,0,.064.207c.023.068.046.134.076.2s.065.125.1.186.073.125.115.184.085.106.131.158a2.234,2.234,0,0,0,.161.169c.02.019.035.041.056.059s.075.051.111.079.1.076.154.11a2.247,2.247,0,0,0,.207.113c.052.025.1.052.156.073a2.165,2.165,0,0,0,.253.078c.047.012.093.028.142.038a2.22,2.22,0,0,0,.414.042H72.758a2.209,2.209,0,0,0,0-4.418H62.72l11.715-13.65c.027-.031.044-.067.069-.1" transform="translate(-31.093 -38.402)" fill="#fff"/>
    <path id="Path_102" data-name="Path 102" d="M131.6,101.585a2.064,2.064,0,0,0,.133-.192c.037-.06.069-.121.1-.183a2.159,2.159,0,0,0,.086-.2,2.115,2.115,0,0,0,.065-.209,2.055,2.055,0,0,0,.044-.2,2.091,2.091,0,0,0,.023-.235c0-.04.012-.078.012-.119s-.008-.053-.008-.08a2.157,2.157,0,0,0-.023-.232c-.01-.068-.019-.136-.035-.2a2.151,2.151,0,0,0-.065-.207c-.023-.067-.046-.134-.075-.2s-.066-.125-.1-.187-.072-.124-.115-.182-.086-.107-.131-.159a2.131,2.131,0,0,0-.16-.168c-.02-.019-.035-.041-.056-.059s-.067-.044-.1-.069a2.115,2.115,0,0,0-.191-.133c-.061-.037-.122-.07-.185-.1s-.13-.06-.2-.086-.14-.047-.212-.066-.131-.032-.2-.043a2.264,2.264,0,0,0-.238-.024c-.039,0-.076-.012-.116-.012H117.486a2.209,2.209,0,1,0,0,4.418h7.564l-9.24,10.767c-.027.031-.044.067-.069.1a2.188,2.188,0,0,0-.133.192c-.037.06-.069.121-.1.183a2.158,2.158,0,0,0-.086.2,2.094,2.094,0,0,0-.065.21c-.018.066-.032.133-.044.2a2.21,2.21,0,0,0-.023.235c0,.04-.012.078-.012.119s.007.053.008.08a2.172,2.172,0,0,0,.023.233c.01.068.019.136.035.2s.041.138.064.207.046.134.076.2a2.013,2.013,0,0,0,.1.187,2.045,2.045,0,0,0,.114.183c.04.055.086.107.131.159a2.217,2.217,0,0,0,.16.168c.02.019.035.041.056.059s.075.052.112.08.1.075.153.109a2.26,2.26,0,0,0,.208.113c.052.025.1.052.156.073a2.166,2.166,0,0,0,.253.079c.047.012.093.028.141.038a2.224,2.224,0,0,0,.414.042h12.372a2.209,2.209,0,1,0,0-4.418h-7.564l9.24-10.767c.027-.031.044-.067.069-.1" transform="translate(-64.347 -54.723)" fill="#fff"/>
    <path id="Path_103" data-name="Path 103" d="M182.867,125.165a2.06,2.06,0,0,0,.133-.192c.037-.06.069-.121.1-.183a2.16,2.16,0,0,0,.086-.2,2.123,2.123,0,0,0,.065-.209,2.052,2.052,0,0,0,.044-.2,2.1,2.1,0,0,0,.023-.235c0-.04.012-.078.012-.119s-.007-.053-.008-.08a2.157,2.157,0,0,0-.023-.232c-.01-.068-.019-.136-.035-.2s-.041-.138-.064-.207-.046-.134-.076-.2-.065-.125-.1-.186a2.124,2.124,0,0,0-.115-.183c-.04-.055-.085-.106-.131-.159a2.229,2.229,0,0,0-.161-.169c-.02-.019-.035-.041-.056-.059s-.066-.044-.1-.068a2.139,2.139,0,0,0-.193-.134c-.06-.037-.12-.069-.182-.1s-.132-.061-.2-.087-.138-.046-.209-.065a2.059,2.059,0,0,0-.2-.044,2.218,2.218,0,0,0-.235-.024c-.04,0-.078-.012-.118-.012H171.4a2.209,2.209,0,0,0,0,4.418h4.913l-6.59,7.678c-.027.031-.044.067-.069.1a2.12,2.12,0,0,0-.133.192c-.037.06-.069.121-.1.183a2.161,2.161,0,0,0-.086.2,2.117,2.117,0,0,0-.065.209c-.018.067-.032.133-.044.2a2.2,2.2,0,0,0-.023.235c0,.04-.012.078-.012.119s.007.053.008.08a2.157,2.157,0,0,0,.023.232c.01.068.019.136.035.2s.041.138.065.207.046.134.076.2a2.08,2.08,0,0,0,.1.187c.036.062.072.124.114.183s.086.107.131.159a2.214,2.214,0,0,0,.16.168c.02.019.035.041.056.059s.075.052.112.08.1.076.153.109a2.162,2.162,0,0,0,.208.113c.052.025.1.052.156.073a2.252,2.252,0,0,0,.253.079c.047.012.093.028.141.038a2.221,2.221,0,0,0,.414.042h9.721a2.209,2.209,0,0,0,0-4.418h-4.913l6.59-7.678c.027-.031.044-.067.069-.1" transform="translate(-94.442 -67.885)" fill="#fff"/>
  </g>
</svg>
