<svg id="Group_294" data-name="Group 294" xmlns="http://www.w3.org/2000/svg" xmlns:xlink="http://www.w3.org/1999/xlink" width="115.858" height="137" viewBox="0 0 115.858 137">
  <defs>
    <clipPath id="clip-path">
      <rect id="Rectangle_169" data-name="Rectangle 169" width="115.858" height="137" fill="#fff"/>
    </clipPath>
  </defs>
  <g id="Group_293" data-name="Group 293" clip-path="url(#clip-path)">
    <path id="Path_122" data-name="Path 122" d="M109.576,12.389C104.172,4.284,96.06,0,86.116,0,79.4,0,75,2.209,70.756,4.346,66.921,6.275,63.3,8.1,57.96,8.1A21.522,21.522,0,0,1,50.3,6.705q-.1-.079-.214-.15a2.859,2.859,0,0,0-1.244-.432c-1.279-.547-2.516-1.163-3.775-1.792C40.806,2.2,36.4,0,29.742,0,19.8,0,11.685,4.284,6.282,12.389A39.34,39.34,0,0,0,0,33.4C0,44.417,3.4,52.059,6.994,60.15c3.053,6.865,6.209,13.965,7.342,23.7,1.5,17.184,4.761,31.221,9.427,40.6C29.2,135.37,34.8,137,37.648,137a9.88,9.88,0,0,0,9.867-9.674l5.656-37.55c0-.033.009-.065.013-.1s.55-4.6,4.744-4.6a4.724,4.724,0,0,1,4.7,4.217c0,.033.008.065.013.1l5.7,37.93A9.881,9.881,0,0,0,78.21,137c8.614,0,19.886-13.921,23.312-53.147,1.133-9.739,4.289-16.838,7.341-23.7,3.6-8.091,6.995-15.732,6.995-26.749a39.34,39.34,0,0,0-6.282-21.012m-5.148,45.789c-3.2,7.207-6.517,14.658-7.732,25.151,0,.023-.005.046-.007.068-3.486,39.992-14.522,48.749-18.48,48.749a5.021,5.021,0,0,1-5.016-5.015,2.409,2.409,0,0,0-.027-.361L67.451,88.719a9.57,9.57,0,0,0-9.522-8.493c-6.276,0-9.15,5.285-9.564,8.872L42.691,126.77a2.417,2.417,0,0,0-.027.361,5.021,5.021,0,0,1-5.016,5.015c-2.239,0-5.921-2.59-9.539-9.859-3.07-6.166-7.112-17.918-8.941-38.89,0-.022,0-.045-.007-.068-1.215-10.493-4.528-17.944-7.732-25.151C8.048,50.572,4.854,43.387,4.854,33.4c0-7.94,4.471-28.547,24.888-28.547,5.51,0,9.226,1.855,13.159,3.82.985.492,1.98.987,3.007,1.458A2.858,2.858,0,0,0,47,11.408c.614.391,1.158.71,1.735,1.047s1.14.652,1.716.961q1.721.941,3.481,1.791a77.922,77.922,0,0,0,7.2,3.066A58.316,58.316,0,0,0,68.7,20.438a36.346,36.346,0,0,0,7.928.706,1.436,1.436,0,0,0,.054-2.869l-.054,0a33.184,33.184,0,0,1-7.057-1.318,54.513,54.513,0,0,1-6.786-2.662c-.942-.449-1.871-.927-2.793-1.42,5.388-.4,9.225-2.319,12.946-4.191,3.914-1.968,7.611-3.828,13.179-3.828C106.533,4.854,111,25.461,111,33.4c0,9.986-3.194,17.171-6.576,24.777" fill="#fff"/>
    <path id="Path_123" data-name="Path 123" d="M120.438,88.777a13.241,13.241,0,0,0-5.692-5.154,12.78,12.78,0,0,0-7.619-1.038l-.253.049c-.234.045-.469.09-.7.145l-.941.26c-.479.147-.976.3-1.476.439-1.078.3-2.066.556-3.019.77a55.879,55.879,0,0,1-24.721-.027c-.935-.21-1.922-.464-3.016-.774-.481-.135-.959-.282-1.438-.429L71.51,83l-.954-.263c-.221-.05-.473-.1-.726-.147l-.222-.043a12.66,12.66,0,0,0-2.134-.18,12.851,12.851,0,0,0-5.488,1.225,13.383,13.383,0,0,0-5.734,5.158,12.593,12.593,0,0,0-1.771,7.566,12.963,12.963,0,0,0,.916,3.8c.1.26.181.445.263.629l1.066,2.4c.815,1.852,1.589,3.771,2.366,5.869a91.622,91.622,0,0,1,3.528,12.12A90.3,90.3,0,0,1,64.4,133.624c.081.776.114,1.579.146,2.355q.015.4.034.789l.068,1.57.025,1.614c.039,2.392.044,4.488.015,6.4-.024,1.741-.088,3.516-.15,5.185-.227,2.942-.445,5.858-.662,8.774a1.493,1.493,0,0,0,2.97.3l.087-.671.035-.083a1.457,1.457,0,0,0,.105-.349l.251-1.631c.076-.49.14-.98.205-1.471l.019-.144c.127-.969.25-2,.389-3.252.115-1.015.218-2.09.314-3.29l.145-1.147c.095-.744.19-1.489.28-2.234L70.3,132.917l.143-.755a19.756,19.756,0,0,1,6.2-11.016,17,17,0,0,1,5.416-3.242,18.945,18.945,0,0,1,6.282-1.122,18.084,18.084,0,0,1,11.754,4.411,18.543,18.543,0,0,1,4.035,4.922c.158.268.3.555.428.832.089.186.178.372.275.554a10.134,10.134,0,0,1,.4.959c.067.177.133.354.206.528a4.455,4.455,0,0,1,.216.646l.261.909a5.4,5.4,0,0,1,.189.819l.222,1.157.8,6.7c.177,1.536.37,3.068.562,4.6q.16,1.269.316,2.537.379,3.107.785,6.21l.051.47c.127,1.137.285,2.278.423,3.244l.08.537.5,3.808a1.494,1.494,0,0,0,2.612.78,1.483,1.483,0,0,0,.358-1.086l-.083-1.11,0-.051-.2-3.2-.153-3.2c-.1-2.2-.138-4.381-.163-6.4-.029-2.06-.021-4.214.023-6.4.027-1.247.059-2.257.1-3.179.018-.374.031-.747.044-1.119.023-.664.046-1.351.1-2.031a83.687,83.687,0,0,1,5.069-24.633c.615-1.712,1.344-3.528,2.364-5.887l1.308-3a12.9,12.9,0,0,0,.939-3.777,12.513,12.513,0,0,0-1.723-7.54Zm-2.68,7.139a8.494,8.494,0,0,1-.623,2.491l-.3.7-.98,2.231c-1.054,2.439-1.814,4.33-2.46,6.127a91.761,91.761,0,0,0-4.271,16.092l-.316,1.857-.915-1.647a21.638,21.638,0,0,0-4.857-5.989,22.54,22.54,0,0,0-14.689-5.418,23.331,23.331,0,0,0-7.828,1.337,21.247,21.247,0,0,0-6.874,4.069,22.128,22.128,0,0,0-4.789,6.048l-.92,1.674-.314-1.884a94.438,94.438,0,0,0-4.23-16.164c-.744-2.031-1.577-4.1-2.476-6.137l-1.059-2.372c-.093-.207-.184-.416-.234-.561a8.39,8.39,0,0,1-.592-2.438A8.085,8.085,0,0,1,60.159,91.1,8.754,8.754,0,0,1,63.9,87.7,8.356,8.356,0,0,1,68.9,87l.656.131.589.158c.561.17,1.094.331,1.632.48,1.178.329,2.244.6,3.26.822a61.428,61.428,0,0,0,26.677-.025c1.029-.231,2.093-.5,3.257-.83.541-.151,1.076-.315,1.611-.479l.617-.17c.142-.034.262-.057.382-.08.081-.015.162-.03.244-.049a8.371,8.371,0,0,1,5.051.676,8.735,8.735,0,0,1,3.767,3.411,8.18,8.18,0,0,1,1.119,4.876" transform="translate(-30.415 -46.023)" fill="#fff"/>
  </g>
</svg>
