<?xml version="1.0" encoding="UTF-8"?><svg id="Warstwa_2" xmlns="http://www.w3.org/2000/svg" viewBox="0 0 141.73 141.73"><defs><style>.cls-1{fill:#fff;}.cls-2{fill:none;}</style></defs><g id="Warstwa_1-2"><rect class="cls-2" width="141.73" height="141.73"/><g id="Group_289"><path id="Path_115" class="cls-1" d="M57.17,29.12l-21.39,3.79c-.82,.15-1.36,.94-1.21,1.76,.14,.77,.85,1.3,1.63,1.22l19.55-2.13,4.66,19.58c.1,.4,.3,.77,.59,1.06l23.22,23.22c-1.72,3.12-1.17,7,1.35,9.53l42.99,42.99c.87,.87,2.28,.87,3.14,0l8.19-8.19c.87-.87,.87-2.28,0-3.14l-42.99-42.99c-2.52-2.52-6.41-3.06-9.53-1.35l-22.78-22.78-5-20.98h0c-.27-1.09-1.33-1.79-2.44-1.59m36.59,49.84l41.42,41.42-5.04,5.04-41.41-41.42c-1.38-1.38-1.39-3.61-.03-5.01,.02-.02,.04-.03,.06-.05,1.4-1.37,3.63-1.36,5.02,.02"/><path id="Path_116" class="cls-1" d="M99.19,107.8c-.9-.94-2.4-.97-3.34-.07-.33,.32-.57,.73-.67,1.18-4.8,20.85-12.11,26.09-15.18,26.09-2.78,0-5.03-2.24-5.06-5.02,0-.13,0-.27-.03-.4l-5.76-38.35c-.55-4.88-4.69-8.57-9.6-8.56-6.32,0-9.22,5.33-9.64,8.94l-5.72,37.96c-.02,.12-.03,.24-.03,.37,0,2.79-2.26,5.05-5.06,5.05-2.26,0-5.97-2.61-9.61-9.94-3.09-6.21-7.17-18.06-9.01-39.19,0-.02,0-.05,0-.07-1.22-10.58-4.56-18.08-7.79-25.35-3.41-7.67-6.63-14.91-6.63-24.97,0-8,4.51-28.77,25.08-28.77,5.55,0,9.3,1.87,13.26,3.85l.37,.19c.23,.48,.59,.89,1.04,1.17,.67,.43,1.27,.78,1.9,1.15s1.25,.72,1.88,1.06c1.26,.7,2.53,1.36,3.82,1.99,2.58,1.26,5.22,2.4,7.91,3.4,2.71,.99,5.49,1.8,8.31,2.41,2.86,.59,5.79,.86,8.71,.81,.8-.02,1.44-.7,1.41-1.5,0-.14-.03-.27-.07-.4-.18-.57-.7-.96-1.29-.99h-.05c-2.65-.19-5.28-.67-7.83-1.42-2.57-.8-5.09-1.77-7.53-2.91-.49-.23-.98-.48-1.47-.72,5.48-.38,9.37-2.33,13.15-4.23,3.94-1.98,7.67-3.86,13.28-3.86,20.58,0,25.08,20.77,25.08,28.77,0,10.06-3.22,17.3-6.63,24.97-1.57,3.53-3.16,7.12-4.53,11.09-.25,.72-.04,1.52,.52,2.04,1.08,1,2.77,.93,3.77-.16,.25-.27,.43-.58,.55-.92,1.26-3.57,2.72-6.84,4.15-10.07,3.62-8.15,7.05-15.85,7.05-26.96-.06-7.52-2.26-14.86-6.33-21.17-5.45-8.17-13.62-12.49-23.64-12.49-6.77,0-11.2,2.23-15.48,4.38-3.86,1.94-7.52,3.78-12.9,3.78-3.31-.01-6.58-.75-9.58-2.16-.29-.21-.58-.43-.84-.63h-.02c-.06-.06-.13-.11-.2-.16-.31-.2-.66-.34-1.02-.41l-1.15-.36c-4.36-2.17-8.83-4.46-15.64-4.46C21.14,1.83,12.96,6.15,7.52,14.32,3.44,20.63,1.25,27.98,1.19,35.49c0,11.1,3.42,18.8,7.05,26.96,3.08,6.92,6.26,14.07,7.4,23.89,1.51,17.32,4.8,31.46,9.5,40.91,5.48,11,11.12,12.65,13.99,12.65,5.41,0,9.83-4.34,9.94-9.75l5.7-37.84s0-.07,.01-.1,.55-4.63,4.78-4.63c2.43,0,4.48,1.83,4.74,4.25,0,.03,0,.07,.01,.1l5.74,38.22c.11,5.41,4.53,9.74,9.94,9.75,6.63,0,14.82-8.18,19.85-29.63,.21-.88-.04-1.81-.67-2.46Z"/><path id="Path_117" class="cls-1" d="M31.92,35.17c0,2.4-1.94,4.34-4.34,4.34-2.4,0-4.34-1.94-4.34-4.34,0-2.4,1.94-4.34,4.34-4.34s4.34,1.94,4.34,4.34h0"/></g></g></svg>