<?xml version="1.0" encoding="utf-8"?>
<!-- Generator: Adobe Illustrator 26.0.1, SVG Export Plug-In . SVG Version: 6.00 Build 0)  -->
<svg version="1.1" id="Warstwa_1" xmlns="http://www.w3.org/2000/svg" xmlns:xlink="http://www.w3.org/1999/xlink" x="0px" y="0px"
	 viewBox="0 0 453.54 283.46" style="enable-background:new 0 0 453.54 283.46;" xml:space="preserve">
<style type="text/css">
	.st0{fill:#F27BA6;}
</style>
<g>
	<path class="st0" d="M416.37,193.22c-0.03-0.02-0.06-0.05-0.09-0.07c-2.63-2.06-4.62-4.74-5.86-7.72l0,0
		c-0.04-0.11-0.09-0.22-0.13-0.32l0-0.01c-0.27-0.56-0.73-1.03-1.34-1.31c-0.01,0-0.02-0.01-0.03-0.01c0,0,0,0,0,0
		c-0.19-0.06-0.38-0.12-0.58-0.19c0,0,0,0-0.01,0c-8.09-2.65-16.1-5.81-24.01-9.49c-1.08-0.51-2.16-1.02-3.23-1.54
		c-1.05-4.81-1.92-9.64-2.62-14.46c-0.56-3.86-1.02-7.72-1.36-11.57c1.53,1.13,3.17,2.11,4.87,2.94c0.94,0.46,1.9,0.87,2.88,1.22
		c1.49-5.85,1.29-12.19-0.93-18.29c-3.26-8.96-10.21-15.51-18.51-18.57c-1.42-0.52-2.88-0.93-4.37-1.25
		c0.19,0.04,0.39,0.08,0.58,0.12c-0.64-1.21-1.24-2.46-1.79-3.75c-0.36-0.85-0.71-1.72-1.03-2.6c-0.53-1.47-0.97-2.94-1.36-4.42
		c0.17,0.15,0.35,0.29,0.52,0.43c0.23,0.18,0.46,0.36,0.69,0.54c0.31,0.25,0.63,0.49,0.95,0.73c0.23,0.17,0.46,0.34,0.69,0.5
		c0.33,0.24,0.66,0.47,0.99,0.7c0.23,0.16,0.47,0.32,0.7,0.47c0.34,0.22,0.68,0.44,1.02,0.66c0.13,0.08,0.26,0.17,0.39,0.25
		c0.08,0.05,0.17,0.09,0.25,0.14c0.7,0.42,1.41,0.84,2.13,1.23c0.01,0.01,0.03,0.01,0.04,0.02c0.72,0.39,1.46,0.76,2.2,1.11
		c0.21,0.1,0.43,0.2,0.65,0.3c0.23,0.1,0.45,0.22,0.68,0.32c0.02,0,0.05,0.01,0.07,0.01c11.48,5.09,24.87,5.93,37.61,1.29
		c2.17-0.79,4.25-1.71,6.24-2.76c-6.99-9.67-17.13-16.41-28.41-19.28c13.4-7.04,22.57-19.57,25.7-33.72
		c0.64-2.9,1.03-5.87,1.15-8.87c0.16-4.03-0.17-8.13-1.02-12.21c-1.36,4.12-3.58,7.93-6.51,11.16c-3.29,3.62-7.48,6.52-12.39,8.31
		c-0.9,0.33-1.8,0.61-2.7,0.85c0,0.01,0,0.01,0,0.02c-0.11,0.02-0.22,0.04-0.34,0.06c0.11-0.03,0.22-0.06,0.33-0.09
		c-0.39-2.49-0.97-4.96-1.73-7.37c-2.1-6.64-5.59-12.9-10.43-18.32c1.76,8.53-0.06,17.72-5.67,25.11c-0.31,0.41-0.63,0.81-0.97,1.21
		c-0.68,0.81-1.4,1.58-2.14,2.31c0,0,0,0-0.01,0.01c0,0,0,0-0.01,0.01c0,0-0.01,0.01-0.01,0.01c-0.55,0.53-1.11,1.05-1.69,1.53
		c0,0-0.01,0.01-0.01,0.01c-1.39,1.32-2.73,2.73-3.99,4.24c-5.08,6.05-8.48,12.95-10.27,20.14c-0.99-1.73-2.14-3.34-3.41-4.82
		c0,0,0,0-0.01-0.01c-0.48-0.47-0.93-0.96-1.36-1.48l0,0c-0.71-0.86-1.35-1.78-1.92-2.78c-0.52-0.92-0.98-1.9-1.35-2.93
		c-0.44-1.2-0.75-2.42-0.94-3.64c-0.13-0.08-0.26-0.17-0.39-0.25c0.94,0.59,1.92,1.11,2.95,1.53c5.34-5.11,7.47-13.09,4.77-20.48
		c-1.43-3.94-4.02-7.12-7.25-9.31c0.03,0.02,0.07,0.04,0.11,0.07c0.52-0.73,1.25-1.32,2.15-1.64c2.36-0.86,4.96,0.36,5.82,2.71
		c0.43,1.18,1.03,2.26,1.76,3.2c1.3,1.68,3.01,2.96,4.93,3.74c0.73,0.3,1.48,0.52,2.26,0.67c0,0,0.01,0,0.01,0
		c0.4,0.08,0.81,0.13,1.22,0.17c0,0,0,0,0,0c0.95,0.05,1.93-0.09,2.88-0.44c3.81-1.39,5.78-5.6,4.39-9.42
		c-0.06-0.16-0.12-0.31-0.18-0.46c0.62,2.26-0.59,4.65-2.83,5.46c-2.36,0.86-4.96-0.36-5.82-2.71c-0.2-0.54-0.28-1.08-0.27-1.62
		c0-0.12,0.01-0.24,0.02-0.36c0-0.01,0-0.01,0-0.02c0.07-1.58,0.03-3.17-0.14-4.74c-0.11-1.02-0.26-2.03-0.47-3.04l0,0
		c-0.12-0.59-0.28-1.17-0.49-1.75c-0.43-1.18-1.03-2.26-1.76-3.2c-3.08-3.99-8.49-5.72-13.48-3.9c-5.85,2.13-9.01,8.37-7.41,14.27
		c0.06,0.01,0.12,0.03,0.17,0.04c-3.33-0.66-6.87-0.45-10.28,0.79c-2.56,0.93-4.81,2.35-6.66,4.12c-0.82,0.78-1.57,1.62-2.23,2.53
		c-0.01,0-0.01,0.01-0.01,0.02c-1.98,3.03-2.56,6.92-1.23,10.58c1.1,3.01,3.29,5.31,5.96,6.61c-0.16-0.08-0.33-0.16-0.49-0.24
		c0.7,2.44,0.89,4.92,0.64,7.32c-0.02,0.17-0.04,0.35-0.06,0.52c2.31,3.09,5.47,5.37,9.02,6.62l0-0.01
		c0.96,0.34,2.04,0.36,3.07-0.01c0.86-0.31,1.57-0.86,2.08-1.54c0.04-0.06,0.08-0.12,0.13-0.18c0.19-0.23,0.45-0.42,0.75-0.53
		c0.46-0.17,0.95-0.13,1.35,0.07c0.38,0.18,0.69,0.51,0.86,0.93l0.01,0.03c0.02,0.06,0.04,0.11,0.05,0.17c0,0,0,0,0,0
		c0.21,0.66,0.39,1.33,0.53,2.01c0.49,2.41,0.51,4.84,0.1,7.17c-0.08,0.44-0.18,0.87-0.28,1.3c-2.14,2.73-5.05,4.92-8.55,6.19
		c-0.94,0.34-1.88,0.6-2.83,0.79l0,0.02c-2.77,0.57-5.54,0.91-8.3,1.01c-6.32-1.45-12.3-4.1-17.62-7.79
		c-1.24-0.86-2.45-1.79-3.61-2.76c-0.16-0.16-0.37-0.28-0.51-0.43c0,0,0,0,0,0c-0.29-0.25-0.57-0.5-0.85-0.75c0,0,0,0,0,0
		c-0.75-0.51-1.66-0.8-2.59-0.79c-0.51,0-1.02,0.09-1.52,0.27c-0.7,0.26-1.3,0.67-1.78,1.18c1.59,1.06,3.56,1.49,5.52,1.1
		c0.76,0.82,1.54,1.6,2.34,2.36l0,0c1.43,1.35,2.94,2.61,4.51,3.78c1.39,1.03,2.83,1.99,4.31,2.87c3.36,2,6.94,3.6,10.67,4.77
		c3.92,0.51,7.92,0.55,11.94,0.11c2.2-0.24,4.4-0.64,6.59-1.18l-0.02-0.05c-0.21-0.58-0.34-1.17-0.4-1.76
		c-0.15-1.39,0.11-2.77,0.71-3.99c0.1-0.2,0.21-0.4,0.33-0.59c0,0,0,0,0,0.01c0.01,0,0.01,0,0.02,0c-1.12,1.84-1.42,4.15-0.62,6.33
		c0.43,1.19,1.14,2.2,2.03,2.99l0,0c3.43,2.94,6.48,6.36,9.05,10.21c0.89,1.34,1.72,2.72,2.49,4.16c0.63,1.17,1.21,2.37,1.75,3.61
		c0.05-0.06,0.1-0.11,0.15-0.17c-0.93,1.17-1.77,2.4-2.52,3.69c-4.47,7.7-5.61,17.25-2.33,26.27c2.24,6.14,6.21,11.16,11.16,14.68
		c0.53-0.91,1.02-1.86,1.45-2.82c0.76-1.68,1.37-3.43,1.82-5.22c1.97,3.3,3.86,6.67,5.66,10.11c0.79,1.5,1.56,3.01,2.31,4.54
		c0,0,0,0,0,0c1.09,2.19,2.13,4.41,3.15,6.65c2.23,4.92,4.28,9.97,6.16,15.13c1.56,4.29,2.97,8.59,4.24,12.91
		c0.28,0.93,0.54,1.87,0.81,2.81c0.84,2.99,1.61,5.99,2.31,8.99l0,0c0,0.01,0.01,0.03,0.01,0.04c0.08,0.21,0.31,0.32,0.52,0.25
		c0.16-0.06,0.26-0.21,0.27-0.37c-0.01-0.04-0.01-0.08-0.02-0.13c-0.4-3.32,0.09-6.61,1.32-9.6c0.04-0.1,0.08-0.2,0.13-0.3
		c0,0,0,0,0,0c0.21-0.59,0.22-1.26-0.01-1.89l-0.01-0.02c-0.1-0.19-0.2-0.39-0.3-0.58c-3.84-7.58-7.27-15.48-10.25-23.67
		c-0.23-0.64-0.46-1.28-0.68-1.92c1.41,0.53,2.82,1.07,4.22,1.64c3.74,1.49,7.45,3.1,11.14,4.82c4.13,1.93,8.18,3.97,12.13,6.13
		c0.86,0.47,1.71,0.94,2.56,1.41l0,0c2.71,1.52,5.37,3.1,7.98,4.72l0,0c0.01,0.01,0.02,0.01,0.04,0.02c0.2,0.1,0.45,0.01,0.54-0.2
		C416.52,193.52,416.48,193.34,416.37,193.22z"/>
	<path class="st0" d="M293.34,81.37c-0.04-0.09-0.11-0.16-0.21-0.2l-35.33-13.64c0.19-0.81,0.46-1.59,0.81-2.33
		c0.08-0.17,0.17-0.34,0.25-0.51c0,0,0,0,0,0c0.23-0.54,0.35-1.13,0.35-1.76c0-2.04-1.35-3.76-3.2-4.32
		c-0.41-0.12-0.86-0.19-1.31-0.19c-1.05,0-2.02,0.36-2.79,0.97c-0.77-0.61-1.74-0.97-2.79-0.97c-0.46,0-0.9,0.07-1.31,0.19
		c-1.85,0.56-3.2,2.28-3.2,4.32c0,0.67,0.15,1.3,0.41,1.88c0.05,0.1,0.1,0.2,0.15,0.3c0,0,0,0.01,0,0.01
		c0.36,0.76,0.65,1.57,0.85,2.41c0.21,0.87,0.31,1.78,0.31,2.71c0,1.66,0.34,3.24,0.96,4.68c0.04,0.1,0.08,0.19,0.13,0.29
		c0.19,0.3,0.52,0.49,0.9,0.49c0.57,0,1.04-0.45,1.06-1.02c0-0.01,0-0.01,0-0.02v-0.04c0.04-2.15,1.01-4.07,2.52-5.38
		c1.5,1.31,2.47,3.21,2.52,5.35c0,0.05,0,0.1,0,0.15v0.01c0.06,0.54,0.51,0.96,1.06,0.96c0.39,0,0.73-0.21,0.92-0.52
		c0.03-0.07,0.07-0.15,0.1-0.23c0,0,0,0,0,0c0.63-1.44,0.97-3.03,0.97-4.7h0c0-0.3,0.03-0.59,0.05-0.88l35.33,12.52
		c0.04,0.01,0.08,0.02,0.13,0.02c0.15,0,0.29-0.09,0.35-0.24C293.39,81.56,293.38,81.46,293.34,81.37z"/>
	<g>
		<g>
			<path class="st0" d="M118.78,112.97c0.84-2.33,1.96-4.4,3.36-6.2c1.4-1.8,3.19-3.41,5.36-4.83c2.17-1.42,4.87-2.43,8.09-3.01
				c3.22-0.58,6.84-0.67,10.85-0.25c0.98,0.09,1.82-0.35,2.52-1.33c1.07-1.59,1.35-3.45,0.84-5.6c-0.56-2.47-2.05-3.71-4.48-3.71
				c-8.03,0-14.46,2.07-19.29,6.2c-4.83,4.13-8.6,10.31-11.31,18.52c-3.64,11.11-6.96,21.1-9.94,29.97c-0.47-1.31-1.37-3.8-2.7-7.49
				c-1.33-3.69-2.87-7.99-4.62-12.92c-1.75-4.92-3.14-8.83-4.17-11.73c-0.33-0.84-0.09-1.73,0.7-2.66c0.89-0.98,1.89-1.47,3.01-1.47
				v-2.1H77.39v2.1c2.33,0,4.06,1.35,5.18,4.06c0.33,0.89,0.83,2.24,1.51,4.06c0.68,1.82,1.16,3.15,1.44,3.99l-7.98,24.16
				c-0.14-0.42-3.99-11.13-11.55-32.14c-0.33-0.84-0.09-1.73,0.7-2.66c0.89-0.98,1.89-1.47,3.01-1.47v-2.1H54.57
				c-2.61,0-5.16,0.51-7.63,1.54c-2.33,0.98-4.32,2.4-5.95,4.27c-1.63,1.87-2.73,3.86-3.29,5.99c-0.56,2.12-0.75,4.23-0.56,6.3
				c0.19,2.08,0.93,3.96,2.24,5.64c1.31,1.68,3.04,2.87,5.18,3.57c1.21,0.37,2.31,0.56,3.29,0.56c3.03-0.05,5.5-1,7.39-2.87
				c1.89-1.87,2.79-4.22,2.7-7.07c-0.09-2.94-1.17-5.12-3.22-6.55c-2.05-1.42-4.71-1.6-7.98-0.53c0.65,0.05,1.21,0.32,1.68,0.81
				c0.47,0.49,0.75,1.05,0.84,1.68c0.09,0.63,0.07,1.26-0.07,1.89c-0.14,0.63-0.46,1.13-0.95,1.51c-0.49,0.37-1.11,0.54-1.86,0.49
				c-1.21-0.09-2.18-0.81-2.91-2.14c-0.72-1.33-0.83-2.88-0.32-4.66c0.61-2.38,1.96-4.15,4.06-5.32c0.84-0.51,1.83-0.81,2.98-0.88
				c1.14-0.07,2.28,0.2,3.4,0.81c1.12,0.61,1.94,1.59,2.45,2.94c1.68,4.72,4.41,12.39,8.19,23.04c3.78,10.64,6.02,16.92,6.72,18.84
				h5.74l10.78-30.18c1.31,3.64,3.22,8.95,5.74,15.93c2.52,6.98,4.22,11.73,5.11,14.25h5.74
				C106.69,146.89,111.59,133.14,118.78,112.97z"/>
		</g>
		<g>
			<path class="st0" d="M138.12,122.15c-1.4,1.17-2.57,2.52-3.5,4.06v-6.79l-14.15,3.57v0.91l1.05,0.21
				c0.65,0.19,1.33,0.68,2.03,1.47c0.7,0.79,1.05,1.84,1.05,3.15v17.51c0,1.63-0.65,3.01-1.96,4.13c-1.31,1.12-2.5,1.7-3.57,1.75
				v2.1h21.22v-2.1c-1.07-0.05-2.29-0.63-3.64-1.75c-1.35-1.12-2.03-2.5-2.03-4.13v-14.29c0.33-1.12,0.77-2.19,1.33-3.22
				c1.12-2.05,2.79-3.61,5.01-4.66c2.22-1.05,4.24-1.27,6.06-0.67c1.54,0.51,2.61,1.46,3.22,2.84c0.61,1.38,0.58,2.63-0.07,3.75
				c-0.47,0.84-1.18,1.33-2.14,1.47c-0.96,0.14-1.76-0.19-2.42-0.98c-0.65-0.79-0.82-1.94-0.49-3.43c-1.68,1.17-2.72,2.8-3.12,4.9
				c-0.4,2.1-0.07,4.06,0.98,5.88c1.05,1.82,2.65,2.96,4.8,3.43c2.33,0.47,4.56,0.02,6.69-1.33c2.12-1.35,3.47-3.5,4.03-6.44
				c0.75-4.15-0.13-7.56-2.63-10.22c-2.5-2.66-5.64-3.99-9.42-3.99C143.37,119.28,140.59,120.23,138.12,122.15z"/>
		</g>
		<g>
			<path class="st0" d="M287.09,154.18c2.54,1.14,5.39,1.32,8.54,0.53c3.15-0.79,5.78-2.4,7.88-4.83c0.23,2.05,1.06,3.49,2.49,4.31
				c1.42,0.82,2.98,1.09,4.66,0.81c1.68-0.28,3.24-0.77,4.69-1.47c1.45-0.7,2.33-1.4,2.66-2.1v-1.12c-0.37,0.47-0.91,0.83-1.61,1.09
				c-0.7,0.26-1.38,0.16-2.03-0.28c-0.65-0.44-0.98-1.39-0.98-2.84v-16.88c0-4.15-1.3-7.2-3.89-9.14c-2.59-1.94-5.82-2.91-9.7-2.91
				c-3.18,0-6.08,0.63-8.72,1.89c-2.64,1.26-4.21,3.36-4.73,6.3c-0.42,2.33,0.07,4.02,1.47,5.04c1.35,1.03,2.87,1.14,4.55,0.35
				c1.82-0.89,2.54-2.38,2.17-4.48c-0.28-1.63,0.08-3.07,1.09-4.31c1-1.24,2.16-1.86,3.47-1.86c0.98,0,1.77,0.22,2.38,0.67
				c0.61,0.44,1.05,1.11,1.33,2c0.28,0.89,0.46,1.73,0.53,2.52c0.07,0.79,0.11,1.82,0.11,3.08v2.73c-0.42,0.09-1.1,0.23-2.03,0.42
				c-2.71,0.56-4.67,0.98-5.88,1.26c-1.21,0.28-2.93,0.83-5.15,1.65c-2.22,0.82-3.79,1.68-4.73,2.59c-0.93,0.91-1.75,2.16-2.45,3.75
				c-0.7,1.59-0.89,3.41-0.56,5.46C283.06,151.12,284.54,153.04,287.09,154.18z M293.56,141.09c1.17-1.52,2.58-2.66,4.24-3.43
				c1.66-0.77,3.54-1.39,5.64-1.86v11.27c-1.12,1.4-2.52,2.32-4.2,2.77c-1.68,0.44-3.2,0.35-4.55-0.28
				c-1.35-0.63-2.15-1.72-2.38-3.26C291.98,144.35,292.4,142.61,293.56,141.09z"/>
		</g>
		<g>
			<path class="st0" d="M90.13,202.15c-1.45-0.37-2.86-0.6-4.24-0.67c-1.38-0.07-2.81,0.13-4.31,0.6c-1.49,0.47-2.79,1.2-3.89,2.21
				c-1.1,1-2.01,2.52-2.73,4.55c-0.72,2.03-1.09,4.45-1.09,7.25c1.21-2.57,2.47-4.27,3.78-5.11c1.31-0.84,2.8-1.12,4.48-0.84
				c1.07,0.14,1.95,0.63,2.63,1.47c0.68,0.84,1.06,1.76,1.16,2.77c0.09,1-0.16,2.02-0.77,3.05c-0.61,1.03-1.56,1.77-2.87,2.24
				c-1.07,0.61-2.63,0.86-4.66,0.77c-2.03-0.09-3.77-0.33-5.22-0.7c-1.45-0.37-3.72-0.78-6.83-1.23c-3.11-0.44-6.27-0.71-9.49-0.81
				c7.75-11.62,13.41-20.16,16.98-25.59c3.57-5.44,7.53-11.43,11.87-17.96l0.07-3.01H47.28l-1.05,11.55
				c0.56-0.79,1.24-1.61,2.03-2.45c0.79-0.84,1.83-1.81,3.12-2.91c1.28-1.1,2.78-1.98,4.48-2.66c1.7-0.68,3.42-1.02,5.15-1.02h12.25
				l-29.06,43.91c-0.05,0.51-0.07,1.28-0.07,2.31c0,1.03,0,1.8,0,2.31c2.8-0.7,5.6-0.92,8.4-0.67c2.8,0.26,5.68,0.69,8.65,1.3
				c2.96,0.61,5.82,1.34,8.58,2.21c2.75,0.86,5.47,1.54,8.16,2.03c2.68,0.49,5.13,0.75,7.35,0.77c2.22,0.02,4.29-0.49,6.23-1.54
				c1.94-1.05,3.51-2.7,4.73-4.94c1.45-2.85,2.14-5.58,2.07-8.19c-0.07-2.61-0.84-4.94-2.31-6.97
				C94.51,204.15,92.56,202.81,90.13,202.15z"/>
		</g>
		<g>
			<path class="st0" d="M159.98,183.37c-4.06,0-7.24,1.03-9.52,3.08c0-2.15,0.01-5.46,0.04-9.94c0.02-4.48,0.04-7.91,0.04-10.29
				l-9.59,2.38l-3.15,0.84c-2.61,0.65-4.91,1.16-6.9,1.51c-1.98,0.35-4.1,0.62-6.34,0.81c-2.24,0.19-4.18,0.11-5.81-0.25
				c-1.63-0.35-3.2-0.91-4.69-1.68c-1.49-0.77-2.71-1.95-3.64-3.54c-0.93-1.59-1.61-3.52-2.03-5.81c-0.09,0-0.2-0.01-0.32-0.04
				c-0.12-0.02-0.2-0.04-0.25-0.04c-2.57,0-4.53,0.62-5.88,1.86c-1.35,1.24-2.03,2.66-2.03,4.27s0.39,3.23,1.16,4.87
				c0.77,1.63,1.81,2.85,3.12,3.64c1.91,1.17,4.1,1.97,6.55,2.42c2.45,0.44,4.79,0.61,7,0.49c2.22-0.12,4.76-0.5,7.63-1.16
				c2.87-0.65,5.28-1.3,7.21-1.93c1.94-0.63,4.24-1.44,6.9-2.42c0.7,0.89,1.05,1.91,1.05,3.08v28.64v14.08
				c1.17-1.17,3.06-1.88,5.67-2.14c2.61-0.26,4.62,0.08,6.02,1.02c2.1,1.35,4.29,2.03,6.58,2.03c5.56,0,9.94-1.8,13.16-5.39
				c3.22-3.59,4.83-7.98,4.83-13.16c0-5.32-1.6-9.52-4.8-12.6C168.79,184.91,164.79,183.37,159.98,183.37z M162.4,211.76
				c-1.7,2.45-3.89,3.68-6.55,3.68c-0.28,0-0.65-0.05-1.12-0.14l-1.05-0.28c-0.7-0.23-1.4-0.75-2.1-1.54
				c-0.7-0.79-1.05-1.77-1.05-2.94c0-2.29-0.01-5.74-0.04-10.36c-0.02-4.62-0.04-8.05-0.04-10.29c1.26-2.52,3.34-3.78,6.23-3.78
				c2.61,0,4.64,1.26,6.09,3.78c1.45,2.52,2.17,6.3,2.17,11.34C164.95,205.8,164.1,209.31,162.4,211.76z"/>
		</g>
		<g>
			<path class="st0" d="M217.61,213.34c-0.7-0.79-1.05-1.84-1.05-3.15c0-2.61,0-5.45,0-8.51c0-3.06,0-6.4,0-10.01
				c0-3.62,0-6.31,0-8.09h-15.55l-0.07,2.17c0.51,0,1.13,0.08,1.86,0.25c0.72,0.16,1.54,0.65,2.45,1.47
				c0.91,0.82,1.37,1.9,1.37,3.26v21.71c-2.66,2.19-4.97,3.29-6.93,3.29c-1.68,0-3.09-0.61-4.24-1.82
				c-1.14-1.21-1.72-3.01-1.72-5.39c0-11.06,0.02-19.37,0.07-24.93h-15.62l-0.07,2.17c1.21,0,2.46,0.4,3.75,1.19
				c1.28,0.79,1.93,1.98,1.93,3.57v18.28c0,3.5,1.13,6.16,3.4,7.98c2.26,1.82,4.96,2.73,8.09,2.73c4.34,0,8.12-1.56,11.34-4.69v4.69
				l14.15-3.57v-0.98l-1.05-0.21C219.01,214.6,218.31,214.13,217.61,213.34z"/>
		</g>
		<g>
			<path class="st0" d="M254.55,207.53c-0.3-2.29-1.48-4.22-3.54-5.81c-1.26-0.98-3.5-2.21-6.72-3.68
				c-3.22-1.47-5.82-2.92-7.81-4.34c-1.98-1.42-2.98-3.05-2.98-4.87c0-1.4,0.64-2.45,1.93-3.15c1.28-0.7,2.65-0.93,4.1-0.7
				c1.4,0.23,2.43,0.74,3.08,1.51c0.65,0.77,0.92,1.6,0.81,2.49c-0.12,0.89-0.44,1.76-0.98,2.63c-0.54,0.86-1.2,1.51-2,1.93
				c1.68,1.59,3.58,2.23,5.71,1.93c2.12-0.3,3.49-1.55,4.1-3.75c0.56-2.1-0.22-4.04-2.35-5.81c-2.12-1.77-5.36-2.66-9.7-2.66
				c-3.5,0-6.33,0.53-8.47,1.58c-2.15,1.05-3.6,2.46-4.34,4.24c-0.89,1.82-0.95,3.85-0.18,6.09c0.77,2.24,2.37,4.23,4.8,5.95
				c1.17,0.84,3.01,1.84,5.53,3.01c2.52,1.17,4.64,2.28,6.37,3.33c1.73,1.05,2.75,2.11,3.08,3.19c0.37,1.35,0.13,2.7-0.74,4.03
				c-0.86,1.33-2.18,2.04-3.96,2.14c-2.05,0.05-3.9-0.3-5.53-1.05c-1.63-0.75-3-1.82-4.1-3.22c-1.1-1.4-1.93-2.58-2.49-3.54
				c-0.56-0.96-1.14-2.14-1.75-3.54l-0.56,9.45c1.12,1.31,2.88,2.35,5.29,3.12c2.4,0.77,5.08,1.16,8.02,1.16
				c3.13,0,5.92-0.51,8.37-1.54c2.45-1.03,4.31-2.43,5.57-4.2C254.38,211.77,254.85,209.81,254.55,207.53z"/>
		</g>
		<g>
			<path class="st0" d="M295.59,222.13c-2.64-1.33-5.65-2.27-9.03-2.8c-3.39-0.54-6.45-0.88-9.21-1.02
				c-2.76-0.14-5.93-0.19-9.52-0.14l21.36-31.93l0.07-2.66h-29.97l-1.26,10.5c1.54-2.66,3.48-4.62,5.81-5.88
				c2.33-1.26,5.46-1.89,9.38-1.89h4.13l-2.66,3.92c-2.24,3.36-5.6,8.42-10.08,15.16c-4.48,6.75-7.84,11.82-10.08,15.23h0.77
				c0.42,0.05,1.56,0.16,3.43,0.35c10.41,1.03,17.76,2.26,22.06,3.71c8.36,2.85,12.04,7.75,11.06,14.71
				c2.29,0.47,4.35,0.36,6.2-0.32c1.84-0.68,3.2-1.67,4.06-2.98c0.86-1.31,1.31-2.78,1.33-4.41c0.02-1.63-0.48-3.13-1.51-4.48
				C300.34,225.15,298.22,223.46,295.59,222.13z"/>
		</g>
		<g>
			<path class="st0" d="M325.87,207.88c-2.29-3.31-5.58-8.1-9.87-14.36c2.05-1.35,3.42-2.24,4.1-2.66c0.68-0.42,1.94-1.16,3.78-2.21
				c1.84-1.05,3.43-1.79,4.76-2.21c1.33-0.42,2.58-0.65,3.75-0.7v-2.17h-13.94v2.31l0.7,0.07c0.51,0.05,0.85,0.2,1.02,0.46
				c0.16,0.26-0.08,0.67-0.74,1.23c-4.86,3.36-9.17,6.33-12.95,8.89v-30.32l-0.22,0.06c0.26-0.68,0.4-1.38,0.4-2.1
				c0-0.09-0.01-0.21-0.04-0.35c-0.02-0.14-0.03-0.23-0.03-0.28c-0.19-1.49-1.06-2.93-2.63-4.31c-1.56-1.38-3.05-2.07-4.45-2.07
				s-2.24,0.82-2.52,2.45c-0.92,5.79-2.16,9.1-3.73,9.93l-0.86,0.22c-1.11-0.02-2.51-0.95-4.2-2.8c-1.7-1.87-3.91-4.76-6.62-8.68
				c-2.66-3.78-9.29-13.38-19.89-28.78c2.05-1.35,3.42-2.24,4.1-2.66c0.68-0.42,1.94-1.16,3.78-2.21c1.84-1.05,3.43-1.79,4.76-2.21
				c1.33-0.42,2.58-0.65,3.75-0.7v-2.17h-13.87l-0.07,2.31l0.77,0.07c0.51,0.05,0.84,0.2,0.98,0.46c0.14,0.26-0.12,0.67-0.77,1.23
				c-0.89,0.61-5.18,3.57-12.88,8.89v-30.32l-14.22,3.57v0.98l1.05,0.21c0.7,0.14,1.4,0.61,2.1,1.4c0.7,0.79,1.05,1.84,1.05,3.15
				v34.73c0,1.63-0.67,3.01-2,4.13s-2.53,1.68-3.61,1.68v2.17h21.22v-2.17c-1.07,0-2.28-0.56-3.61-1.68s-2-2.5-2-4.13v-12.88
				l0.84,1.26c6.82,9.94,11.32,16.43,13.51,19.47c0.33,0.47,1.06,1.49,2.21,3.08c1.14,1.59,1.89,2.61,2.24,3.08
				c0.35,0.47,1.03,1.37,2.03,2.7c1,1.33,1.74,2.23,2.21,2.7c0.47,0.47,1.18,1.2,2.14,2.21c0.96,1,1.74,1.69,2.35,2.07
				c0.61,0.37,1.39,0.89,2.35,1.54c0.96,0.65,1.86,1.1,2.7,1.33c0.84,0.23,1.79,0.46,2.84,0.67s2.11,0.32,3.19,0.32
				c1.89,0,3.62-0.17,5.22-0.48c0.31,0.64,0.48,1.38,0.48,2.25v34.73c0,1.63-0.68,3.01-2.03,4.13c-1.35,1.12-2.57,1.68-3.64,1.68
				l0.07,2.17h21.15l0.07-2.17c-1.07,0-2.29-0.56-3.64-1.68c-1.35-1.12-2.03-2.5-2.03-4.13v-12.88c4.53,6.49,7.89,11.34,10.08,14.57
				c0.56,0.84,0.88,1.55,0.95,2.14c0.07,0.58-0.07,1-0.42,1.26c-0.35,0.26-0.72,0.44-1.12,0.56c-0.4,0.12-0.81,0.18-1.23,0.18v2.17
				h19.89v-2.17c-1.31,0-2.54-0.58-3.71-1.75C329.56,212.92,327.88,210.77,325.87,207.88z"/>
		</g>
		<g>
			<path class="st0" d="M390.4,206.61c-0.16-2.15-0.88-4.1-2.14-5.85c-1.26-1.75-2.97-2.98-5.11-3.68
				c-2.94-0.93-5.72-0.69-8.33,0.74c-2.62,1.42-4.2,3.44-4.76,6.06c-0.47,2.19-0.25,4.28,0.67,6.27c0.91,1.98,2.22,3.3,3.92,3.96
				c1.7,0.65,3.63,0.49,5.78-0.49c-1.12-0.09-1.82-0.65-2.1-1.68c-0.28-1.03-0.09-2,0.56-2.91c0.65-0.91,1.59-1.32,2.8-1.23
				c1.17,0.09,2.04,0.72,2.63,1.89c0.58,1.17,0.71,2.52,0.39,4.06c-0.47,2.29-1.75,4.3-3.85,6.02c-2.1,1.73-4.32,2.57-6.65,2.52
				c-1.4-0.05-2.85-0.93-4.34-2.66c-1.49-1.73-2.24-3.73-2.24-6.02v-18.21c0-4.15-1.3-7.2-3.89-9.14c-2.59-1.94-5.82-2.91-9.7-2.91
				c-3.18,0-6.08,0.63-8.72,1.89c-2.64,1.26-4.21,3.36-4.73,6.3c-0.42,2.33,0.07,4.02,1.47,5.04c1.35,1.07,2.87,1.19,4.55,0.35
				c1.82-0.84,2.54-2.31,2.17-4.41c-0.28-1.63,0.08-3.08,1.09-4.34c1-1.26,2.16-1.89,3.47-1.89c0.98,0,1.77,0.22,2.38,0.67
				c0.61,0.44,1.05,1.11,1.33,2c0.28,0.89,0.46,1.73,0.53,2.52c0.07,0.79,0.11,1.82,0.11,3.08v2.73c-0.42,0.09-1.1,0.23-2.03,0.42
				c-2.71,0.56-4.67,0.98-5.88,1.26c-1.21,0.28-2.93,0.83-5.15,1.65c-2.22,0.82-3.79,1.68-4.73,2.59c-0.93,0.91-1.75,2.16-2.45,3.75
				c-0.7,1.59-0.89,3.41-0.56,5.46c0.33,2.01,1.3,3.6,2.91,4.76c1.61,1.17,3.47,1.81,5.57,1.93c2.1,0.12,4.29-0.27,6.58-1.16
				c2.29-0.89,4.2-2.22,5.74-3.99c0.14,2.52,1.04,4.64,2.7,6.37c1.66,1.73,3.65,2.92,5.99,3.57c2.33,0.65,4.81,0.95,7.42,0.88
				c2.61-0.07,4.99-0.55,7.14-1.44c2.15-0.89,4.01-2.25,5.6-4.1c1.59-1.84,2.67-3.87,3.26-6.09
				C390.35,210.95,390.56,208.76,390.4,206.61z M357.66,211.1c-1.12,1.4-2.52,2.32-4.2,2.77c-1.68,0.44-3.2,0.35-4.55-0.28
				c-1.35-0.63-2.15-1.72-2.38-3.26c-0.33-1.96,0.09-3.7,1.26-5.22c1.17-1.52,2.58-2.66,4.24-3.43c1.66-0.77,3.54-1.39,5.64-1.86
				V211.1z"/>
		</g>
		<g>
			<path class="st0" d="M125.85,227.85c-0.7-2.3-0.38-4.83,0.91-7.59c2.76-1.64,5.22-4.21,7.37-7.73l-1.05-0.77
				c-3.27,4.76-7,7.14-11.2,7.14c-2.57,0-4.76-1.42-6.58-4.27c-1.82-2.85-2.73-6.23-2.73-10.15v-0.21h21.71
				c0-5.93-1.14-10.35-3.43-13.27c-2.29-2.92-6.19-4.38-11.69-4.38h-0.35c-4.86,0-9.01,1.67-12.46,5.01
				c-3.46,3.34-5.18,7.55-5.18,12.64c0,5.74,1.6,10.2,4.8,13.38c3.2,3.18,7.5,4.76,12.92,4.76c1.24,0,2.43-0.14,3.58-0.4
				c-3.27,3.98-3.59,8.34-3.47,11.2c0.12,2.39,1.29,4.32,3.52,5.78c2.23,1.46,4.6,1.6,7.1,0.41c2.5-1.19,4.1-3.85,4.78-7.99
				C129.7,232.35,126.86,231.17,125.85,227.85z M115.08,193c1.59-2.1,3.55-3.15,5.88-3.15c3.41,0,5.3,2.59,5.67,7.77
				c0.05,0.98,0.01,1.75-0.11,2.31c-0.12,0.56-0.42,0.96-0.91,1.19c-0.49,0.23-0.9,0.36-1.23,0.39c-0.33,0.02-0.96,0.04-1.89,0.04
				h-9.8C112.7,197.95,113.49,195.1,115.08,193z"/>
		</g>
		<g>
			
				<ellipse transform="matrix(0.9871 -0.1602 0.1602 0.9871 -15.0323 36.3536)" class="st0" cx="217.97" cy="111.42" rx="4.54" ry="4.54"/>
		</g>
		<g>
			<path class="st0" d="M232.92,154.22l1.05-11.55c-3.36,5.88-8.85,8.82-16.46,8.82h-2.38l19.54-29.2v-2.73H204l-1.33,10.71
				c1.68-2.94,3.72-4.99,6.13-6.16c2.4-1.17,5.54-1.75,9.42-1.75l4.27-0.07l-21.22,31.93H232.92z"/>
		</g>
		<g>
			<path class="st0" d="M181.31,155.13c4.95,0,9.17-1.75,12.67-5.25c3.5-3.5,5.25-7.73,5.25-12.68c0-4.95-1.75-9.16-5.25-12.64
				c-3.04-3.02-6.63-4.73-10.77-5.13c-0.19-0.02-0.38-0.03-0.57-0.05c0.86-2.6,2.84-4.76,5.69-6.21c0.28-0.14,0.56-0.28,0.81-0.48
				c0.16-0.13,0.31-0.27,0.44-0.44c0.39-0.47,0.64-1.01,0.73-1.57c0.19-1.11-0.2-2.29-1.13-3.07c-1.18-1-2.8-0.93-4.06-0.14
				c-0.99,0.62-1.97,1.31-2.81,2.31c-2.03,2.41-3.01,5.62-2.96,9.66c-4.12,0.4-7.69,2.11-10.72,5.12c-3.5,3.48-5.25,7.69-5.25,12.64
				c0,4.95,1.75,9.17,5.25,12.68C172.14,153.38,176.36,155.13,181.31,155.13z M176.1,125.72c0.94-1.85,2.05-3.07,3.33-3.66
				c0.03-0.01,0.06-0.03,0.09-0.04c0.56-0.24,1.16-0.37,1.79-0.37c0.3,0,0.59,0.03,0.87,0.08c0.07,0.01,0.14,0.03,0.21,0.04
				c1.63,0.39,3.01,1.7,4.14,3.94c1.38,2.71,2.06,6.54,2.06,11.48c0,4.95-0.69,8.78-2.06,11.48c-1.38,2.71-3.12,4.06-5.22,4.06
				s-3.84-1.35-5.22-4.06c-1.38-2.71-2.07-6.54-2.07-11.48C174.03,132.25,174.72,128.43,176.1,125.72z"/>
		</g>
	</g>
	<path class="st0" d="M246.5,43.68c-0.04,0.07-0.09,0.13-0.14,0.19c-0.33,0.45-0.7,0.85-1.1,1.21c-0.3,0.26-0.61,0.5-0.94,0.7
		c0.14,0.37,0.25,0.74,0.33,1.13c0.12,0.6,0.17,1.23,0.14,1.86c-0.07-0.02-0.15-0.04-0.23-0.07c-0.53-0.17-1.03-0.4-1.49-0.67
		c-0.34-0.2-0.66-0.43-0.96-0.68c-0.3,0.24-0.63,0.47-0.97,0.66c-0.54,0.3-1.12,0.54-1.73,0.71c0-0.08,0-0.16,0-0.23
		c0-0.56,0.06-1.1,0.18-1.62c0.09-0.39,0.2-0.76,0.35-1.12c-0.33-0.21-0.64-0.45-0.93-0.72c-0.46-0.42-0.86-0.89-1.2-1.42
		c0.07-0.03,0.15-0.05,0.22-0.08c0.53-0.17,1.07-0.28,1.6-0.33c0.39-0.04,0.79-0.04,1.18-0.01c0.1-0.38,0.24-0.75,0.4-1.1
		c0.25-0.56,0.58-1.1,0.98-1.59c0.05,0.06,0.09,0.13,0.14,0.19c0.33,0.45,0.6,0.93,0.81,1.42c0.16,0.36,0.28,0.74,0.38,1.11
		c0.39-0.02,0.78-0.01,1.17,0.04C245.3,43.31,245.91,43.45,246.5,43.68z"/>
	<path class="st0" d="M237.97,75.18c-0.04,0.07-0.09,0.13-0.14,0.19c-0.33,0.45-0.7,0.85-1.1,1.21c-0.3,0.26-0.61,0.5-0.94,0.7
		c0.14,0.37,0.25,0.74,0.33,1.13c0.12,0.6,0.17,1.23,0.14,1.86c-0.07-0.02-0.15-0.04-0.23-0.07c-0.53-0.17-1.03-0.4-1.49-0.67
		c-0.34-0.2-0.66-0.43-0.96-0.68c-0.3,0.24-0.63,0.47-0.97,0.66c-0.54,0.3-1.12,0.54-1.73,0.71c0-0.08,0-0.16,0-0.23
		c0-0.56,0.06-1.1,0.18-1.62c0.09-0.39,0.2-0.76,0.35-1.12c-0.33-0.21-0.64-0.45-0.93-0.72c-0.46-0.42-0.86-0.89-1.2-1.42
		c0.07-0.03,0.15-0.05,0.22-0.08c0.53-0.17,1.07-0.28,1.6-0.33c0.39-0.04,0.79-0.04,1.18-0.01c0.1-0.38,0.24-0.75,0.4-1.1
		c0.25-0.56,0.58-1.1,0.98-1.59c0.05,0.06,0.09,0.13,0.14,0.19c0.33,0.45,0.6,0.93,0.81,1.42c0.16,0.36,0.28,0.74,0.38,1.11
		c0.39-0.02,0.78-0.01,1.17,0.04C236.77,74.81,237.38,74.95,237.97,75.18z"/>
	<path class="st0" d="M229.52,57.15c-0.03,0.04-0.05,0.08-0.08,0.12c-0.2,0.28-0.43,0.53-0.68,0.75c-0.18,0.16-0.38,0.31-0.58,0.44
		c0.09,0.23,0.15,0.46,0.2,0.7c0.08,0.37,0.11,0.76,0.09,1.15c-0.05-0.01-0.09-0.03-0.14-0.04c-0.33-0.11-0.63-0.25-0.92-0.42
		c-0.21-0.12-0.41-0.26-0.59-0.42c-0.19,0.15-0.39,0.29-0.6,0.41c-0.33,0.19-0.69,0.34-1.07,0.44c0-0.05,0-0.1,0-0.15
		c0-0.34,0.04-0.68,0.11-1c0.05-0.24,0.13-0.47,0.22-0.69c-0.2-0.13-0.39-0.28-0.57-0.45c-0.28-0.26-0.53-0.55-0.74-0.88
		c0.05-0.02,0.09-0.03,0.14-0.05c0.33-0.11,0.66-0.17,0.99-0.2c0.24-0.02,0.49-0.03,0.73-0.01c0.06-0.23,0.15-0.46,0.25-0.68
		c0.16-0.35,0.36-0.68,0.61-0.98c0.03,0.04,0.06,0.08,0.09,0.12c0.2,0.28,0.37,0.57,0.5,0.88c0.1,0.22,0.18,0.46,0.23,0.69
		c0.24-0.01,0.48,0,0.73,0.02C228.78,56.92,229.16,57.01,229.52,57.15z"/>
	<path class="st0" d="M265.08,46.61c-0.03,0.04-0.05,0.08-0.08,0.12c-0.2,0.28-0.43,0.53-0.68,0.75c-0.18,0.16-0.38,0.31-0.58,0.44
		c0.09,0.23,0.15,0.46,0.2,0.7c0.08,0.37,0.11,0.76,0.09,1.15c-0.05-0.01-0.09-0.03-0.14-0.04c-0.33-0.11-0.63-0.25-0.92-0.42
		c-0.21-0.12-0.41-0.26-0.59-0.42c-0.19,0.15-0.39,0.29-0.6,0.41c-0.33,0.19-0.69,0.34-1.07,0.44c0-0.05,0-0.1,0-0.15
		c0-0.34,0.04-0.68,0.11-1c0.05-0.24,0.13-0.47,0.22-0.69c-0.2-0.13-0.39-0.28-0.57-0.45c-0.28-0.26-0.53-0.55-0.74-0.88
		c0.05-0.02,0.09-0.03,0.14-0.05c0.33-0.11,0.66-0.17,0.99-0.2c0.24-0.02,0.49-0.03,0.73-0.01c0.06-0.23,0.15-0.46,0.25-0.68
		c0.16-0.35,0.36-0.68,0.61-0.98c0.03,0.04,0.06,0.08,0.09,0.12c0.2,0.28,0.37,0.57,0.5,0.88c0.1,0.22,0.18,0.46,0.23,0.69
		c0.24-0.01,0.48,0,0.73,0.02C264.34,46.37,264.72,46.47,265.08,46.61z"/>
</g>
</svg>
