<?xml version="1.0" encoding="utf-8"?>
<!-- Generator: Adobe Illustrator 26.0.3, SVG Export Plug-In . SVG Version: 6.00 Build 0)  -->
<svg version="1.1" id="Group_284" xmlns="http://www.w3.org/2000/svg" xmlns:xlink="http://www.w3.org/1999/xlink" x="0px" y="0px"
	 viewBox="0 0 147 137.2" style="enable-background:new 0 0 147 137.2;" xml:space="preserve">
<style type="text/css">
	.st0{clip-path:url(#SVGID_00000070092085158570836050000001074837132446855100_);}
	.st1{fill:#FFFFFF;}
</style>
<g>
	<defs>
		<rect id="SVGID_1_" x="1.5" width="134.7" height="137.2"/>
	</defs>
	<clipPath id="SVGID_00000146474896739815804850000005602273925619304840_">
		<use xlink:href="#SVGID_1_"  style="overflow:visible;"/>
	</clipPath>
	<g id="Group_283" style="clip-path:url(#SVGID_00000146474896739815804850000005602273925619304840_);">
		<path id="Path_108" class="st1" d="M136.2,56.3C136.2,25.2,111,0,79.9,0C57.2,0,36.8,13.6,28,34.5H3.6c-1.2,0-2.1,0.9-2.1,2.1
			c0,1.2,0.9,2.1,2.1,2.1h22.8c-9.7,29.5,6.4,61.4,35.9,71c1.1,0.4,2.3,0.7,3.4,1c0,0,0,0,0,0l-3.5,23.9c-0.2,1.2,0.6,2.2,1.8,2.4
			c0,0,0,0,0,0c0.1,0,0.2,0,0.3,0c1,0,1.9-0.8,2.1-1.8l3.4-23.7c6.7,1.2,13.6,1.2,20.3-0.1l3.4,23.7c0.2,1,1,1.8,2.1,1.8
			c0.1,0,0.2,0,0.3,0c1.2-0.2,2-1.2,1.8-2.4c0,0,0,0,0,0l-3.5-23.9c0,0,0-0.1,0-0.1C119,104.1,136.1,81.8,136.2,56.3 M79.9,4.2
			c20.3,0,38.8,11.8,47.3,30.3H32.6C41.1,16.1,59.6,4.2,79.9,4.2 M79.9,108.4c-28.8,0-52.1-23.3-52.1-52.1c0-6,1-11.9,3-17.6h98
			c9.7,27.1-4.4,56.9-31.5,66.6C91.8,107.3,85.9,108.4,79.9,108.4"/>
		<path id="Path_109" class="st1" d="M100.3,53.5c-11.1,0-14.2,8.4-14.4,8.8c-0.4,1.1,0.1,2.3,1.2,2.7c1.1,0.4,2.3-0.1,2.7-1.2
			c0,0,0,0,0-0.1c0-0.1,2.3-6,10.4-6c8.3,0,10.3,5.6,10.4,5.9c0.3,1.1,1.5,1.7,2.6,1.4c1.1-0.3,1.7-1.5,1.4-2.6l0,0
			C114.6,62,111.9,53.5,100.3,53.5"/>
		<path id="Path_110" class="st1" d="M69.8,63.6c0.4,1.1,1.6,1.7,2.7,1.3c1.1-0.4,1.7-1.5,1.4-2.6c-0.1-0.4-2.8-8.9-14.4-8.9
			c-11.1,0-14.2,8.4-14.4,8.8c-0.4,1.1,0.2,2.3,1.3,2.7c1.1,0.4,2.2-0.2,2.7-1.2c0.1-0.2,2.4-6,10.4-6
			C67.7,57.7,69.7,63.3,69.8,63.6"/>
		<path id="Path_111" class="st1" d="M93,82.4c-1.1-0.4-2.3,0.2-2.7,1.2c-0.1,0.2-2.4,6-10.4,6c-8.3,0-10.3-5.6-10.4-5.9
			c-0.3-1.1-1.5-1.7-2.6-1.4c-1.1,0.3-1.7,1.5-1.4,2.6c0.1,0.4,2.8,8.9,14.4,8.9c11.1,0,14.2-8.4,14.4-8.8
			C94.6,84,94.1,82.8,93,82.4"/>
	</g>
</g>
</svg>
