<?xml version="1.0" encoding="UTF-8"?><svg id="Warstwa_2" xmlns="http://www.w3.org/2000/svg" viewBox="0 0 141.73 141.73"><defs><style>.cls-1{fill:#fff;}.cls-2{fill:none;}</style></defs><g id="Warstwa_1-2"><rect class="cls-2" width="141.73" height="141.73"/><g id="Group_283"><path id="Path_108" class="cls-1" d="M135.38,58.67c0-31.1-25.2-56.3-56.3-56.3-22.7,0-43.1,13.6-51.9,34.5H2.78c-1.2,0-2.1,.9-2.1,2.1s.9,2.1,2.1,2.1H25.58c-9.7,29.5,6.4,61.4,35.9,71,1.1,.4,2.3,.7,3.4,1h0l-3.5,23.9c-.2,1.2,.6,2.2,1.8,2.4h.3c1,0,1.9-.8,2.1-1.8l3.4-23.7c6.7,1.2,13.6,1.2,20.3-.1l3.4,23.7c.2,1,1,1.8,2.1,1.8h.3c1.2-.2,2-1.2,1.8-2.4h0l-3.5-23.9v-.1c24.8-6.4,41.9-28.7,42-54.2M79.08,6.57c20.3,0,38.8,11.8,47.3,30.3H31.78C40.28,18.47,58.78,6.57,79.08,6.57m0,104.2c-28.8,0-52.1-23.3-52.1-52.1,0-6,1-11.9,3-17.6H127.98c9.7,27.1-4.4,56.9-31.5,66.6-5.5,2-11.4,3.1-17.4,3.1"/><path id="Path_109" class="cls-1" d="M99.48,55.87c-11.1,0-14.2,8.4-14.4,8.8-.4,1.1,.1,2.3,1.2,2.7s2.3-.1,2.7-1.2v-.1c0-.1,2.3-6,10.4-6s10.3,5.6,10.4,5.9c.3,1.1,1.5,1.7,2.6,1.4s1.7-1.5,1.4-2.6h0c0-.4-2.7-8.9-14.3-8.9"/><path id="Path_110" class="cls-1" d="M68.98,65.97c.4,1.1,1.6,1.7,2.7,1.3,1.1-.4,1.7-1.5,1.4-2.6-.1-.4-2.8-8.9-14.4-8.9s-14.2,8.4-14.4,8.8c-.4,1.1,.2,2.3,1.3,2.7s2.2-.2,2.7-1.2c.1-.2,2.4-6,10.4-6s10.2,5.6,10.3,5.9"/><path id="Path_111" class="cls-1" d="M92.18,84.77c-1.1-.4-2.3,.2-2.7,1.2-.1,.2-2.4,6-10.4,6s-10.3-5.6-10.4-5.9c-.3-1.1-1.5-1.7-2.6-1.4-1.1,.3-1.7,1.5-1.4,2.6,.1,.4,2.8,8.9,14.4,8.9s14.2-8.4,14.4-8.8c.3-1-.2-2.2-1.3-2.6"/></g></g></svg>