<?xml version="1.0" encoding="UTF-8"?><svg id="Warstwa_2" xmlns="http://www.w3.org/2000/svg" viewBox="0 0 141.73 141.73"><defs><style>.cls-1{fill:#fff;}.cls-2{fill:none;}</style></defs><g id="Warstwa_1-2"><rect class="cls-2" width="141.73" height="141.73"/><path class="cls-1" d="M133.54,74.43c-10.14-1.58-19.69-6.37-27.03-13.51,2.94-6.75,5.27-13.24,5.27-21.89,0-12.3-7.26-30.6-27.28-30.6-6.17,0-10.36,2.11-14.07,3.97-3.45,1.73-6.7,3.37-11.47,3.37-3.48,0-6.17-.87-8.71-2.01-.18-.13-.36-.27-.52-.39h0c-.07-.07-.14-.12-.22-.16-.41-.26-.87-.39-1.33-.43-.26-.13-.52-.26-.78-.38-3.72-1.86-7.93-3.96-14.03-3.96C13.35,8.43,6.08,26.73,6.08,39.03c0,10.06,3.09,17.02,6.37,24.39,2.76,6.21,5.62,12.64,6.63,21.37,3.12,35.81,13.5,48.52,21.45,48.52,5.03,0,9.14-4.04,9.25-9.05l5.13-34.04s0-.07,.01-.1c0-.04,.47-3.9,4.01-3.9,2.04,0,3.75,1.53,3.97,3.56,0,.03,0,.07,.01,.1l5.16,34.39c.11,5.01,4.22,9.05,9.25,9.05,4.17,0,8.38-3.43,11.85-9.53,3.73,3.31,8.02,6.38,12.88,9.19,.39,.22,.82,.34,1.25,.34s.87-.11,1.25-.34c20.63-11.95,31.09-28.62,31.09-49.53v-6.53c0-1.23-.9-2.28-2.12-2.47Zm-56.21,53.87c-2.34,0-4.25-1.91-4.25-4.25,0-.12,0-.25-.03-.37l-5.18-34.51c-.52-4.54-4.35-7.96-8.93-7.96-5.89,0-8.58,4.95-8.97,8.31l-5.15,34.17c-.02,.12-.03,.25-.03,.37,0,2.34-1.91,4.25-4.25,4.25-3.28,0-13.34-8.07-16.47-44.02-1.11-9.56-4.12-16.34-7.04-22.9-3.05-6.87-5.94-13.36-5.94-22.35,0-7.12,4-25.6,22.28-25.6,4.93,0,8.27,1.67,11.8,3.43,.11,.06,.22,.11,.34,.17,.22,.39,.53,.74,.93,.99,.61,.39,1.16,.72,1.72,1.04,.56,.32,1.13,.65,1.7,.95,1.14,.62,2.29,1.22,3.46,1.78,2.33,1.13,4.72,2.15,7.15,3.05,2.45,.89,4.97,1.61,7.52,2.15,2.59,.52,5.23,.76,7.88,.7,.73-.02,1.33-.6,1.38-1.33,.05-.79-.54-1.47-1.33-1.52h-.05c-2.38-.18-4.73-.62-7.01-1.31-2.3-.73-4.56-1.61-6.74-2.65-.18-.08-.35-.18-.52-.27,4.54-.48,7.87-2.13,11.09-3.75,3.52-1.77,6.84-3.44,11.82-3.44,18.28,0,22.28,18.48,22.28,25.6,0,8.22-2.33,14.2-5.39,21.12l-.89,.86c-7.4,7.12-16.68,11.71-26.82,13.29l-.84,.13c-1.22,.19-2.12,1.24-2.12,2.47v6.53c0,14.25,4.94,26.55,14.72,36.76-3.08,5.93-6.23,8.11-8.12,8.11Zm53.33-44.87c0,18.85-8.95,33.41-27.35,44.47-18.56-11.15-27.59-25.71-27.59-44.47v-4.41c10.47-1.88,20.06-6.71,27.82-14.02,7.49,7.1,16.99,11.99,27.12,13.99v4.43Z"/></g></svg>