<svg id="Group_239" data-name="Group 239" xmlns="http://www.w3.org/2000/svg" xmlns:xlink="http://www.w3.org/1999/xlink" width="136.149" height="130.448" viewBox="0 0 136.149 130.448">
  <defs>
    <clipPath id="clip-path">
      <rect id="Rectangle_125" data-name="Rectangle 125" width="136.149" height="130.448" fill="none" stroke="#fff" stroke-width="5"/>
    </clipPath>
  </defs>
  <g id="Group_238" data-name="Group 238" clip-path="url(#clip-path)">
    <path id="Path_69" data-name="Path 69" d="M101.519,56.918c2.98-6.725,5.685-13.26,5.685-22.312,0-10.108-5.949-28.1-24.778-28.1-11.076,0-14.743,7.345-25.54,7.345S42.275,6.51,31.288,6.51C12.459,6.51,6.51,24.5,6.51,34.607c0,18.036,10.74,26.079,12.994,45.544,3.011,34.539,12.889,46.232,18.957,46.232a6.751,6.751,0,0,0,6.751-6.751l5.154-34.213c.12-1.1,1.324-6.134,6.492-6.134a6.493,6.493,0,0,1,6.454,5.789L68.5,119.631a6.751,6.751,0,0,0,6.752,6.751c3.305,0,7.659-3.294,11.45-11.757" transform="translate(-3.656 -3.656)" fill="none" stroke="#fff" stroke-linecap="round" stroke-linejoin="round" stroke-width="5"/>
    <path id="Path_70" data-name="Path 70" d="M94.437,11.28c.42.328.93.7,1.411,1.044s.986.7,1.492,1.032q1.507,1.021,3.07,1.967c2.081,1.262,4.217,2.434,6.408,3.48a54.093,54.093,0,0,0,6.742,2.645,32.969,32.969,0,0,0,7.012,1.309l.054,0a1.427,1.427,0,0,1-.054,2.85,36.085,36.085,0,0,1-7.877-.7,57.867,57.867,0,0,1-7.518-2.152,77.589,77.589,0,0,1-7.154-3.046q-1.75-.845-3.459-1.779c-.572-.306-1.138-.63-1.7-.954s-1.114-.651-1.723-1.04a2.857,2.857,0,1,1,3.068-4.821c.077.049.151.1.221.156Z" transform="translate(-50.44 -5.992)" fill="#fff"/>
    <path id="Path_71" data-name="Path 71" d="M197.68,133.008l.332.339a52.221,52.221,0,0,0,29.259,15.045v6.532c0,22.239-12.019,37.041-29.847,47.368-17.829-10.328-30.089-25.282-30.089-47.368v-6.532l.837-.13A52.222,52.222,0,0,0,196.341,134.3Z" transform="translate(-93.977 -74.698)" fill="none" stroke="#fff" stroke-linecap="round" stroke-linejoin="round" stroke-width="5"/>
  </g>
</svg>
