<svg xmlns="http://www.w3.org/2000/svg" viewBox="0 0 131.59 155.89"><defs><style>.cls-1{fill:#fff;}</style></defs><g id="Warstwa_2" data-name="Warstwa 2"><g id="Warstwa_1-2" data-name="Warstwa 1"><path class="cls-1" d="M127.17,99.74A47.73,47.73,0,0,1,100.6,86.07l-.32-.32a2.38,2.38,0,0,0-3.36,0l-1.27,1.23A47.17,47.17,0,0,1,70.07,99.61l-.8.13a2.38,2.38,0,0,0-2,2.35v6.23a48.87,48.87,0,0,0,9.09,29.11c-3.13,6.65-6.45,9-8.39,9a4.06,4.06,0,0,1-4.05-4.06,2.07,2.07,0,0,0,0-.35l-4.94-32.92a8.57,8.57,0,0,0-8.52-7.6c-5.61,0-8.19,4.72-8.56,7.93l-4.91,32.59c0,.12,0,.23,0,.35a4.06,4.06,0,0,1-4.06,4.06c-3.13,0-12.72-7.7-15.71-42-1.06-9.12-3.93-15.59-6.72-21.85C7.52,76.09,4.77,69.9,4.77,61.32c0-6.79,3.85-25.41,21.25-24.41,6.65.38,13.57,5.06,14.11,5.37s1.07.61,1.62.91c1.09.59,2.19,1.16,3.3,1.69a70.54,70.54,0,0,0,6.82,2.91A55.83,55.83,0,0,0,59,49.84a34.56,34.56,0,0,0,7.52.67,1.36,1.36,0,0,0,0-2.72h0a31.08,31.08,0,0,1-6.69-1.25A50.72,50.72,0,0,1,53.44,44l-.5-.25a29.13,29.13,0,0,0,10.58-3.59c3.36-1.68,6.53-3.28,11.28-3.28,17.43,0,21.25,17.63,21.25,24.42,0,7.91-2.26,13.65-5.22,20.32a2.38,2.38,0,0,0,4.36,1.93c3.08-6.95,5.63-13.42,5.63-22.25,0-11.73-6.93-29.19-26-29.19-5.88,0-9.89,2-13.42,3.79-3.29,1.66-6.39,3.22-10.94,3.22a19.43,19.43,0,0,1-8.32-1.92c-.17-.13-2.47-1.18-2.71-1.31-3.55-1.77-7.57-3.77-13.39-3.77C6.93,32.14,0,49.59,0,61.32c0,9.59,3,16.23,6.08,23.26C8.71,90.51,11.44,96.64,12.4,105c3,34.16,12.89,46.28,20.46,46.28a8.84,8.84,0,0,0,8.82-8.63l4.89-32.48s0-.06,0-.09.44-3.73,3.82-3.73a3.81,3.81,0,0,1,3.79,3.4.28.28,0,0,0,0,.09l4.92,32.8A8.84,8.84,0,0,0,68,151.25c4.13,0,8.28-3.5,11.66-9.71a69.17,69.17,0,0,0,17.53,14,2.39,2.39,0,0,0,2.39,0c19.68-11.4,29.66-27.3,29.66-47.25v-6.23A2.38,2.38,0,0,0,127.17,99.74Zm-2.75,8.58c0,18-8.54,31.87-26.08,42.42C80.63,140.1,72,126.22,72,108.32v-4.2A52,52,0,0,0,98.56,90.75a52.5,52.5,0,0,0,25.86,13.34Z"/><path class="cls-1" d="M124.49,8.06a2.86,2.86,0,0,1-.36.48,19.47,19.47,0,0,1-2.78,3.07A17.64,17.64,0,0,1,119,13.39a17.7,17.7,0,0,1,.84,2.86,19.47,19.47,0,0,1,.35,4.72c-.17,0-.38-.1-.58-.18a18.72,18.72,0,0,1-3.78-1.7,18.06,18.06,0,0,1-2.43-1.72A18,18,0,0,1,110.9,19a20.15,20.15,0,0,1-4.39,1.8v-.58a17.92,17.92,0,0,1,.46-4.11,17.7,17.7,0,0,1,.89-2.84,16,16,0,0,1-2.36-1.82,18.08,18.08,0,0,1-3-3.6c.17-.08.38-.13.55-.21a19,19,0,0,1,4.06-.83,15.72,15.72,0,0,1,3,0,17.87,17.87,0,0,1,1-2.79,17.93,17.93,0,0,1,2.48-4c.13.15.23.33.36.48a18.5,18.5,0,0,1,2,3.6,18.76,18.76,0,0,1,1,2.82,19.91,19.91,0,0,1,7.56,1.16Z"/><path class="cls-1" d="M80.59,7.22c-.07.1-.12.2-.2.3a11.19,11.19,0,0,1-1.72,1.9,13,13,0,0,1-1.47,1.12,11.11,11.11,0,0,1,.5,1.77,10.92,10.92,0,0,1,.23,2.92c-.13,0-.23-.08-.35-.1a11.83,11.83,0,0,1-2.34-1.07A8.74,8.74,0,0,1,73.75,13a13.16,13.16,0,0,1-1.52,1,11,11,0,0,1-2.72,1.11v-.38a11.75,11.75,0,0,1,.28-2.53,10.21,10.21,0,0,1,.56-1.75A10.37,10.37,0,0,1,68.9,9.35,11.47,11.47,0,0,1,67,7.12L67.38,7a11.31,11.31,0,0,1,2.51-.51,11.44,11.44,0,0,1,1.85,0,10.9,10.9,0,0,1,.64-1.73,11,11,0,0,1,1.54-2.48l.23.3a11.53,11.53,0,0,1,1.27,2.23A8.76,8.76,0,0,1,76,6.53a16.45,16.45,0,0,1,1.85,0A9.06,9.06,0,0,1,80.59,7.22Z"/><path class="cls-1" d="M131.59,43.49c-.07.1-.12.21-.2.31a11.58,11.58,0,0,1-1.72,1.9,14.16,14.16,0,0,1-1.47,1.11,11.23,11.23,0,0,1,.5,1.78,10.92,10.92,0,0,1,.23,2.92c-.13,0-.23-.08-.35-.11a12.4,12.4,0,0,1-2.34-1.06,8.79,8.79,0,0,1-1.49-1.07,12,12,0,0,1-1.52,1,10.68,10.68,0,0,1-2.72,1.12v-.38a11.84,11.84,0,0,1,.28-2.54,10.21,10.21,0,0,1,.56-1.75,10.37,10.37,0,0,1-1.45-1.14A11.18,11.18,0,0,1,118,43.39c.12,0,.23-.07.35-.13a11.28,11.28,0,0,1,2.51-.5,11.45,11.45,0,0,1,1.85,0,11.17,11.17,0,0,1,.64-1.72,10.87,10.87,0,0,1,1.54-2.49l.23.31a11.24,11.24,0,0,1,1.27,2.23,8.55,8.55,0,0,1,.58,1.75,14.39,14.39,0,0,1,1.85,0A8.48,8.48,0,0,1,131.59,43.49Z"/></g></g></svg>