<?xml version="1.0" encoding="UTF-8"?><svg id="Warstwa_2" xmlns="http://www.w3.org/2000/svg" viewBox="0 0 141.73 141.73"><defs><style>.cls-1{fill:#fff;}.cls-2{fill:none;}</style></defs><g id="Warstwa_1-2"><rect class="cls-2" width="141.73" height="141.73"/><path class="cls-1" d="M130.66,108l-18.97-31.25c8.07-5.63,13.75-13.9,16.11-23.54,2.57-10.51,.9-21.39-4.72-30.63C111.5,3.49,86.55-2.62,67.46,8.96c-9.25,5.61-15.76,14.49-18.33,25s-.9,21.39,4.72,30.63c5.61,9.25,14.49,15.76,25,18.33,3.22,.79,6.47,1.18,9.7,1.18,3.78,0,7.52-.55,11.15-1.6-.54,2.23-.99,4.6-1.29,7.19-3.03,34.7-12.54,43.39-16.12,43.92-.12,.02-.24,.03-.35,.03-.88,0-1.7-.27-2.37-.73-1.13-.76-1.88-2.06-1.88-3.52,0-.12,0-.25-.03-.37l-.58-3.86-4.6-30.65c-.3-2.64-1.72-4.89-3.75-6.32-.96-.71-2.12-1.24-3.49-1.49-.02,0-.04,0-.06,0-.24-.04-.47-.08-.72-.1-.3-.03-.6-.05-.91-.05,0,0,0,0,0,0s0,0,0,0c-.31,0-.61,.02-.91,.05-.25,.02-.49,.06-.72,.1-.02,0-.04,0-.05,0-1.39,.25-2.56,.79-3.53,1.51-2.01,1.43-3.41,3.67-3.72,6.29l-4.62,30.79-.56,3.72c-.02,.12-.03,.25-.03,.37,0,1.46-.74,2.76-1.88,3.52-.68,.46-1.5,.73-2.37,.73-.11,0-.23-.01-.35-.03-3.59-.53-13.1-9.22-16.13-43.99-1.11-9.56-4.12-16.35-7.04-22.9-.16-.35-.31-.7-.47-1.06,0,0,0,0,0,0-1.14-2.57-2.17-5-3.03-7.47-.03-.08-.06-.17-.09-.25-.24-.7-.46-1.41-.67-2.12-.06-.19-.11-.38-.17-.57-.18-.65-.35-1.32-.5-1.98-.06-.24-.11-.49-.16-.73-.14-.67-.27-1.35-.37-2.04-.03-.22-.06-.45-.1-.68-.1-.75-.19-1.51-.25-2.3-.01-.14-.02-.28-.03-.42-.06-.89-.1-1.79-.1-2.73,0-7.12,4-25.6,22.28-25.6,3.14,0,5.63,.68,7.93,1.62,1.18,.48,2.53,0,3.14-1.13h0c.71-1.31,.13-2.95-1.25-3.52-2.72-1.11-5.86-1.98-9.82-1.98-20.01,0-27.28,18.3-27.28,30.6h0s0,.01,0,.02c0,.59,.01,1.17,.03,1.75,.01,.32,.03,.63,.05,.94,.01,.24,.02,.49,.04,.73,.03,.43,.07,.86,.12,1.28,.01,.1,.02,.2,.03,.3,.77,7.02,3.08,12.57,5.6,18.24,0,.02,.02,.04,.03,.07,0,0,0,0,0,0,.16,.35,.31,.7,.47,1.06,2.76,6.21,5.62,12.64,6.63,21.38,1.39,15.89,4.2,27.22,7.6,34.92,.03,.12,.07,.24,.12,.36,2.77,6.18,6.21,10.41,9.8,12.23,.02,.01,.05,.03,.07,.04,.19,.09,.38,.17,.57,.25,.1,.04,.21,.09,.31,.13,.16,.06,.31,.11,.47,.16,.14,.05,.28,.09,.42,.13,.13,.04,.27,.07,.4,.1,.18,.04,.36,.07,.54,.1,.1,.01,.19,.03,.29,.04,.29,.03,.57,.05,.85,.05,1.57,0,3.06-.39,4.35-1.09,2.86-1.53,4.82-4.52,4.9-7.96l.47-3.15,4.65-30.89s0-.07,.01-.1c0-.03,.26-2.08,1.76-3.2,.05-.04,.1-.08,.15-.11,0,0,0,0,0,0,.4-.25,.86-.43,1.34-.52,0,0,0,0,0,0,.24-.05,.49-.07,.74-.07,0,0,0,0,0,0s0,0,0,0c.25,0,.5,.02,.74,.07,0,0,0,0,0,0,.48,.09,.93,.27,1.33,.52,0,0,0,0,.01,0,.05,.03,.09,.07,.14,.1,1.51,1.11,1.77,3.18,1.77,3.21,0,.03,0,.07,.01,.1l4.6,30.54,.53,3.5c.07,3.13,1.7,5.88,4.14,7.51,1.47,.98,3.22,1.54,5.11,1.54,.28,0,.57-.02,.85-.05,.1-.01,.2-.03,.29-.04,.18-.03,.36-.06,.54-.1,.13-.03,.27-.06,.4-.1,.14-.04,.28-.08,.42-.12,.16-.05,.32-.1,.47-.16,.1-.04,.21-.09,.31-.13,.19-.08,.38-.16,.56-.25,.03-.01,.05-.03,.08-.04,3.59-1.82,7.03-6.05,9.8-12.23,.05-.11,.07-.21,.11-.32,3.4-7.69,6.22-19.01,7.6-34.89,.42-3.65,1.17-6.88,2.09-9.86,.57-.27,1.14-.53,1.7-.83l18.96,31.25c.5,.82,1.37,1.28,2.27,1.28,.47,0,.94-.12,1.37-.38,1.25-.76,1.65-2.39,.89-3.64Zm-23.93-34.33c-8.04,4.88-17.49,6.33-26.62,4.1-9.13-2.23-16.85-7.89-21.72-15.93-6.69-11.03-6.58-24.31-.89-34.94,.14,.07,.28,.15,.43,.22,2.33,1.13,4.72,2.15,7.15,3.05,2.45,.89,4.97,1.61,7.52,2.15,2.59,.52,5.23,.76,7.88,.7,.73-.02,1.33-.6,1.38-1.33,.05-.79-.54-1.47-1.33-1.52h-.05c-2.38-.18-4.73-.62-7.01-1.31-2.3-.73-4.56-1.61-6.74-2.64-.18-.08-.35-.18-.52-.27,4.01-.42,7.07-1.76,9.95-3.18,.39-.19,.78-.39,1.17-.58,3.53-1.76,6.87-3.43,11.8-3.43,18.27,0,22.28,18.48,22.28,25.6,0,.94-.04,1.84-.1,2.73,0,.14-.01,.28-.03,.42-.06,.79-.15,1.55-.25,2.3-.03,.23-.06,.46-.1,.69-.11,.69-.23,1.37-.37,2.03-.05,.25-.11,.5-.16,.74-.15,.66-.32,1.32-.5,1.97-.06,.2-.11,.39-.17,.59-.21,.7-.43,1.41-.67,2.1-.03,.1-.07,.19-.1,.28-.39,1.12-.82,2.24-1.28,3.37-.53,1.31,.11,2.8,1.44,3.29h0c1.27,.47,2.68-.14,3.19-1.39,1.77-4.32,3.24-8.78,3.82-14.1,.01-.1,.02-.21,.03-.32,.04-.42,.08-.84,.12-1.27,.02-.25,.03-.5,.04-.75,.02-.31,.04-.61,.05-.92,.02-.57,.03-1.16,.03-1.75,0,0,0,0,0-.01h0c0-12.3-7.26-30.6-27.28-30.6-6.17,0-10.36,2.11-14.07,3.97-.32,.16-.63,.32-.95,.47-3.13,1.54-6.24,2.89-10.56,2.9-.71,0-1.39-.05-2.04-.12,2.41-2.88,5.32-5.43,8.71-7.48,5.69-3.45,11.98-5.1,18.2-5.1,11.9,0,23.53,6.03,30.15,16.93,4.88,8.04,6.33,17.49,4.1,26.62s-7.89,16.85-15.93,21.72Z"/></g></svg>