<svg xmlns="http://www.w3.org/2000/svg" xmlns:xlink="http://www.w3.org/1999/xlink" width="137" height="137" viewBox="0 0 137 137">
  <defs>
    <clipPath id="clip-path">
      <rect id="Rectangle_165" data-name="Rectangle 165" width="137" height="137" fill="#fff"/>
    </clipPath>
  </defs>
  <g id="Group_286" data-name="Group 286" transform="translate(0 154)">
    <g id="Group_285" data-name="Group 285" transform="translate(0 -154)" clip-path="url(#clip-path)">
      <path id="Path_112" data-name="Path 112" d="M136.336,92.687l-26.793-28.32A38.226,38.226,0,1,0,87.443,76.2a57.521,57.521,0,0,0-3.358,13.777c0,.023,0,.045-.007.068-1.6,18.353-5.082,28.517-7.722,33.812-3.047,6.113-6.147,8.29-8.031,8.29A4.049,4.049,0,0,1,64.28,128.1a2.4,2.4,0,0,0-.027-.361L59.283,94.658A8.638,8.638,0,0,0,50.689,87c-5.66,0-8.254,4.757-8.63,7.989L37.126,127.74a2.423,2.423,0,0,0-.027.362,4.049,4.049,0,0,1-4.045,4.045c-3.135,0-12.758-7.735-15.754-42.1,0-.023,0-.045-.007-.068C16.231,80.8,13.34,74.3,10.545,68.014,7.618,61.431,4.854,55.214,4.854,46.6c0-6.816,3.831-24.507,21.325-24.507,4.717,0,7.915,1.6,11.3,3.288l.562.28A2.427,2.427,0,1,0,40.2,21.312l-.554-.276c-3.566-1.781-7.608-3.8-13.47-3.8A23.785,23.785,0,0,0,5.515,28.151,34.537,34.537,0,0,0,0,46.6c0,9.647,2.967,16.322,6.11,23.389,2.644,5.947,5.378,12.1,6.358,20.515,3,34.318,12.962,46.5,20.586,46.5a8.909,8.909,0,0,0,8.9-8.7l4.916-32.632c0-.033.009-.065.013-.1s.444-3.716,3.811-3.716a3.792,3.792,0,0,1,3.774,3.385c0,.033.008.065.013.1L59.428,128.3a8.909,8.909,0,0,0,8.9,8.7c7.624,0,17.588-12.177,20.586-46.5.745-6.4,2.273-10.489,4.206-15.653a38.312,38.312,0,0,0,12.911-7.134L132.81,96.023a2.427,2.427,0,0,0,3.526-3.336M47.945,38.336a33.5,33.5,0,0,1,.585-6.2,60.721,60.721,0,0,0,8.12,2.617A34.427,34.427,0,0,0,66.92,35.8a1.439,1.439,0,0,0,.019-2.871H66.92a30.958,30.958,0,0,1-8.974-2.287c-1.307-.527-2.591-1.117-3.855-1.753a30.5,30.5,0,0,0,9.791-3.506c3.369-1.694,6.551-3.295,11.318-3.295,17.494,0,21.325,17.69,21.325,24.507a37.6,37.6,0,0,1-2.177,12.714q-.182.582-.361,1.163A2.427,2.427,0,1,0,98.629,61.9q.174-.569.353-1.138a42.74,42.74,0,0,0,2.4-14.161,34.537,34.537,0,0,0-5.515-18.447A23.785,23.785,0,0,0,75.2,17.237c-5.919,0-9.945,2.025-13.5,3.812-3.217,1.619-6.265,3.145-10.647,3.221a33.463,33.463,0,1,1-3.109,14.066" fill="#fff"/>
    </g>
  </g>
</svg>
