<svg id="Group_270" data-name="Group 270" xmlns="http://www.w3.org/2000/svg" xmlns:xlink="http://www.w3.org/1999/xlink" width="127.083" height="129.998" viewBox="0 0 127.083 129.998">
  <defs>
    <clipPath id="clip-path">
      <rect id="Rectangle_156" data-name="Rectangle 156" width="127.083" height="129.998" fill="#fff"/>
    </clipPath>
  </defs>
  <g id="Group_269" data-name="Group 269" clip-path="url(#clip-path)">
    <path id="Path_88" data-name="Path 88" d="M91.1,123.8a2.035,2.035,0,0,0-1.449-.6H46.05l3.827-6.849H79.12a2.049,2.049,0,1,0,0-4.1H48.675a2.051,2.051,0,0,0-1.789,1.05L34.443,135.572,5.449,106.578a4.688,4.688,0,0,1-.055-6.543A4.633,4.633,0,0,1,8.7,98.612a4.569,4.569,0,0,1,3.333,1.354l21.429,21.266a2.05,2.05,0,0,0,2.887-2.91L14.923,97.057a8.766,8.766,0,0,0-12.475.128,8.806,8.806,0,0,0,.1,12.292l30.911,30.91a.455.455,0,0,0,.054.045c.049.046.1.088.157.129s.114.085.188.132l.05.034c.061.034.122.061.184.088l.041.019a2.176,2.176,0,0,0,.342.1l.069.013a2.138,2.138,0,0,0,.368.036h3.545a1.972,1.972,0,0,0-.125.688v10.947a2.052,2.052,0,0,0,2.049,2.049h3.254v9.97a2.049,2.049,0,0,0,4.1,0v-9.97H72.375v9.97a2.049,2.049,0,0,0,4.1,0v-9.97H78.7a2.052,2.052,0,0,0,2.049-2.049V140.987h2.576l25.863,25.863a8.851,8.851,0,0,0,3.629,2.191,2.036,2.036,0,0,0-.229.937v10.7H88.961v-.688a10.271,10.271,0,0,0-10.26-10.26H40.384a10.272,10.272,0,0,0-10.26,10.26v2.737a2.052,2.052,0,0,0,2.049,2.049h82.465a2.052,2.052,0,0,0,2.049-2.049V169.977a2.035,2.035,0,0,0-.1-.621,8.823,8.823,0,0,0,5.076-14.984ZM42.308,140.987H76.651v9.586H42.433v-8.9a1.972,1.972,0,0,0-.125-.688m77.842,19.731a4.724,4.724,0,0,1-8.063,3.234L85.624,137.489a2.034,2.034,0,0,0-1.449-.6H38.4L43.76,127.3H88.8l29.968,29.968a4.682,4.682,0,0,1,1.382,3.448M34.222,179.991a6.168,6.168,0,0,1,6.161-6.161H78.7a6.168,6.168,0,0,1,6.161,6.161v.688H34.222Z" transform="translate(0 -54.78)" fill="#fff"/>
    <path id="Path_89" data-name="Path 89" d="M154.107,0H101.414a2.052,2.052,0,0,0-2.049,2.049v7.04a29.671,29.671,0,0,0-21.092,19.5,2.05,2.05,0,0,0,1.943,2.7h52.692a2.05,2.05,0,0,0,1.943-2.7,29.756,29.756,0,0,0-20.44-19.33V4.1h39.7A14.2,14.2,0,0,1,168.29,18.281V55.106h-6.3V42.668a2.051,2.051,0,0,0-2.049-2.049H118.363a2.051,2.051,0,0,0-2.049,2.049v8.645a2.049,2.049,0,1,0,4.1,0v-6.6h37.482V84.157a2.049,2.049,0,1,0,4.1,0V59.2h8.346a2.052,2.052,0,0,0,2.049-2.049V18.281A18.3,18.3,0,0,0,154.107,0M129.891,27.193H83.234a25.724,25.724,0,0,1,46.657,0M110.313,8.45a29.387,29.387,0,0,0-6.849-.075V4.1h6.849Z" transform="translate(-45.306 0.001)" fill="#fff"/>
  </g>
</svg>
