<?xml version="1.0" encoding="UTF-8"?><svg id="Warstwa_2" xmlns="http://www.w3.org/2000/svg" viewBox="0 0 141.73 141.73"><defs><style>.cls-1{fill:#fff;}.cls-2{fill:none;}</style></defs><g id="Warstwa_1-2"><rect class="cls-2" width="141.73" height="141.73"/><g><path class="cls-1" d="M129.17,105.28l-30.56-30.57c-.43-.43-1.01-.67-1.62-.67H53.81l3.55-6.35h29.1c1.27,0,2.3-1.03,2.3-2.3s-1.03-2.3-2.3-2.3h-30.44c-.83,0-1.6,.45-2.01,1.18l-12.28,21.98L12.96,57.49c-1.71-1.72-1.73-4.44-.05-6.19,.81-.85,1.95-1.34,3.13-1.35,1.17-.04,2.32,.45,3.15,1.28l21.43,21.27c.43,.41,.99,.63,1.58,.63,.02,0,.04,0,.06,0,.61-.01,1.19-.27,1.61-.71,.85-.9,.85-2.29-.02-3.19l-21.43-21.26c-3.53-3.5-9.25-3.48-12.75,.05l-.08,.08c-3.42,3.57-3.38,9.12,.1,12.64l30.91,30.91s.05,.05,.06,.05c.06,.05,.12,.1,.22,.18,.05,.04,.1,.07,.16,.11l.07,.05c.07,.04,.14,.07,.2,.09l.06,.03c.12,.05,.25,.08,.39,.11h.07c.14,.04,.27,.05,.42,.05h3.21c-.03,.14-.04,.29-.04,.44v10.95c0,1.27,1.03,2.3,2.3,2.3h3v9.72c0,1.27,1.03,2.3,2.3,2.3s2.3-1.03,2.3-2.3v-9.72h24.14v9.72c0,1.27,1.03,2.3,2.3,2.3s2.3-1.03,2.3-2.3v-9.72h1.97c1.27,0,2.3-1.03,2.3-2.3v-11.38h2.22l25.79,25.79c.97,.97,2.17,1.72,3.47,2.17-.09,.25-.14,.52-.14,.79v10.45h-23.13v-.44c0-5.79-4.72-10.5-10.51-10.51H47.72c-5.79,0-10.5,4.72-10.51,10.51v2.74c0,1.27,1.03,2.3,2.3,2.3H121.97c1.27,0,2.3-1.03,2.3-2.3v-12.75c0-.14-.01-.28-.04-.41,2.29-.38,4.32-1.59,5.73-3.44,1.47-1.92,2.11-4.31,1.79-6.71-.26-1.96-1.18-3.82-2.58-5.22Zm-79.2-12.96h33.76v9.09H50.02v-8.65c0-.15-.01-.29-.04-.44Zm77.26,19.47h0c-.03,1.2-.52,2.31-1.38,3.13-.86,.83-1.99,1.28-3.19,1.24-1.16-.03-2.25-.49-3.06-1.31l-26.46-26.46c-.43-.43-1.01-.67-1.62-.67H46.16l5.08-9.09h44.79l29.9,29.9c.86,.86,1.34,2.05,1.31,3.26Zm-35.29,19.28v.44H41.81v-.44c0-3.25,2.66-5.91,5.91-5.91h38.32c3.26,0,5.91,2.66,5.91,5.91Z"/><path class="cls-1" d="M116.14,5.62H63.44c-1.27,0-2.3,1.03-2.3,2.3v6.84c-9.97,2.52-17.85,9.84-21.08,19.62-.19,.58-.15,1.21,.12,1.75,.27,.55,.75,.96,1.33,1.16,.23,.08,.48,.12,.73,.12h52.69c.61,0,1.19-.24,1.63-.67,.43-.44,.67-1.01,.67-1.63,0-.25-.04-.49-.12-.73-3.16-9.5-10.79-16.76-20.43-19.44v-4.72h39.45c7.67,.01,13.92,6.26,13.93,13.93V60.73h-5.8v-12.19c0-1.27-1.03-2.3-2.3-2.3h-41.58c-1.27,0-2.3,1.03-2.3,2.3v8.65c0,1.27,1.03,2.3,2.3,2.3s2.3-1.03,2.3-2.3v-6.35h36.98v39.19c0,1.27,1.03,2.3,2.3,2.3s2.3-1.03,2.3-2.3v-24.71h8.1c1.27,0,2.3-1.03,2.3-2.3V24.15c-.01-10.21-8.33-18.52-18.53-18.53Zm-24.61,27.19H45.66c2.9-6,7.92-10.54,14.19-12.84,6.39-2.33,13.31-2.04,19.48,.82,5.33,2.47,9.65,6.73,12.2,12.01Zm-25.78-18.84v-3.75h6.35v3.82c-1.16-.14-2.33-.21-3.49-.21-.95,0-1.91,.05-2.86,.14Z"/></g></g></svg>