<?xml version="1.0" encoding="UTF-8"?><svg id="Warstwa_2" xmlns="http://www.w3.org/2000/svg" viewBox="0 0 141.73 141.73"><defs><style>.cls-1{fill:#fff;}.cls-2{fill:none;}</style></defs><g id="Warstwa_1-2"><rect class="cls-2" width="141.73" height="141.73"/><g id="Warstwa_2-2"><g id="Warstwa_1-2"><g id="Group_275"><path id="Path_95" class="cls-1" d="M137.27,39.62c.7-1.4,9.9-20.7-3.6-33-9.3-8.5-29.8-2.1-46.2,3-6.7,2.1-13,4.1-16.1,4.1-4.9-.1-11.6-2.4-18.7-4.8C38.57,4.02,22.57-1.48,10.07,6.02,2.67,10.52-.43,18.12,1.17,27.92c.78,4.35,2.19,8.56,4.2,12.5v.2c-.28,3.43-.32,6.87-.1,10.3,.6,5.4,4.8,8,12.7,8,2.7,0,5,0,6.5-.8,2.1,3.1,6.5,4.6,13.2,4.6,3.6,0,6.4,0,8.1-1.1,1.8,3.3,5.7,4.8,15.4,4.8,3.7,0,7.8-.3,10.1-2,2.3,1.7,6.4,2,10.1,2,9.7,0,13.6-1.6,15.4-4.8,1.7,1.1,4.5,1.1,8.1,1.1,6.8,0,11.1-1.5,13.2-4.6,1.5,.8,3.8,.8,6.5,.8,8,0,12.2-2.6,12.7-8,.22-3.43,.18-6.87-.1-10.3,.08-.33,.12-.66,.1-1M12.37,9.82c10.8-6.5,25.7-1.3,38.8,3.2,7.5,2.6,14.5,5,20.1,5,3.7,0,9.7-1.9,17.4-4.3,14.6-4.5,34.5-10.8,41.9-4s6.2,16.9,4.5,22.9c-.48-.7-1.06-1.34-1.7-1.9-1.89-1.51-4.3-2.19-6.7-1.9-3.49,.4-6.59,2.39-8.4,5.4-2.2-4.6-7.3-5.4-10.6-5.4-5.1,0-8.5,2.8-10.6,6.7-1.7-3.4-5.4-6.7-12.3-6.7s-11.2,4.2-13.5,9.6c-2.3-5.4-6.6-9.6-13.5-9.6s-10.6,3.3-12.3,6.7c-2.1-3.9-5.5-6.7-10.6-6.7-3.3,0-8.5,.8-10.6,5.4-1.81-3.01-4.91-5-8.4-5.4-2.4-.39-4.86,.31-6.7,1.9-.8,.74-1.51,1.58-2.1,2.5-2.3-6.5-4.2-17.6,5.3-23.4m10.1,44.7c-1.46,.22-2.93,.28-4.4,.2-8,0-8.3-2.7-8.5-4.2-.17-3.2-.13-6.41,.1-9.6,0-.9,.1-1.8,.1-2.6,.26-1.6,1.03-3.08,2.2-4.2,.74-.59,1.66-.91,2.6-.9h.7c6.1,.8,7.2,7.9,7.4,10.1,.1,3.5,0,6.9-.2,10.4,.1,.2,0,.5,0,.8m20.9,3.6c-.5,.4-3.1,.4-5.6,.4-9.8,0-10.2-3.4-10.4-5.1-.23-3.7-.17-7.41,.2-11.1,.1-1,.1-2,.2-3v-.2c.1-1.9,.2-5.8,7.3-5.8s8.6,9,8.8,11.8c.09,1,.12,2,.1,3v1.22c-.1,3.4-.3,7.2-.4,7.8-.03,.34-.09,.68-.2,1m25.3,2.8c-.3,.2-1.7,1.1-7.5,1.1-11.2,0-11.6-2-12.3-4.7-1-4.4-.7-10.5-.4-15.5,0-.6,.1-1.1,.1-1.7,0-.3,.5-7,9.2-7s10.7,10.4,11.1,13.5c.38,4.76,.32,9.55-.2,14.3m25-3.5c-.6,2.7-1.1,4.7-12.3,4.7-5.7,0-7.2-.9-7.5-1.1-.42-4.72-.48-9.47-.2-14.2,.4-3.22,2.09-13.5,11.09-13.5s9.2,6.7,9.2,7c0,.5,.1,1.1,.1,1.7,.3,4.8,.7,11-.4,15.4m21.7-4.1c-.2,1.6-.6,5.1-10.4,5.1-2.5,0-5.1,0-5.6-.3-.12-.35-.19-.73-.2-1.1h0c0-.6-.3-4.4-.4-7.8v-1.2c-.02-1,0-2,.1-3,.3-2.8,1.7-11.8,8.8-11.8s7.2,3.9,7.3,5.8v.2c0,1,.1,2,.2,3,.32,3.69,.38,7.4,.2,11.1m17.8-2.8c-.2,1.5-.5,4.2-8.5,4.2-1.47,.09-2.94,.02-4.4-.2-.08-.26-.12-.53-.1-.8-.27-3.46-.33-6.93-.2-10.4,.2-2.2,1.3-9.3,7.4-10.1,1.18-.22,2.4,.11,3.3,.9,1.21,1.1,1.98,2.58,2.2,4.2,0,.8,.1,1.7,.1,2.6,.27,3.19,.33,6.4,.2,9.6"/><path id="Path_96" class="cls-1" d="M133.67,103.72c-1.52-1.72-3.71-2.7-6-2.7-3.85-.18-7.55,1.54-9.9,4.6-1.9-2.2-5.1-4.1-10.2-4.1-4.4-.12-8.54,2.08-10.9,5.8-2.2-3.2-6.1-6.1-12.6-5.8-6.7,.3-10.8,4.5-12.9,8.7-.1-.2-.2-.3-.3-.5-.1,.2-.2,.3-.3,.5-2.2-4.2-6.2-8.3-12.9-8.7-6.5-.3-10.4,2.6-12.6,5.8-2.3-3.78-6.48-6.01-10.9-5.8-5,0-8.3,1.9-10.2,4.1-2.35-3.06-6.05-4.78-9.9-4.6-2.3-.04-4.5,.95-6,2.7-4.9,5.6-3.4,18.2-3.2,19.6v.1c.4,2.6,3.1,7.6,10,8.3,2.89,.39,5.83,.11,8.6-.8,1.3,2.3,4.3,4.6,10.1,4.6s9.5-.9,11.5-1.7c1.7,2.2,5.5,5.2,13.3,5.5,6.9,.3,10.6-1.1,12.6-2.5,2,1.4,5.7,2.9,12.6,2.5,7.8-.4,11.5-3.3,13.3-5.5,2,.9,5.5,1.7,11.5,1.7s8.8-2.3,10.1-4.6c2.77,.91,5.71,1.19,8.6,.8,6.9-.7,9.5-5.7,10-8.3v-.08c0-1.4,1.5-14-3.4-19.6m-1.2,19c-.1,.6-1.1,4.1-6.1,4.6-5.4,.6-7.6-1.1-7.9-1.3-.74-.88-2.06-.99-2.95-.25-.02,.02-.04,.03-.05,.05-.47,.44-.73,1.06-.7,1.7,0,.5-.5,3.4-6.6,3.4-7.6,0-10.1-1.5-10.6-1.8-.43-.67-1.21-1.02-2-.9-.87,.19-1.56,.84-1.8,1.7,0,0-1.5,4.4-10.6,4.8-8.1,.4-10.2-1.9-10.5-2.3-.23-.69-.79-1.22-1.5-1.4-.29-.1-.61-.1-.9,0-.71,.18-1.27,.71-1.5,1.4-.3,.4-2.4,2.7-10.5,2.3-9.1-.4-10.6-4.8-10.6-4.8-.17-.89-.9-1.58-1.8-1.7-.79-.12-1.57,.23-2,.9-.4,.3-2.9,1.8-10.6,1.8-6.1,0-6.6-2.9-6.6-3.4,.09-1.18-.79-2.21-1.97-2.3-.01,0-.02,0-.03,0-.65-.05-1.27,.21-1.7,.7-.3,.2-2.5,1.8-7.9,1.3-5-.5-5.9-4.1-6.1-4.6-.4-3.4-.9-12.6,2.2-16,.65-.77,1.6-1.21,2.6-1.2,6.6,0,7.5,5.1,7.6,5.7,.17,1.09,1.1,1.89,2.2,1.9h0c1.1-.01,2.03-.81,2.2-1.9,.1-.5,1.1-5.1,8.2-5.2h.1c7.1,0,8.4,6.8,8.5,7.6,.21,1.07,1.12,1.85,2.2,1.9h0c1.1-.01,2.03-.81,2.2-1.9,.1-.8,1.5-7.9,10.3-7.5,9.2,.4,10.7,10.5,10.8,11,.13,1.07,1.02,1.88,2.1,1.9,.21,.02,.41-.02,.6-.1,.2,0,.4,.1,.6,.1,1.08-.02,1.97-.83,2.1-1.9,.1-.4,1.6-10.5,10.8-11,8.8-.4,10.1,6.7,10.3,7.5,.14,1.1,1.09,1.92,2.2,1.9h0c1.1-.01,2.03-.81,2.2-1.9,.1-.8,1.5-7.6,8.5-7.6h.1c7.1,.1,8.1,4.7,8.2,5.2,.17,1.09,1.1,1.89,2.2,1.9h0c1.1-.01,2.03-.81,2.2-1.9,.1-.6,1-5.6,7.6-5.7,1.01-.03,1.97,.42,2.6,1.2,3,3.5,2.6,12.7,2.1,16.1"/><path id="Path_97" class="cls-1" d="M80.76,82.42l-8.3-8.3c-.8-.86-2.14-.9-3-.1-.04,.03-.07,.07-.1,.1h0l-8.3,8.3c-.86,.8-.9,2.14-.1,3,.03,.04,.07,.07,.1,.1,.86,.85,2.24,.85,3.1,0l4.5-4.5v13.7c0,1.22,.98,2.2,2.2,2.2s2.2-.98,2.2-2.2v-13.7l4.5,4.5c.8,.86,2.14,.9,3,.1,.04-.03,.07-.07,.1-.1,.83-.85,.87-2.19,.1-3.1"/></g></g></g></g></svg>