<?xml version="1.0" encoding="utf-8"?>
<!-- Generator: Adobe Illustrator 26.0.3, SVG Export Plug-In . SVG Version: 6.00 Build 0)  -->
<svg version="1.1" id="Group_276" xmlns="http://www.w3.org/2000/svg" xmlns:xlink="http://www.w3.org/1999/xlink" x="0px" y="0px"
	 viewBox="0 0 174 137" style="enable-background:new 0 0 174 137;" xml:space="preserve">
<style type="text/css">
	.st0{clip-path:url(#SVGID_00000017501097049257857780000007793063227671920044_);}
	.st1{fill:#FFFFFF;}
</style>
<g>
	<defs>
		<rect id="SVGID_1_" width="174" height="137"/>
	</defs>
	<clipPath id="SVGID_00000182492471904215137500000003730704285282419596_">
		<use xlink:href="#SVGID_1_"  style="overflow:visible;"/>
	</clipPath>
	<g id="Group_275" style="clip-path:url(#SVGID_00000182492471904215137500000003730704285282419596_);">
		<path id="Path_95" class="st1" d="M136.5,37.3c0.7-1.4,9.9-20.7-3.6-33c-9.3-8.5-29.8-2.1-46.2,3c-6.7,2.1-13,4.1-16.1,4.1
			C65.7,11.3,59,9,51.9,6.6C37.8,1.7,21.8-3.8,9.3,3.7C1.9,8.2-1.2,15.8,0.4,25.6c0.8,4.4,2.2,8.6,4.2,12.5c0,0.1,0,0.1,0,0.2
			c-0.3,3.4-0.3,6.9-0.1,10.3c0.6,5.4,4.8,8,12.7,8c2.7,0,5,0,6.5-0.8c2.1,3.1,6.5,4.6,13.2,4.6c3.6,0,6.4,0,8.1-1.1
			c1.8,3.3,5.7,4.8,15.4,4.8c3.7,0,7.8-0.3,10.1-2c2.3,1.7,6.4,2,10.1,2c9.7,0,13.6-1.6,15.4-4.8c1.7,1.1,4.5,1.1,8.1,1.1
			c6.8,0,11.1-1.5,13.2-4.6c1.5,0.8,3.8,0.8,6.5,0.8c8,0,12.2-2.6,12.7-8c0.2-3.4,0.2-6.9-0.1-10.3C136.5,38,136.5,37.6,136.5,37.3
			 M11.6,7.5C22.4,1,37.3,6.2,50.4,10.7c7.5,2.6,14.5,5,20.1,5c3.7,0,9.7-1.9,17.4-4.3c14.6-4.5,34.5-10.8,41.9-4
			c7.5,6.9,6.2,16.9,4.5,22.9c-0.5-0.7-1-1.3-1.7-1.9c-1.9-1.5-4.3-2.2-6.7-1.9c-3.5,0.4-6.6,2.4-8.4,5.4c-2.2-4.6-7.3-5.4-10.6-5.4
			c-5.1,0-8.5,2.8-10.6,6.7c-1.7-3.4-5.4-6.7-12.3-6.7c-6.9,0-11.2,4.2-13.5,9.6c-2.3-5.4-6.6-9.6-13.5-9.6
			c-6.9,0-10.6,3.3-12.3,6.7c-2.1-3.9-5.5-6.7-10.6-6.7c-3.3,0-8.5,0.8-10.6,5.4c-1.8-3-4.9-5-8.4-5.4c-2.4-0.4-4.8,0.3-6.7,1.9
			c-0.8,0.7-1.5,1.6-2.1,2.5C4,24.4,2.1,13.3,11.6,7.5 M21.7,52.2c-1.5,0.2-2.9,0.3-4.4,0.2c-8,0-8.3-2.7-8.5-4.2
			c-0.2-3.2-0.1-6.4,0.1-9.6c0-0.9,0.1-1.8,0.1-2.6c0.3-1.6,1-3.1,2.2-4.2c0.7-0.6,1.7-0.9,2.6-0.9c0.2,0,0.5,0,0.7,0
			c6.1,0.8,7.2,7.9,7.4,10.1c0.1,3.5,0,6.9-0.2,10.4C21.8,51.6,21.7,51.9,21.7,52.2 M42.6,55.8c-0.5,0.4-3.1,0.4-5.6,0.4
			c-9.8,0-10.2-3.4-10.4-5.1c-0.2-3.7-0.2-7.4,0.2-11.1c0.1-1,0.1-2,0.2-3l0-0.2c0.1-1.9,0.2-5.8,7.3-5.8c7.2,0,8.6,9,8.8,11.8
			c0.1,0.8,0.1,1.9,0.1,3c0,0.4,0,0.8,0,1.2c-0.1,3.4-0.3,7.2-0.4,7.8C42.8,55.1,42.7,55.4,42.6,55.8 M67.9,58.6
			c-0.3,0.2-1.7,1.1-7.5,1.1c-11.2,0-11.6-2-12.3-4.7c-1-4.4-0.7-10.5-0.4-15.5c0-0.6,0.1-1.1,0.1-1.7c0-0.3,0.5-7,9.2-7
			c9,0,10.7,10.4,11.1,13.5C68.5,49.2,68.4,53.9,67.9,58.6 M92.9,55.1c-0.6,2.7-1.1,4.7-12.3,4.7c-5.7,0-7.2-0.9-7.5-1.1
			c-0.4-4.7-0.5-9.4-0.2-14.2C73.3,41.3,75,31,84,31c8.8,0,9.2,6.7,9.2,7c0,0.5,0.1,1.1,0.1,1.7C93.6,44.5,94,50.7,92.9,55.1
			 M114.6,51c-0.2,1.6-0.6,5.1-10.4,5.1c-2.5,0-5.1,0-5.6-0.3c-0.1-0.3-0.2-0.7-0.2-1.1l0,0c0-0.6-0.3-4.4-0.4-7.8
			c0-0.4,0-0.8,0-1.2c0-1.2,0-2.2,0.1-3c0.3-2.8,1.7-11.8,8.8-11.8c7.1,0,7.2,3.9,7.3,5.8l0,0.2c0,1,0.1,2,0.2,3
			C114.7,43.6,114.8,47.3,114.6,51 M132.4,48.2c-0.2,1.5-0.5,4.2-8.5,4.2c-1.5,0.1-3,0-4.4-0.2c-0.1-0.3-0.1-0.5-0.1-0.8
			c-0.3-3.5-0.3-6.9-0.2-10.4c0.2-2.2,1.3-9.3,7.4-10.1c1.2-0.2,2.4,0.1,3.3,0.9c1.2,1.1,2,2.6,2.2,4.2c0,0.8,0.1,1.7,0.1,2.6
			C132.5,41.7,132.5,45,132.4,48.2"/>
		<path id="Path_96" class="st1" d="M132.9,101.4c-1.5-1.7-3.7-2.7-6-2.7c-5,0-8.1,2.2-9.9,4.6c-1.9-2.2-5.1-4.1-10.2-4.1
			c-4.4-0.1-8.6,2.1-10.9,5.8c-2.2-3.2-6.1-6.1-12.6-5.8c-6.7,0.3-10.8,4.5-12.9,8.7c-0.1-0.2-0.2-0.3-0.3-0.5
			c-0.1,0.2-0.2,0.3-0.3,0.5c-2.2-4.2-6.2-8.3-12.9-8.7c-6.5-0.3-10.4,2.6-12.6,5.8c-2.3-3.8-6.5-6-10.9-5.8c-5,0-8.3,1.9-10.2,4.1
			c-1.8-2.4-4.9-4.6-9.9-4.6c-2.3,0-4.5,0.9-6,2.7C2.4,107,3.9,119.6,4.1,121c0,0,0,0.1,0,0.1c0.4,2.6,3.1,7.6,10,8.3
			c2.9,0.4,5.8,0.1,8.6-0.8c1.3,2.3,4.3,4.6,10.1,4.6c6,0,9.5-0.9,11.5-1.7c1.7,2.2,5.5,5.2,13.3,5.5c6.9,0.3,10.6-1.1,12.6-2.5
			c2,1.4,5.7,2.9,12.6,2.5c7.8-0.4,11.5-3.3,13.3-5.5c2,0.9,5.5,1.7,11.5,1.7c5.8,0,8.8-2.3,10.1-4.6c2.8,0.9,5.7,1.2,8.6,0.8
			c6.9-0.7,9.5-5.7,10-8.3c0,0,0-0.1,0-0.1C136.3,119.6,137.8,107,132.9,101.4 M131.7,120.4c-0.1,0.6-1.1,4.1-6.1,4.6
			c-5.4,0.6-7.6-1.1-7.9-1.3c-0.8-0.9-2.1-1-3-0.2c-0.5,0.4-0.7,1.1-0.7,1.7c0,0.5-0.5,3.4-6.6,3.4c-7.6,0-10.1-1.5-10.6-1.8
			c-0.4-0.7-1.2-1-2-0.9c-0.9,0.2-1.6,0.9-1.8,1.7c0,0-1.5,4.4-10.6,4.8c-8.1,0.4-10.2-1.9-10.5-2.3c-0.2-0.7-0.8-1.2-1.5-1.4
			c-0.3-0.1-0.6-0.1-0.9,0c-0.7,0.2-1.3,0.7-1.5,1.4c-0.3,0.4-2.4,2.7-10.5,2.3c-9.1-0.4-10.6-4.8-10.6-4.8
			c-0.2-0.9-0.9-1.6-1.8-1.7c-0.8-0.1-1.6,0.2-2,0.9c-0.4,0.3-2.9,1.8-10.6,1.8c-6.1,0-6.6-2.9-6.6-3.4c0.1-1.2-0.8-2.2-2-2.3
			c-0.7,0-1.3,0.2-1.7,0.7c-0.3,0.2-2.5,1.8-7.9,1.3c-5-0.5-5.9-4.1-6.1-4.6c-0.4-3.4-0.9-12.6,2.2-16c0.7-0.8,1.6-1.2,2.6-1.2
			c6.6,0,7.5,5.1,7.6,5.7c0.2,1.1,1.1,1.9,2.2,1.9l0,0c1.1,0,2-0.8,2.2-1.9c0.1-0.5,1.1-5.1,8.2-5.2h0.1c7.1,0,8.4,6.8,8.5,7.6
			c0.2,1.1,1.1,1.8,2.2,1.9h0c1.1,0,2-0.8,2.2-1.9c0.1-0.8,1.5-7.9,10.3-7.5c9.2,0.4,10.7,10.5,10.8,11c0.2,1.1,1,1.9,2.1,1.9
			c0.2,0,0.4,0,0.6-0.1c0.2,0,0.4,0.1,0.6,0.1c1.1,0,1.9-0.8,2.1-1.9c0.1-0.4,1.6-10.5,10.8-11c8.8-0.4,10.1,6.7,10.3,7.5
			c0.1,1.1,1.1,1.9,2.2,1.9h0c1.1,0,2-0.8,2.2-1.9c0.1-0.8,1.5-7.6,8.5-7.6h0.1c7.1,0.1,8.1,4.7,8.2,5.2c0.2,1.1,1.1,1.9,2.2,1.9
			l0,0c1.1,0,2-0.8,2.2-1.9c0.1-0.6,1-5.6,7.6-5.7c1,0,2,0.4,2.6,1.2C132.6,107.8,132.2,117,131.7,120.4"/>
		<path id="Path_97" class="st1" d="M80,80.1l-8.3-8.3c-0.9-0.9-2.3-0.9-3.1,0c0,0,0,0,0,0l-8.3,8.3c-0.9,0.9-0.9,2.3,0,3.1
			s2.3,0.9,3.1,0l4.5-4.5v13.7c0,1.2,1,2.2,2.2,2.2s2.2-1,2.2-2.2V78.7l4.5,4.5c0.9,0.9,2.3,0.9,3.1,0S80.8,80.9,80,80.1"/>
	</g>
</g>
</svg>
