<svg xmlns="http://www.w3.org/2000/svg" viewBox="0 0 140.22 137.05"><defs><style>.cls-1{fill:#fff;}</style></defs><g id="Warstwa_2" data-name="Warstwa 2"><g id="Warstwa_1-2" data-name="Warstwa 1"><g id="Group_275" data-name="Group 275"><path id="Path_95" data-name="Path 95" class="cls-1" d="M136.51,37.28c.7-1.4,9.9-20.7-3.6-33-9.3-8.5-29.8-2.1-46.2,3-6.7,2.1-13,4.1-16.1,4.1-4.9-.1-11.6-2.4-18.7-4.8-14.1-4.9-30.1-10.4-42.6-2.9-7.4,4.5-10.5,12.1-8.9,21.9a44.94,44.94,0,0,0,4.2,12.5v.2a70.83,70.83,0,0,0-.1,10.3c.6,5.4,4.8,8,12.7,8,2.7,0,5,0,6.5-.8,2.1,3.1,6.5,4.6,13.2,4.6,3.6,0,6.4,0,8.1-1.1,1.8,3.3,5.7,4.8,15.4,4.8,3.7,0,7.8-.3,10.1-2,2.3,1.7,6.4,2,10.1,2,9.7,0,13.6-1.6,15.4-4.8,1.7,1.1,4.5,1.1,8.1,1.1,6.8,0,11.1-1.5,13.2-4.6,1.5.8,3.8.8,6.5.8,8,0,12.2-2.6,12.7-8a70.83,70.83,0,0,0-.1-10.3,3.4,3.4,0,0,0,.1-1M11.61,7.48c10.8-6.5,25.7-1.3,38.8,3.2,7.5,2.6,14.5,5,20.1,5,3.7,0,9.7-1.9,17.4-4.3,14.6-4.5,34.5-10.8,41.9-4s6.2,16.9,4.5,22.9a10.08,10.08,0,0,0-1.7-1.9,9,9,0,0,0-6.7-1.9,11.28,11.28,0,0,0-8.4,5.4c-2.2-4.6-7.3-5.4-10.6-5.4-5.1,0-8.5,2.8-10.6,6.7-1.7-3.4-5.4-6.7-12.3-6.7s-11.2,4.2-13.5,9.6c-2.3-5.4-6.6-9.6-13.5-9.6s-10.6,3.3-12.3,6.7c-2.1-3.9-5.5-6.7-10.6-6.7-3.3,0-8.5.8-10.6,5.4a11.28,11.28,0,0,0-8.4-5.4,8.23,8.23,0,0,0-6.7,1.9,12.66,12.66,0,0,0-2.1,2.5c-2.3-6.5-4.2-17.6,5.3-23.4m10.1,44.7a21.63,21.63,0,0,1-4.4.2c-8,0-8.3-2.7-8.5-4.2a76.89,76.89,0,0,1,.1-9.6c0-.9.1-1.8.1-2.6a7.47,7.47,0,0,1,2.2-4.2,4.11,4.11,0,0,1,2.6-.9h.7c6.1.8,7.2,7.9,7.4,10.1.1,3.5,0,6.9-.2,10.4.1.2,0,.5,0,.8m20.9,3.6c-.5.4-3.1.4-5.6.4-9.8,0-10.2-3.4-10.4-5.1a68.6,68.6,0,0,1,.2-11.1c.1-1,.1-2,.2-3v-.2c.1-1.9.2-5.8,7.3-5.8s8.6,9,8.8,11.8a27.19,27.19,0,0,1,.1,3V47c-.1,3.4-.3,7.2-.4,7.8a4.4,4.4,0,0,1-.2,1m25.3,2.8c-.3.2-1.7,1.1-7.5,1.1-11.2,0-11.6-2-12.3-4.7-1-4.4-.7-10.5-.4-15.5,0-.6.1-1.1.1-1.7,0-.3.5-7,9.2-7,9,0,10.7,10.4,11.1,13.5a75.69,75.69,0,0,1-.2,14.3m25-3.5c-.6,2.7-1.1,4.7-12.3,4.7-5.7,0-7.2-.9-7.5-1.1a96,96,0,0,1-.2-14.2C73.31,41.28,75,31,84,31c8.8,0,9.2,6.7,9.2,7,0,.5.1,1.1.1,1.7.3,4.8.7,11-.4,15.4m21.7-4.1c-.2,1.6-.6,5.1-10.4,5.1-2.5,0-5.1,0-5.6-.3a3.59,3.59,0,0,1-.2-1.1h0c0-.6-.3-4.4-.4-7.8v-1.2a26.28,26.28,0,0,1,.1-3c.3-2.8,1.7-11.8,8.8-11.8s7.2,3.9,7.3,5.8v.2c0,1,.1,2,.2,3a82.27,82.27,0,0,1,.2,11.1m17.8-2.8c-.2,1.5-.5,4.2-8.5,4.2a21.31,21.31,0,0,1-4.4-.2,2.2,2.2,0,0,1-.1-.8,90.26,90.26,0,0,1-.2-10.4c.2-2.2,1.3-9.3,7.4-10.1a3.93,3.93,0,0,1,3.3.9,6.91,6.91,0,0,1,2.2,4.2c0,.8.1,1.7.1,2.6a76.52,76.52,0,0,1,.2,9.6"/><path id="Path_96" data-name="Path 96" class="cls-1" d="M132.91,101.38a8,8,0,0,0-6-2.7,11.76,11.76,0,0,0-9.9,4.6c-1.9-2.2-5.1-4.1-10.2-4.1a12.52,12.52,0,0,0-10.9,5.8c-2.2-3.2-6.1-6.1-12.6-5.8-6.7.3-10.8,4.5-12.9,8.7-.1-.2-.2-.3-.3-.5-.1.2-.2.3-.3.5-2.2-4.2-6.2-8.3-12.9-8.7-6.5-.3-10.4,2.6-12.6,5.8a12.1,12.1,0,0,0-10.9-5.8c-5,0-8.3,1.9-10.2,4.1a11.76,11.76,0,0,0-9.9-4.6,7.7,7.7,0,0,0-6,2.7c-4.9,5.6-3.4,18.2-3.2,19.6v.1c.4,2.6,3.1,7.6,10,8.3a19.32,19.32,0,0,0,8.6-.8c1.3,2.3,4.3,4.6,10.1,4.6,6,0,9.5-.9,11.5-1.7,1.7,2.2,5.5,5.2,13.3,5.5,6.9.3,10.6-1.1,12.6-2.5,2,1.4,5.7,2.9,12.6,2.5,7.8-.4,11.5-3.3,13.3-5.5,2,.9,5.5,1.7,11.5,1.7,5.8,0,8.8-2.3,10.1-4.6a19.32,19.32,0,0,0,8.6.8c6.9-.7,9.5-5.7,10-8.3V121c0-1.4,1.5-14-3.4-19.6m-1.2,19c-.1.6-1.1,4.1-6.1,4.6-5.4.6-7.6-1.1-7.9-1.3a2.09,2.09,0,0,0-3-.2,2.19,2.19,0,0,0-.7,1.7c0,.5-.5,3.4-6.6,3.4-7.6,0-10.1-1.5-10.6-1.8a2,2,0,0,0-2-.9,2.4,2.4,0,0,0-1.8,1.7s-1.5,4.4-10.6,4.8c-8.1.4-10.2-1.9-10.5-2.3a2.12,2.12,0,0,0-1.5-1.4,1.39,1.39,0,0,0-.9,0,2.12,2.12,0,0,0-1.5,1.4c-.3.4-2.4,2.7-10.5,2.3-9.1-.4-10.6-4.8-10.6-4.8a2.12,2.12,0,0,0-1.8-1.7,2,2,0,0,0-2,.9c-.4.3-2.9,1.8-10.6,1.8-6.1,0-6.6-2.9-6.6-3.4a2.14,2.14,0,0,0-2-2.3,2.06,2.06,0,0,0-1.7.7c-.3.2-2.5,1.8-7.9,1.3-5-.5-5.9-4.1-6.1-4.6-.4-3.4-.9-12.6,2.2-16a3.37,3.37,0,0,1,2.6-1.2c6.6,0,7.5,5.1,7.6,5.7a2.25,2.25,0,0,0,2.2,1.9h0a2.25,2.25,0,0,0,2.2-1.9c.1-.5,1.1-5.1,8.2-5.2h.1c7.1,0,8.4,6.8,8.5,7.6a2.35,2.35,0,0,0,2.2,1.9h0a2.25,2.25,0,0,0,2.2-1.9c.1-.8,1.5-7.9,10.3-7.5,9.2.4,10.7,10.5,10.8,11a2.15,2.15,0,0,0,2.1,1.9,1.27,1.27,0,0,0,.6-.1c.2,0,.4.1.6.1a2.15,2.15,0,0,0,2.1-1.9c.1-.4,1.6-10.5,10.8-11,8.8-.4,10.1,6.7,10.3,7.5a2.17,2.17,0,0,0,2.2,1.9h0a2.25,2.25,0,0,0,2.2-1.9c.1-.8,1.5-7.6,8.5-7.6h.1c7.1.1,8.1,4.7,8.2,5.2a2.25,2.25,0,0,0,2.2,1.9h0a2.25,2.25,0,0,0,2.2-1.9c.1-.6,1-5.6,7.6-5.7a3.22,3.22,0,0,1,2.6,1.2c3,3.5,2.6,12.7,2.1,16.1"/><path id="Path_97" data-name="Path 97" class="cls-1" d="M80,80.08l-8.3-8.3a2.12,2.12,0,0,0-3.1,0h0l-8.3,8.3a2.12,2.12,0,0,0,0,3.1,2.2,2.2,0,0,0,3.1,0l4.5-4.5v13.7a2.2,2.2,0,0,0,4.4,0V78.68l4.5,4.5a2.12,2.12,0,0,0,3.1,0,2.31,2.31,0,0,0,.1-3.1"/></g></g></g></svg>