<svg xmlns="http://www.w3.org/2000/svg" viewBox="0 0 22.01 20.95"><defs><style>.cls-1{fill:#fff;}</style></defs><g id="Warstwa_2" data-name="Warstwa 2"><g id="Warstwa_1-2" data-name="Warstwa 1"><path class="cls-1" d="M22,8a2.74,2.74,0,0,1-.36.48,19.29,19.29,0,0,1-2.78,3.07,17.69,17.69,0,0,1-2.35,1.78,17.7,17.7,0,0,1,.84,2.86A19.16,19.16,0,0,1,17.69,21a1.83,1.83,0,0,1-.58-.18,19.17,19.17,0,0,1-3.78-1.7,18.06,18.06,0,0,1-2.43-1.72A17.87,17.87,0,0,1,8.4,19,20.48,20.48,0,0,1,4,20.78V20.2a18.53,18.53,0,0,1,1.35-6.95A16,16,0,0,1,3,11.43a17.89,17.89,0,0,1-3-3.6c.17-.08.38-.13.55-.21a19.38,19.38,0,0,1,4.06-.83,15,15,0,0,1,3,0A18.17,18.17,0,0,1,8.61,4a17.94,17.94,0,0,1,2.48-4c.13.15.23.33.36.48a18.36,18.36,0,0,1,2,3.6,18.52,18.52,0,0,1,1,2.82A19.85,19.85,0,0,1,22,8.06Z"/></g></g></svg>