<svg xmlns="http://www.w3.org/2000/svg" viewBox="0 0 13.59 12.95"><defs><style>.cls-1{fill:#fff;}</style></defs><g id="Warstwa_2" data-name="Warstwa 2"><g id="Warstwa_1-2" data-name="Warstwa 1"><path class="cls-1" d="M13.59,4.94c-.07.1-.12.2-.2.3a11.5,11.5,0,0,1-1.72,1.9A12.39,12.39,0,0,1,10.2,8.26,11.11,11.11,0,0,1,10.7,10,11,11,0,0,1,10.93,13c-.13,0-.23-.08-.35-.1a11.78,11.78,0,0,1-2.34-1.07,9.15,9.15,0,0,1-1.49-1.06,12.85,12.85,0,0,1-1.52,1,11.11,11.11,0,0,1-2.72,1.11v-.38a12,12,0,0,1,.28-2.53,9.9,9.9,0,0,1,.56-1.75A10.25,10.25,0,0,1,1.9,7.07,11.56,11.56,0,0,1,0,4.84l.38-.12a11.3,11.3,0,0,1,2.51-.51,11.43,11.43,0,0,1,1.85,0,10.9,10.9,0,0,1,.64-1.73A10.94,10.94,0,0,1,6.92,0l.23.3A11.68,11.68,0,0,1,8.42,2.53,8.71,8.71,0,0,1,9,4.25c.62,0,1.23,0,1.85,0A9.27,9.27,0,0,1,13.59,4.94Z"/></g></g></svg>